<svg id="Layer_1" data-name="Layer 1" xmlns="http://www.w3.org/2000/svg" viewBox="0 0 184.6 29.6"><title>logo-anova</title><path d="M102.075,5.438c-8.5,0-14.7,6.2-14.7,14.8a14.7,14.7,0,0,0,29.4,0C116.775,11.638,110.575,5.438,102.075,5.438Zm0,23.6a8.9,8.9,0,1,1,8.9-8.9A8.92,8.92,0,0,1,102.075,29.038Z" transform="translate(-6.675 -5.338)" style="fill:#1c3461"/><path d="M30.275,20.138a8.9,8.9,0,1,1-8.9-8.9,8.92,8.92,0,0,1,8.9,8.9v-12a14.748,14.748,0,0,0-8.9-2.8c-8.5,0-14.7,6.2-14.7,14.8a14.238,14.238,0,0,0,14.7,14.7,15.613,15.613,0,0,0,8.9-2.7Z" transform="translate(-6.675 -5.338)" style="fill:#1c3461"/><rect x="23.6" y="0.6" width="6.9" height="28.3" style="fill:#b34496"/><polygon points="132.7 16 125.1 0.4 117.6 0.4 129.2 22.7 132.7 16" style="fill:#1c3461"/><polygon points="132.7 16 129.2 22.7 132.6 29.2 132.8 29.2 147.8 0.4 140.3 0.4 132.7 16" style="fill:#b34496"/><path d="M184.375,20.138a8.9,8.9,0,1,1-8.9-8.9,8.92,8.92,0,0,1,8.9,8.9v-12a14.748,14.748,0,0,0-8.9-2.8c-8.5,0-14.7,6.2-14.7,14.8a14.238,14.238,0,0,0,14.7,14.7,15.613,15.613,0,0,0,8.9-2.7Z" transform="translate(-6.675 -5.338)" style="fill:#1c3461"/><rect x="177.7" y="0.6" width="6.9" height="28.3" style="fill:#2fc1d4"/><rect x="43.4" y="0.6" width="6.9" height="28.3" style="fill:#2fc1d4"/><path d="M75.676,18.038c0-7.4-3.8-12.3-10.7-12.3a10.6,10.6,0,0,0-8,3.2v6.9c1.4-2,3.4-3.8,6.2-3.8,3.5,0,5.7,2.6,5.7,6.3v15.9h6.8Z" transform="translate(-6.675 -5.338)" style="fill:#1c3461"/></svg>