<svg id="Layer_1" data-name="Layer 1" xmlns="http://www.w3.org/2000/svg" viewBox="0 0 186.667 196"><title>envelope-icon</title><polyline points="147.601 49.601 186.667 88.667 186.667 196 0 196 0 88.667 40.024 48.642" style="fill:#fff"/><path d="M39.374,8.321v112l34.741,32.942c18.531,6.113,36.543,6.1,53.925-1.338l32.667-31.6v-112Z" transform="translate(-6.707 -8.321)" style="fill:#d7b66b"/><line x1="14" y1="177.333" x2="56" y2="135.333" style="fill:none;stroke:#f3f3f3;stroke-miterlimit:10;stroke-width:5px"/><line x1="172.667" y1="177.333" x2="130.667" y2="135.333" style="fill:none;stroke:#f3f3f3;stroke-miterlimit:10;stroke-width:5px"/><path d="M179.374,101.654l-46.667,46.667c-9.333,7.972-15.907,9.333-23.333,9.333H90.707c-7.426,0-14-1.361-23.333-9.333L20.707,101.654" transform="translate(-6.707 -8.321)" style="fill:none;stroke:#f3f3f3;stroke-miterlimit:10;stroke-width:5px"/><polyline points="70 74.667 88.667 93.333 121.333 51.333" style="fill:none;stroke:#fff;stroke-miterlimit:10;stroke-width:9px"/></svg>