<svg xmlns="http://www.w3.org/2000/svg" viewBox="0 0 162.31 115.948"><title>logo-driversiti</title><g style="isolation:isolate"><g id="Layer_1" data-name="Layer 1"><path d="M99.49,11.522V40.985c0,10.628-6.278,17.495-15.994,17.495A16.093,16.093,0,0,1,68.122,47.045a11.573,11.573,0,0,1-.409-1.783c-1.6-10.669,6.064-18.769,17.02-18.769h7.334V8.846a32.138,32.138,0,1,0,7.423,2.676Z" transform="translate(-3.804 -2.812)" style="fill:#5dba31"/><path d="M84.733,33.915c-5.867,0-9.808,3.445-9.808,8.572a8.6,8.6,0,0,0,7.027,8.445,6.013,6.013,0,0,0,.955.113c7.989.34,9.16-6.2,9.16-10.06V34.133h-.006v-.218Z" transform="translate(-3.804 -2.812)" style="fill:#5dba31"/><path d="M71.314,52.85A15.977,15.977,0,0,0,83.5,58.48c9.716,0,15.994-6.867,15.994-17.495V11.515A32.142,32.142,0,0,1,88.054,72.177M84.733,33.915c-5.867,0-9.808,3.445-9.808,8.572a8.6,8.6,0,0,0,7.027,8.446,6.129,6.129,0,0,0,.955.112c7.988.34,9.16-6.2,9.16-10.06V34.133h-.006v-.218Z" transform="translate(-3.804 -2.812)" style="fill:#3eb549;opacity:0.71;mix-blend-mode:multiply"/><circle cx="79.692" cy="39.675" r="3.882" style="fill:#fff"/><path d="M21.276,97.191V82.83a1.66,1.66,0,1,1,3.319,0v25.716c0,6.843-4.252,10.214-10.162,10.214-6.689,0-10.629-3.993-10.629-12.5S7.537,93.821,14.225,93.821A8.786,8.786,0,0,1,21.276,97.191Zm0,4.2s-1.97-4.563-6.843-4.563c-4.718,0-7.311,3.059-7.311,9.437,0,6.48,2.541,9.488,7.311,9.488,3.992,0,6.843-2.282,6.843-7.207Z" transform="translate(-3.804 -2.812)" style="fill:#808285"/><path d="M33.21,98.073c1.037-2.385,3.63-4.148,7.207-4.148a1.607,1.607,0,1,1,0,3.214c-4.77,0-7.207,3.319-7.207,8.089v11.613a1.659,1.659,0,1,1-3.318,0V95.791a1.659,1.659,0,0,1,3.318,0Z" transform="translate(-3.804 -2.812)" style="fill:#808285"/><path d="M50.03,116.841a1.659,1.659,0,1,1-3.318,0V95.791a1.659,1.659,0,0,1,3.318,0Z" transform="translate(-3.804 -2.812)" style="fill:#808285"/><path d="M63.479,117.464,54.665,96.517a1.894,1.894,0,0,1-.155-.726,1.637,1.637,0,0,1,1.659-1.659,1.571,1.571,0,0,1,1.555,1.089l7.31,17.887,7.311-17.887A1.571,1.571,0,0,1,73.9,94.132a1.637,1.637,0,0,1,1.659,1.659,1.894,1.894,0,0,1-.155.726L66.59,117.464a1.685,1.685,0,0,1-3.111,0Z" transform="translate(-3.804 -2.812)" style="fill:#808285"/><path d="M87.749,93.821c8.3,0,9.9,6.584,9.9,10.11,0,1.5,0,3.318-2.074,3.318H80.439c0,5.133,2.955,8.452,7.829,8.452a9.55,9.55,0,0,0,6.222-2.23,1.448,1.448,0,0,1,.933-.311,1.505,1.505,0,0,1,1.5,1.5,1.553,1.553,0,0,1-.571,1.192,11.548,11.548,0,0,1-8.088,2.9c-6.9,0-11.2-3.785-11.2-12.5C77.069,98.28,81.01,93.821,87.749,93.821Zm0,3.007c-4.51,0-7,2.9-7.31,7.518H94.386C94.386,100.613,93.09,96.828,87.749,96.828Z" transform="translate(-3.804 -2.812)" style="fill:#808285"/><path d="M105.411,98.073c1.037-2.385,3.629-4.148,7.206-4.148a1.607,1.607,0,1,1,0,3.214c-4.769,0-7.206,3.319-7.206,8.089v11.613a1.66,1.66,0,1,1-3.319,0V95.791a1.66,1.66,0,0,1,3.319,0Z" transform="translate(-3.804 -2.812)" style="fill:#808285"/><path d="M120.04,100.146c0,5.445,13.636,3.422,13.636,11.718,0,4.718-3.889,6.844-8.814,6.844A11.663,11.663,0,0,1,116,114.975a1.552,1.552,0,0,1-.362-.985,1.5,1.5,0,0,1,1.5-1.5,1.591,1.591,0,0,1,1.141.519,8.778,8.778,0,0,0,6.584,2.54c2.955,0,5.5-.985,5.5-3.681,0-5.34-13.636-3.214-13.636-11.718,0-4.3,3.526-6.273,7.933-6.273,3.525,0,6.273,1.193,7.88,3.318a1.574,1.574,0,0,1,.364.985,1.5,1.5,0,0,1-1.5,1.5,1.472,1.472,0,0,1-1.089-.467,7.363,7.363,0,0,0-5.651-2.177C122.322,97.036,120.04,97.761,120.04,100.146Z" transform="translate(-3.804 -2.812)" style="fill:#808285"/><path d="M141.889,116.841a1.659,1.659,0,1,1-3.318,0V95.791a1.659,1.659,0,1,1,3.318,0Z" transform="translate(-3.804 -2.812)" style="fill:#808285"/><path d="M149.925,89.1a1.706,1.706,0,0,1,1.659-1.659,1.671,1.671,0,0,1,1.659,1.659v5.444h3.37a1.556,1.556,0,1,1,0,3.111h-3.37v14.31c0,2.229,1.244,3.421,3.007,3.421a1.557,1.557,0,1,1,0,3.112c-4.1,0-6.325-2.748-6.325-6.533V97.658H147.9a1.556,1.556,0,1,1,0-3.111h2.022Z" transform="translate(-3.804 -2.812)" style="fill:#808285"/><path d="M166.114,116.841a1.659,1.659,0,1,1-3.318,0V95.791a1.659,1.659,0,1,1,3.318,0Z" transform="translate(-3.804 -2.812)" style="fill:#808285"/><path d="M98.678,3.947c-3.108-2.558-6.611-.4-6.611,2.576v19.97H84.733c-10.956,0-18.616,8.1-17.02,18.769a11.573,11.573,0,0,0,.409,1.783A16.093,16.093,0,0,0,83.5,58.48c9.716,0,15.994-6.867,15.994-17.495V5.759A2.338,2.338,0,0,0,98.678,3.947Zm-15.771,47.1a6.129,6.129,0,0,1-.955-.112,8.6,8.6,0,0,1-7.027-8.446c0-5.127,3.941-8.572,9.808-8.572h7.328v.218h.006v6.852C92.067,44.844,90.9,51.385,82.907,51.045Z" transform="translate(-3.804 -2.812)" style="fill:#fff"/><circle cx="79.692" cy="39.675" r="3.882" style="fill:#fff"/></g></g></svg>