<svg xmlns="http://www.w3.org/2000/svg" viewBox="0 0 165.087 143.582"><title>logo-cowbell</title><g id="Layer_1" data-name="Layer 1"><path d="M86.821,85.278l-.177.164a10.553,10.553,0,0,1-2.339,1.747,4.233,4.233,0,0,0,2.515,2.119,4.235,4.235,0,0,0,2.516-2.119A10.507,10.507,0,0,1,87,85.442Z" transform="translate(-4.731 -6.055)" style="fill:#c07429"/><path d="M83.192,82.148a7.2,7.2,0,0,1-2.452.919,4.369,4.369,0,0,0,1.684,3.5,8.468,8.468,0,0,0,2.981-1.779A4.831,4.831,0,0,1,83.192,82.148Z" transform="translate(-4.731 -6.055)" style="fill:#c07429"/><path d="M84.769,78.287A7.878,7.878,0,0,1,83.145,76.9a22.437,22.437,0,0,1-4.308.725,4.977,4.977,0,0,0-.2,2.162,2.725,2.725,0,0,0,1.5,2.038,5.824,5.824,0,0,0,2.781-1.095A6.386,6.386,0,0,0,84.769,78.287Z" transform="translate(-4.731 -6.055)" style="fill:#c07429"/><path d="M85.951,78.892a8.166,8.166,0,0,1-1.638,2.379,3.968,3.968,0,0,0,2.506,2.785,3.921,3.921,0,0,0,2.511-2.783,8.15,8.15,0,0,1-1.641-2.381,3.251,3.251,0,0,1-.8.206v.007h-.14V79.1A3.262,3.262,0,0,1,85.951,78.892Z" transform="translate(-4.731 -6.055)" style="fill:#c07429"/><path d="M88.236,84.787a8.463,8.463,0,0,0,2.98,1.779,4.369,4.369,0,0,0,1.684-3.5,7.183,7.183,0,0,1-2.451-.919A4.831,4.831,0,0,1,88.236,84.787Z" transform="translate(-4.731 -6.055)" style="fill:#c07429"/><path d="M90.5,76.9a7.874,7.874,0,0,1-1.623,1.389,6.374,6.374,0,0,0,1.85,2.441A5.824,5.824,0,0,0,93.5,81.823,2.726,2.726,0,0,0,95,79.785a4.976,4.976,0,0,0-.2-2.162A22.451,22.451,0,0,1,90.5,76.9Z" transform="translate(-4.731 -6.055)" style="fill:#c07429"/><path d="M107.179,70.169l-3.793-24.731-1.531-10.351a6.91,6.91,0,0,0-5.3-5.624,17.341,17.341,0,0,0-2.918-.183H80.01a17.33,17.33,0,0,0-2.918.183,6.908,6.908,0,0,0-5.3,5.624L70.269,45.35,66.463,70.169s6.79,1.395,20.358,1.395S107.179,70.169,107.179,70.169Z" transform="translate(-4.731 -6.055)" style="fill:#c07429"/><path d="M80.356,27.073l.22-1.407a2.109,2.109,0,0,1,2.11-1.772h8.271a2.108,2.108,0,0,1,2.109,1.772l.221,1.407h.346c.967,0,1.869.045,2.562.117l-.306-1.947A4.931,4.931,0,0,0,90.957,21.1H82.686a4.932,4.932,0,0,0-4.933,4.144l-.305,1.947c.692-.072,1.593-.117,2.561-.117Z" transform="translate(-4.731 -6.055)" style="fill:#c07429"/><path d="M93.21,73.661c-1.938.067-4.057.109-6.389.109s-4.451-.042-6.389-.109a3.087,3.087,0,0,0-2.5,2.658l0,.031a20.681,20.681,0,0,0,5.213-.845l.45-.163.3.374a5.677,5.677,0,0,0,2.936,2.053,5.677,5.677,0,0,0,2.936-2.053l.3-.374.449.163a20.689,20.689,0,0,0,5.213.845l0-.031A3.088,3.088,0,0,0,93.21,73.661Z" transform="translate(-4.731 -6.055)" style="fill:#c07429"/><path d="M60.7,15.728a1.182,1.182,0,1,1,.592-1.543A1.168,1.168,0,0,1,60.7,15.728Z" transform="translate(-4.731 -6.055)" style="fill:#231f20"/><path d="M68.931,8.39,70.9,7.93c1.584-.37,2.445.121,2.672,1.092a1.461,1.461,0,0,1-.753,1.633,1.486,1.486,0,0,1,1.569,1.11c.255,1.093-.652,1.987-2.052,2.314l-1.968.46Zm1.317.743.391,1.672.778-.182c.886-.2,1.164-.743,1.056-1.206-.1-.42-.493-.688-1.288-.5Zm.573,2.45.4,1.705.936-.218c.918-.214,1.139-.69,1.033-1.145-.1-.42-.548-.767-1.694-.5Z" transform="translate(-4.731 -6.055)" style="fill:#231f20"/><path d="M77.2,6.743l1.107-.125.6,5.255,2.972-.338.116,1.017-4.078.464Z" transform="translate(-4.731 -6.055)" style="fill:#231f20"/><path d="M89.541,6.055,87.286,9.91l.041,2.5-1.123.018L86.163,9.92,83.784,6.149l1.284-.021L86.721,8.9l1.563-2.82Z" transform="translate(-4.731 -6.055)" style="fill:#231f20"/><path d="M92.443,6.272l5.273.625L97.6,7.914,95.535,7.67l-.622,5.256L93.8,12.794l.622-5.256-2.1-.248Z" transform="translate(-4.731 -6.055)" style="fill:#231f20"/><path d="M104.456,12.3l-2.987-.754-.609,2.412-1.079-.273,1.545-6.121,1.08.272-.7,2.752,2.987.754L105.39,8.6l1.08.273-1.544,6.113-1.079-.273Z" transform="translate(-4.731 -6.055)" style="fill:#231f20"/><path d="M114.53,16.446a1.182,1.182,0,1,1,1.55-.575A1.169,1.169,0,0,1,114.53,16.446Z" transform="translate(-4.731 -6.055)" style="fill:#231f20"/><path d="M43.054,130.532l1.719,1.044c1.383.84,1.654,1.79,1.139,2.638a1.454,1.454,0,0,1-1.674.636,1.478,1.478,0,0,1,.343,1.882c-.58.956-1.849.959-3.071.217L39.79,135.9Zm-.882,3.586-.9,1.49.818.5c.8.487,1.291.3,1.532-.094.223-.367.145-.927-.857-1.535Zm1.3-2.14-.887,1.46.68.413c.768.477,1.346.283,1.591-.121.223-.368.129-.832-.566-1.255Z" transform="translate(-4.731 -6.055)" style="fill:#231f20"/><path d="M51.446,135.255l1.832.831c1.522.691,1.907,1.877,1.364,3.074a1.967,1.967,0,0,1-1.837,1.277l.587,2.6-1.181-.536-.448-2.236a5.581,5.581,0,0,1-.524-.208l-.627-.285-.754,1.662-1.009-.459Zm.588,1.386-1.016,2.239.749.34a1.183,1.183,0,0,0,1.784-.555c.284-.627.185-1.251-.768-1.684Z" transform="translate(-4.731 -6.055)" style="fill:#231f20"/><path d="M60.491,138.985l3.895,1.233-.308.971-2.837-.9-.532,1.678,2.574.815-.3.938-2.574-.815-.453,1.432,2.838.9-.307.971-3.9-1.232Z" transform="translate(-4.731 -6.055)" style="fill:#231f20"/><path d="M74.2,148.827l-.379-.065-1.2-4.513-2.612,3.857-.371-.064-.867-6.6,1.206.208.493,4.146,2.353-3.721.361.063,1,4.287,1.839-3.736,1.188.2Z" transform="translate(-4.731 -6.055)" style="fill:#231f20"/><path d="M81.931,143.2l1.106.058-.329,6.272-1.107-.057Z" transform="translate(-4.731 -6.055)" style="fill:#231f20"/><path d="M88.486,143.329l.348-.019,4.093,3.838-.21-4.006,1.106-.059.332,6.318-.294.015-4.142-3.727.205,3.89-1.107.057Z" transform="translate(-4.731 -6.055)" style="fill:#231f20"/><path d="M105.232,144.349l.494,2.645a4.275,4.275,0,0,1-2.258,1.149,3.264,3.264,0,0,1-4.076-2.548,3.309,3.309,0,0,1,2.733-3.811,4.454,4.454,0,0,1,2.273.094l-.2,1a4.18,4.18,0,0,0-1.692-.1,2.207,2.207,0,1,0,.7,4.351,4.244,4.244,0,0,0,1.359-.508l-.2-1.1-1.722.321-.182-.975Z" transform="translate(-4.731 -6.055)" style="fill:#231f20"/><path d="M123.052,141.355a4.121,4.121,0,0,1-1.723,1.3,3.266,3.266,0,0,1-4.523-1.629,3.31,3.31,0,0,1,1.867-4.3,4.584,4.584,0,0,1,2.24-.389l.013,1.022a4.311,4.311,0,0,0-1.675.258,2.206,2.206,0,1,0,1.607,4.1,4.038,4.038,0,0,0,1.514-1.1Z" transform="translate(-4.731 -6.055)" style="fill:#231f20"/><path d="M127.548,132.243a3.247,3.247,0,1,1-1.26,4.493A3.265,3.265,0,0,1,127.548,132.243Zm2.788,4.76a2.176,2.176,0,0,0,.733-3.036,2.165,2.165,0,1,0-3.737,2.18A2.187,2.187,0,0,0,130.336,137Z" transform="translate(-4.731 -6.055)" style="fill:#231f20"/><path d="M136.177,134.494a.657.657,0,0,1-.931-.173.67.67,0,1,1,.931.173Z" transform="translate(-4.731 -6.055)" style="fill:#231f20"/><path d="M153.433,53.87l-36.508.838a.839.839,0,1,1-.039-1.677h.039Z" transform="translate(-4.731 -6.055)" style="fill:#757679"/><path d="M155.522,76.9,117.1,66.676a.839.839,0,0,1,.431-1.621l.034.01Z" transform="translate(-4.731 -6.055)" style="fill:#757679"/><path d="M114.914,77.6l17.617,11.712-18.489-10.28a.839.839,0,1,1,.815-1.466C114.876,77.572,114.9,77.585,114.914,77.6Z" transform="translate(-4.731 -6.055)" style="fill:#757679"/><path d="M143.221,34.582,114.1,43.934a.839.839,0,0,1-.513-1.6l.044-.013Z" transform="translate(-4.731 -6.055)" style="fill:#757679"/><path d="M125.787,22.63,108.943,34.407a.839.839,0,0,1-.962-1.375c.019-.013.039-.026.058-.037Z" transform="translate(-4.731 -6.055)" style="fill:#757679"/><path d="M20.209,53.87l36.508-.839a.839.839,0,0,1,.039,1.677h-.039Z" transform="translate(-4.731 -6.055)" style="fill:#757679"/><path d="M18.12,76.9,56.08,65.065a.838.838,0,1,1,.5,1.6l-.034.01Z" transform="translate(-4.731 -6.055)" style="fill:#757679"/><path d="M59.6,79.028,41.111,89.308,58.728,77.6a.839.839,0,1,1,.929,1.4A.659.659,0,0,1,59.6,79.028Z" transform="translate(-4.731 -6.055)" style="fill:#757679"/><path d="M30.421,34.582,60.01,42.324a.839.839,0,0,1-.424,1.623l-.044-.013Z" transform="translate(-4.731 -6.055)" style="fill:#757679"/><path d="M47.856,22.63,65.6,32.995a.839.839,0,1,1-.846,1.449.572.572,0,0,1-.058-.037Z" transform="translate(-4.731 -6.055)" style="fill:#757679"/><path d="M21.311,123.615c-3.618.363-5.426.556-9.039.968-2.175-1.649-3.27-2.469-5.473-4.1-.731-5.608-1.1-8.412-1.829-14.02,1.761-2.113,2.648-3.167,4.44-5.269,3.608-.411,5.413-.605,9.025-.968,1.033,2.128,1.546,3.194,2.565,5.326-1.524-.325-2.288-.485-3.817-.8-1.535.159-2.3.24-3.837.407-.678.413-1.016.619-1.692,1.034-.278.708-.416,1.062-.692,1.771.469,3.876.7,5.814,1.174,9.691.433.628.648.943,1.079,1.572.741.256,1.111.385,1.85.643,1.611-.176,2.416-.261,4.027-.426,1.42-.62,2.131-.928,3.557-1.54C22.107,120.188,21.839,121.33,21.311,123.615Z" transform="translate(-4.731 -6.055)" style="fill:#231f20"/><path d="M12.207,124.821l-.074-.055c-2.175-1.65-3.249-2.455-5.47-4.1l-.078-.057-.012-.1-1.842-14.12.064-.077c1.777-2.133,2.649-3.168,4.441-5.27l.058-.069.09-.01c3.632-.414,5.4-.605,9.028-.969l.159-.016.07.144c1.033,2.129,1.546,3.194,2.566,5.328l.2.418-.454-.1c-1.512-.322-2.275-.483-3.781-.794-1.494.155-2.261.236-3.749.4l-1.583.966-.644,1.647,1.162,9.578,1,1.464c.679.234,1.047.362,1.73.6,1.566-.171,2.372-.256,3.943-.417,1.4-.61,2.11-.919,3.525-1.526l.417-.179-.1.442c-.542,2.284-.81,3.426-1.338,5.711l-.037.16-.163.016c-3.611.361-5.384.551-9.037.967Zm-5.193-4.464c2.145,1.589,3.22,2.394,5.323,3.989,3.539-.4,5.314-.594,8.788-.942.47-2.032.734-3.162,1.2-5.112-1.161.5-1.865.8-3.138,1.36l-.068.018c-1.611.166-2.416.251-4.026.427l-.051.005-.049-.017c-.739-.258-1.109-.387-1.85-.642l-.071-.025-1.16-1.737-1.181-9.748.741-1.9,1.852-1.106c1.535-.167,2.3-.249,3.838-.407l.035,0,.035.007c1.37.283,2.126.442,3.365.7-.869-1.817-1.377-2.87-2.3-4.763-3.486.351-5.256.541-8.773.942-1.73,2.03-2.6,3.064-4.316,5.121Z" transform="translate(-4.731 -6.055)" style="fill:#58595b"/><path d="M42.318,121.852c-3.626.246-5.438.382-9.061.678-1.964-1.6-2.952-2.39-4.941-3.97-.561-5.9-.841-8.845-1.4-14.742,1.7-1.908,2.559-2.859,4.287-4.756,3.762-.307,5.643-.448,9.408-.7,2.009,1.617,3.008,2.43,4.992,4.062l.965,14.775C44.853,119.053,44,119.984,42.318,121.852Zm-2.345-17.378c-.327-.517-.491-.776-.819-1.292l-1.489-.569c-1.151.084-1.726.127-2.877.215-.553.313-.829.469-1.381.783-.242.56-.362.839-.6,1.4.381,4.426.571,6.638.951,11.064.328.514.491.771.818,1.286l1.46.561c1.123-.086,1.685-.128,2.808-.21l1.353-.772c.241-.556.361-.835.6-1.391C40.467,111.118,40.3,108.9,39.973,104.474Z" transform="translate(-4.731 -6.055)" style="fill:#231f20"/><path d="M33.185,122.765l-.072-.058c-1.963-1.594-2.951-2.388-4.939-3.968l-.076-.06L26.677,103.74l.066-.075c1.7-1.908,2.56-2.859,4.289-4.757l.06-.067.09-.007c3.78-.309,5.627-.446,9.411-.7l.09-.007.07.057c2.009,1.618,3.008,2.431,4.993,4.063l.076.063.978,14.972-.066.071c-1.711,1.857-2.561,2.788-4.246,4.656l-.062.068-.092.006c-3.658.249-5.436.382-9.058.678Zm-4.651-4.324c1.916,1.523,2.9,2.316,4.8,3.853,3.533-.288,5.313-.421,8.88-.663,1.624-1.8,2.473-2.73,4.121-4.518l-.952-14.578c-1.91-1.571-2.907-2.383-4.844-3.942-3.692.251-5.538.389-9.226.69-1.664,1.827-2.521,2.777-4.158,4.612ZM36,118.153l-1.578-.607-.894-1.452-.956-11.122.657-1.522,1.543-.85c1.151-.088,1.726-.131,2.878-.215l.05,0,1.608.614.894,1.462.829,11.13-.656,1.513-1.516.839c-1.123.082-1.685.124-2.807.21Zm-1.274-.98,1.342.516c1.073-.082,1.633-.124,2.706-.2l1.242-.708.55-1.27-.816-10.961L39,103.368l-1.371-.523c-1.1.08-1.674.123-2.774.207l-1.27.72-.55,1.275L33.978,116Z" transform="translate(-4.731 -6.055)" style="fill:#58595b"/><path d="M79.577,99.523q-3.126,10.451-6.047,20.956c-1.439.029-2.158.046-3.6.083-1.718-5.543-2.6-8.312-4.384-13.843-.087-.469-.131-.7-.219-1.171-.055.473-.083.709-.138,1.182-1.407,5.634-2.093,8.452-3.428,14.093-1.438.054-2.157.084-3.6.147q-3.634-10.3-7.469-20.525c-.639-1.044-.959-1.566-1.6-2.609,2.9-.16,4.347-.233,7.247-.362-.094,1.082-.14,1.623-.233,2.7,1.338,3.712,2,5.569,3.3,9.288.095.535.142.8.236,1.337.048-.541.071-.811.119-1.352,1.213-4.9,1.833-7.346,3.1-12.238,1.885-.067,2.828-.1,4.713-.15,1.6,4.8,2.382,7.206,3.923,12.017.085.536.127.8.211,1.341l.145-1.349c1.048-3.793,1.58-5.689,2.663-9.477l-.415-2.684c2.756-.052,4.134-.071,6.89-.094C80.427,97.9,80.143,98.44,79.577,99.523Z" transform="translate(-4.731 -6.055)" style="fill:#231f20"/><path d="M58.009,121.205l-.056-.159c-2.4-6.8-4.913-13.709-7.467-20.521-.62-1.005-.94-1.527-1.583-2.569l-.2-.327.384-.021c2.894-.16,4.316-.232,7.248-.362l.26-.012-.25,2.914c1.3,3.606,1.948,5.43,3.239,9.113,1.194-4.833,1.8-7.237,3.064-12.1l.043-.166.17-.006c1.886-.066,2.829-.1,4.715-.149l.17,0,.053.161c1.59,4.781,2.36,7.141,3.881,11.886,1.016-3.685,1.539-5.547,2.61-9.3l-.448-2.893.262,0c2.757-.051,4.136-.07,6.893-.094l.383,0-.179.338c-.566,1.075-.85,1.616-1.409,2.685-2.077,6.945-4.109,13.987-6.039,20.931l-.046.164-.17,0c-1.439.029-2.157.045-3.6.082l-.173,0-.051-.165c-1.712-5.524-2.573-8.241-4.339-13.7-1.388,5.568-2.061,8.335-3.39,13.947l-.04.169-.173.007c-1.438.055-2.157.084-3.6.147ZM49.494,98.043c.516.837.832,1.353,1.4,2.283,2.554,6.8,5.048,13.652,7.433,20.408,1.271-.056,1.984-.085,3.253-.133,1.317-5.558,1.99-8.326,3.389-13.926l.309-2.648.5,2.65c1.772,5.473,2.633,8.191,4.326,13.652,1.271-.033,1.984-.049,3.256-.075,1.919-6.9,3.939-13.9,6-20.8l.017-.04c.5-.964.784-1.5,1.241-2.367-2.422.021-3.786.04-6.243.085l.382,2.475-.014.049c-1.1,3.838-1.618,5.7-2.662,9.475l-.324,3.033-.478-3.051c-1.523-4.744-2.293-7.1-3.86-11.818-1.717.049-2.655.078-4.371.138-1.247,4.812-1.855,7.215-3.057,12.072v.03l-.265,3.015-.537-3.046c-1.318-3.75-1.966-5.573-3.291-9.251l-.016-.047.213-2.5C53.466,97.832,52.051,97.9,49.494,98.043Z" transform="translate(-4.731 -6.055)" style="fill:#58595b"/><path d="M99.284,120.462c-5.587-.106-8.382-.129-13.97-.116.277-1.077.416-1.616.7-2.693q-.014-9.084-.025-18.168c-.291-1.077-.436-1.615-.729-2.69,5.8-.014,8.7.01,14.506.12,1.566,1.51,2.344,2.267,3.891,3.786-.048,1.817-.072,2.725-.121,4.541-1.1.982-1.648,1.475-2.74,2.462,1.186,1.169,1.777,1.754,2.952,2.928-.063,2.355-.095,3.532-.159,5.886C101.853,118.09,100.993,118.879,99.284,120.462Zm-1.079-17.686c-.278-.544-.417-.815-.7-1.358l-1.43-.694c-1.731-.023-2.6-.032-4.326-.044l-.363.334c-.012,1.749-.019,2.624-.031,4.373l.355.339c1.716.013,2.575.022,4.291.045.576-.262.864-.392,1.442-.652.3-.534.443-.8.74-1.334C98.194,103.381,98.2,103.179,98.205,102.776Zm-.166,9.251c-.274-.543-.411-.815-.686-1.357-.7-.348-1.056-.521-1.762-.867-1.563-.02-2.345-.028-3.908-.04l-.358.334-.04,5.552.524.508c1.477.011,2.216.019,3.693.038.707-.327,1.062-.49,1.772-.816.29-.534.436-.8.728-1.334C98.017,113.238,98.024,112.834,98.039,112.027Z" transform="translate(-4.731 -6.055)" style="fill:#231f20"/><path d="M99.372,120.692l-.092,0c-5.627-.106-8.369-.129-13.966-.115h-.295l.761-2.952-.025-18.109c-.285-1.057-.431-1.594-.721-2.66l-.078-.288h.3c5.831-.014,8.679.01,14.51.12h.09l.065.063c1.566,1.511,2.344,2.268,3.892,3.788l.071.07-.126,4.739-.073.065c-1.038.927-1.584,1.417-2.56,2.3,1.074,1.058,1.663,1.643,2.78,2.76l.071.069-.165,6.081-.073.066c-1.729,1.571-2.589,2.36-4.3,3.943Zm-11.483-.578c3.989,0,6.668.03,11.307.117,1.642-1.52,2.5-2.308,4.163-3.817l.153-5.689c-1.129-1.128-1.719-1.713-2.881-2.858l-.173-.17.18-.162c1.067-.966,1.615-1.458,2.668-2.4l.114-4.342c-1.477-1.452-2.254-2.208-3.753-3.654-5.667-.106-8.514-.131-14.113-.118.243.893.387,1.426.65,2.4l.008.059.025,18.2-.628,2.435Zm7.661-3.689H95.5c-1.476-.02-2.214-.027-3.691-.038h-.092l-.659-.64L91.1,110l.5-.464h.091c1.563.011,2.345.019,3.909.04l.1.023,1.832.9.744,1.476-.066,2.181-.764,1.4-.069.031c-.71.325-1.064.489-1.772.816Zm-3.648-.5c1.4.011,2.138.018,3.55.037.655-.3,1.008-.465,1.657-.763l.666-1.219.034-1.905-.625-1.238-1.648-.81c-1.5-.019-2.278-.027-3.763-.038l-.22.2-.038,5.355ZM96.053,106H96c-1.716-.023-2.573-.032-4.29-.044h-.091l-.492-.47.033-4.572.5-.462h.09c1.73.012,2.6.022,4.326.045l.1.022,1.5.728.757,1.477-.048,1.173-.778,1.4Zm-4.246-.5c1.64.012,2.5.021,4.15.043l1.326-.6.676-1.217.017-.9-.636-1.238-1.315-.638c-1.666-.023-2.53-.032-4.183-.044l-.225.206-.029,4.175Z" transform="translate(-4.731 -6.055)" style="fill:#58595b"/><path d="M123.805,121.382c-5.721-.321-8.583-.451-14.308-.648.319-1.067.479-1.6.8-2.666q.347-9.078.691-18.156c-.248-1.086-.372-1.629-.622-2.715,5.8.2,8.7.33,14.494.653.6,2.056.9,3.084,1.5,5.141-1.268-.479-1.9-.717-3.176-1.189-2.592-.139-3.888-.2-6.481-.316l-.376.32c-.075,1.614-.112,2.421-.187,4.034l.341.351c1.216.054,1.823.082,3.038.141,1.09-.284,1.635-.425,2.727-.7l-.321,5.711c-1.045-.392-1.568-.587-2.615-.975-1.208-.058-1.811-.086-3.019-.139l-.371.32-.258,5.546.5.528c2.46.109,3.69.169,6.149.3,1.5-.391,2.256-.584,3.764-.967C125.16,118.122,124.706,119.208,123.805,121.382Z" transform="translate(-4.731 -6.055)" style="fill:#231f20"/><path d="M123.954,121.62l-.162-.009c-5.73-.323-8.538-.45-14.3-.649l-.3-.01.085-.284c.316-1.057.476-1.59.791-2.638l.69-18.1-.684-2.975.3.011c5.839.2,8.685.329,14.5.652l.161.01.046.155c.6,2.056.9,3.085,1.5,5.142l.126.438-.426-.162c-1.256-.474-1.892-.711-3.142-1.175-2.538-.137-3.833-.2-6.354-.311l-.232.2-.178,3.835.209.216c1.145.05,1.751.078,2.913.135,1.068-.278,1.614-.419,2.7-.7l.3-.077-.356,6.333-.291-.109c-1.034-.388-1.556-.583-2.581-.962-1.154-.056-1.757-.084-2.892-.134l-.228.2,0,.05-.246,5.3.371.389c2.389.106,3.619.166,6.025.295,1.481-.385,2.234-.579,3.731-.959l.446-.113-.179.423c-.915,2.171-1.369,3.256-2.27,5.43Zm-14.153-1.1c5.517.19,8.327.318,13.854.629.8-1.933,1.251-3.007,2.031-4.858-1.226.311-1.97.5-3.317.854l-.034.009-.036,0c-2.459-.132-3.688-.192-6.148-.3l-.091,0-.635-.664.268-5.743.513-.443.091,0c1.208.053,1.812.081,3.02.14l.068.014c.946.35,1.465.543,2.325.866l.286-5.089c-.9.23-1.439.37-2.424.626l-.034.009-.034,0c-1.215-.059-1.822-.086-3.036-.14l-.091,0-.475-.488.2-4.231.519-.444.09,0c2.594.114,3.891.177,6.484.317l.066.014c1.122.416,1.75.65,2.751,1.028-.5-1.726-.793-2.741-1.323-4.547-5.605-.311-8.45-.44-14.033-.633l.564,2.455v.03l-.7,18.213C110.225,119.1,110.066,119.629,109.8,120.516Z" transform="translate(-4.731 -6.055)" style="fill:#58595b"/><path d="M144.287,122.855c-5.431-.476-8.15-.686-13.588-1.049.355-1.055.534-1.583.892-2.638q.659-9.062,1.318-18.124c-.21-1.094-.316-1.64-.528-2.734,2.823.189,4.235.291,7.057.508-.473,1.314-.708,1.971-1.178,3.285-.5,6.105-.744,9.157-1.241,15.262l.486.543c2.176.167,3.263.255,5.438.44,1.516-.345,2.275-.515,3.8-.85C145.751,119.639,145.261,120.71,144.287,122.855Z" transform="translate(-4.731 -6.055)" style="fill:#231f20"/><path d="M144.429,123.1l-.161-.015c-5.442-.476-8.108-.682-13.585-1.048l-.3-.019.095-.282c.352-1.047.531-1.574.883-2.611l1.314-18.064-.579-3,.3.02c2.824.189,4.235.29,7.058.508l.3.023-.1.283c-.468,1.3-.7,1.96-1.166,3.256l-1.23,15.134.358.4c2.1.162,3.192.25,5.313.43,1.494-.339,2.253-.509,3.763-.842l.449-.1-.193.418c-.987,2.14-1.477,3.212-2.451,5.356Zm-13.419-1.5c5.228.35,7.9.556,13.136,1.015.866-1.907,1.35-2.967,2.192-4.792-1.235.273-1.986.441-3.345.75l-.035.008-.035,0c-2.173-.185-3.261-.273-5.436-.44l-.091-.007-.613-.685.009-.1,1.253-15.32c.435-1.218.669-1.871,1.076-3-2.529-.194-3.928-.3-6.459-.465l.478,2.472,0,.03-1.33,18.182C131.483,120.2,131.305,120.721,131.01,121.6Z" transform="translate(-4.731 -6.055)" style="fill:#58595b"/><path d="M164.253,124.911c-5.418-.642-8.13-.935-13.558-1.464.39-1.044.586-1.566.978-2.609l1.911-18.075c-.175-1.1-.263-1.649-.44-2.748,2.818.275,4.227.419,7.043.723-.516,1.3-.773,1.948-1.286,3.247L157.162,119.2c.187.223.281.334.468.558,2.171.233,3.256.354,5.425.6,1.528-.3,2.292-.444,3.825-.733C165.822,121.741,165.3,122.8,164.253,124.911Z" transform="translate(-4.731 -6.055)" style="fill:#231f20"/><path d="M164.387,125.157l-.161-.019c-5.432-.643-8.092-.931-13.554-1.463l-.3-.029,1.072-2.861,1.905-18.016c-.171-1.079-.259-1.629-.434-2.718l-.047-.292.295.028c2.818.275,4.228.419,7.044.724l.3.032-.11.28c-.512,1.288-.77,1.938-1.275,3.218L157.4,119.13l.345.412c2.1.225,3.184.347,5.3.591,1.5-.292,2.271-.439,3.792-.726l.453-.085-.207.412c-1.057,2.11-1.582,3.165-2.626,5.278Zm-13.374-1.908c5.214.509,7.877.8,13.106,1.416.929-1.88,1.449-2.924,2.35-4.723-1.245.235-2,.381-3.37.647l-.035.007-.036,0c-2.168-.251-3.252-.372-5.422-.605l-.092-.01-.59-.7.011-.1,1.754-15.275c.473-1.2.73-1.848,1.174-2.968-2.522-.272-3.92-.415-6.446-.662.148.914.234,1.459.392,2.456l0,.03,0,.03-1.924,18.131Z" transform="translate(-4.731 -6.055)" style="fill:#58595b"/><path d="M99.24,103.782c-.457-.909-.686-1.364-1.146-2.272l-.7-.341.811,1.607c-.007.4-.011.605-.018,1.009-.3.533-.445.8-.741,1.334-.577.26-.865.39-1.441.652-1.824-.018-2.736-.024-4.56-.03.238.255.356.383.593.639l.716.342c1.714.015,2.571.026,4.285.052.575-.261.863-.391,1.44-.65.3-.534.444-.8.741-1.333Z" transform="translate(-4.731 -6.055)" style="fill:#58595b"/><path d="M71.61,109.8c-.012.933-.019,1.4-.031,2.331.084.537.125.8.209,1.342.452-1.373.68-2.059,1.137-3.43,1.053-3.791,1.587-5.686,2.674-9.473-.163-1.074-.245-1.611-.41-2.685,2.114-.036,3.171-.05,5.285-.07L81,96.818c-2.756.023-4.134.042-6.89.094l.415,2.684C73.337,103.673,72.755,105.713,71.61,109.8Z" transform="translate(-4.731 -6.055)" style="fill:#58595b"/><path d="M96.518,117.2c.708-.326,1.062-.489,1.771-.813.291-.533.437-.8.73-1.333.016-.807.024-1.211.039-2.018-.5-.947-.748-1.42-1.251-2.366l-.689-.34c.369.68.553,1.02.921,1.7-.015.807-.022,1.211-.037,2.018-.292.534-.438.8-.728,1.334-.71.326-1.065.489-1.772.816-1.591-.022-2.386-.031-3.976-.043l.551.49.755.511C94.307,117.167,95.044,117.176,96.518,117.2Z" transform="translate(-4.731 -6.055)" style="fill:#58595b"/><path d="M37.143,118.828c1.121-.085,1.682-.126,2.8-.206.54-.308.81-.462,1.352-.769.241-.556.362-.835.6-1.391-.322-4.43-.484-6.645-.806-11.075-.548-.878-.823-1.316-1.375-2.192l-.728-.28c.392.623.588.935.979,1.559.33,4.429.494,6.644.824,11.074-.242.556-.362.835-.6,1.391l-1.353.772c-1.123.082-1.685.124-2.808.21l-1.761-.6.7.691C35.842,118.335,36.276,118.5,37.143,118.828Z" transform="translate(-4.731 -6.055)" style="fill:#58595b"/><path d="M157.741,120.258l.8.594c2.167.236,3.25.359,5.416.613.885-.171,1.329-.257,2.216-.425l.7-1.408c-1.533.289-2.3.435-3.825.733-2.284-.264-3.426-.392-5.711-.636Z" transform="translate(-4.731 -6.055)" style="fill:#58595b"/><path d="M122.311,116.919c-2.561-.137-3.841-.2-6.4-.312l.482.5.755.54c2.456.112,3.684.174,6.14.31.871-.226,1.307-.339,2.18-.562l.61-1.448C124.567,116.335,123.814,116.528,122.311,116.919Z" transform="translate(-4.731 -6.055)" style="fill:#58595b"/><path d="M137.644,118.4l.809.569c2.172.169,3.257.259,5.428.447.879-.2,1.319-.3,2.2-.493.263-.572.394-.858.658-1.429-1.521.335-2.28.5-3.8.85-2.293-.195-3.44-.288-5.734-.462Z" transform="translate(-4.731 -6.055)" style="fill:#58595b"/><path d="M117.478,107.225c1.214.055,1.82.084,3.033.145.663-.172.994-.257,1.657-.427l.074-1.315c-1.092.279-1.637.42-2.727.7-1.363-.066-2.045-.1-3.408-.157l.677.682Z" transform="translate(-4.731 -6.055)" style="fill:#58595b"/><path d="M59.66,112.506l.235,1.337c.381-1.378.572-2.067.957-3.445,1.219-4.9,1.841-7.343,3.115-12.234,1.575-.053,2.363-.077,3.938-.12l-.325-.98c-1.885.054-2.828.083-4.713.15-1.353,5.231-2.013,7.849-3.3,13.086C59.6,111.183,59.622,111.624,59.66,112.506Z" transform="translate(-4.731 -6.055)" style="fill:#58595b"/><path d="M109.5,120.734l1.281.045c.2-.674.3-1.012.509-1.686q.362-9.078.722-18.156c-.246-1.086-.369-1.629-.617-2.715,5.507.2,8.26.325,13.763.634-.117-.4-.176-.6-.3-1.006-5.8-.323-8.694-.453-14.494-.653.25,1.086.374,1.629.622,2.715q-.345,9.078-.691,18.156C109.976,119.134,109.816,119.667,109.5,120.734Z" transform="translate(-4.731 -6.055)" style="fill:#58595b"/><path d="M130.7,121.806l1.279.087c.226-.668.34-1,.567-1.669q.675-9.061,1.349-18.122c-.208-1.094-.312-1.641-.523-2.734,2.289.156,3.433.239,5.72.415l.347-.965c-2.822-.217-4.234-.319-7.057-.508.212,1.094.318,1.64.528,2.734q-.659,9.061-1.318,18.124C131.233,120.223,131.054,120.751,130.7,121.806Z" transform="translate(-4.731 -6.055)" style="fill:#58595b"/><path d="M85.314,120.346l1.282,0c.176-.681.265-1.022.442-1.7l.006-18.168c-.288-1.077-.433-1.615-.724-2.691,5.774-.005,8.66.023,14.433.141L99.71,96.914c-5.782-.109-8.673-.133-14.455-.119.293,1.075.438,1.613.729,2.69q.012,9.084.025,18.168C85.73,118.73,85.591,119.269,85.314,120.346Z" transform="translate(-4.731 -6.055)" style="fill:#58595b"/><path d="M150.7,123.447l1.276.126c.249-.66.373-.99.623-1.651q.971-9.036,1.94-18.072c-.172-1.1-.259-1.649-.434-2.748,2.284.226,3.426.344,5.708.589.151-.381.227-.572.379-.953-2.816-.3-4.225-.448-7.043-.723.177,1.1.265,1.649.44,2.748l-1.911,18.075C151.281,121.881,151.085,122.4,150.7,123.447Z" transform="translate(-4.731 -6.055)" style="fill:#58595b"/><path d="M10.588,102.055c3.32-.373,4.982-.55,8.306-.882-.183-.379-.275-.569-.459-.947-3.612.363-5.417.557-9.025.968-1.792,2.1-2.679,3.156-4.44,5.269.732,5.608,1.1,8.412,1.829,14.02.462.342.693.513,1.154.856-.722-5.609-1.084-8.414-1.806-14.023C7.908,105.206,8.8,104.154,10.588,102.055Z" transform="translate(-4.731 -6.055)" style="fill:#58595b"/><path d="M32.347,99.96c3.757-.3,5.636-.438,9.395-.687-.452-.366-.679-.549-1.133-.914-3.765.255-5.646.4-9.408.7-1.728,1.9-2.586,2.848-4.287,4.756.561,5.9.841,8.845,1.4,14.742l1.121.893c-.551-5.9-.826-8.846-1.377-14.744C29.762,102.8,30.619,101.854,32.347,99.96Z" transform="translate(-4.731 -6.055)" style="fill:#58595b"/><path d="M66.629,107.674c-.516-1.546-.776-2.319-1.3-3.864-.055.473-.083.71-.139,1.183.051.423.076.635.126,1.059,1.885,5.8,2.808,8.7,4.615,14.51l.749-.019C69.091,115.39,68.281,112.816,66.629,107.674Z" transform="translate(-4.731 -6.055)" style="fill:#58595b"/><path d="M19.092,119.443c-1.611.165-2.416.251-4.027.426-.737-.263-1.107-.393-1.846-.654.168.246.252.37.421.616,1.028.361,1.541.543,2.566.909,1.608-.173,2.413-.257,4.022-.42.823-.358,1.235-.537,2.06-.892.144-.61.216-.915.361-1.525C21.223,118.515,20.512,118.823,19.092,119.443Z" transform="translate(-4.731 -6.055)" style="fill:#58595b"/><path d="M51.813,101.376c-.636-1.046-.955-1.568-1.595-2.612,2.415-.129,3.623-.189,6.04-.3l.086-.993c-2.9.129-4.349.2-7.247.362.644,1.043.964,1.565,1.6,2.609q3.834,10.227,7.469,20.525l.727-.032Q55.413,111.134,51.813,101.376Z" transform="translate(-4.731 -6.055)" style="fill:#58595b"/><path d="M80.656,130.207l-26.963-.689,26.963-.689a.689.689,0,1,1,.035,1.378Z" transform="translate(-4.731 -6.055)" style="fill:#c07429"/><path d="M92.985,128.829l26.962.689-26.962.689a.689.689,0,0,1-.035-1.378Z" transform="translate(-4.731 -6.055)" style="fill:#c07429"/><path d="M88.294,129.518a1.474,1.474,0,1,1-1.473-1.473A1.474,1.474,0,0,1,88.294,129.518Z" transform="translate(-4.731 -6.055)" style="fill:#c07429"/><path d="M165.518,101.832l-.277,2.537-.315-.035.276-2.537-.966-.105.031-.277,2.243.246-.03.276Z" transform="translate(-4.731 -6.055)" style="fill:#231f20"/><path d="M169.3,104.812l.174-1.993-1.211,1.589-.044,0-.848-1.818-.252,1.989-.32-.036.423-2.846.059,0,1.024,2.256,1.453-1.986.063.015-.2,2.871Z" transform="translate(-4.731 -6.055)" style="fill:#231f20"/></g></svg>