<svg id="Layer_1" data-name="Layer 1" xmlns="http://www.w3.org/2000/svg" viewBox="0 0 275.979 96.89"><title>logo-renegade</title><path d="M178.959,47.988c0,.524-.733,2-.246,1.712a19.771,19.771,0,0,0,.974-2.069l.217-1.668c.029.183.127.212.249.183.026-.109.049-.215.072-.32a7.6,7.6,0,0,1,.854-2.339,4.487,4.487,0,0,0,.039-.682c-.406.6-.836,1.362-.362,0,.114-.153.223-.288.332-.416a4.7,4.7,0,0,0-1.846-3.135,8.021,8.021,0,0,0-5.9-1.843c-.143.033-.284.068-.421.106-.667.188-1.28.425-1.854.595a38.436,38.436,0,0,0-8.362,4.268,20.485,20.485,0,0,0-3.7,2.953c-.278.287-.543.588-.8.9l-.015.083c-.051.043-.1.093-.156.144a12.373,12.373,0,0,0-1.634,2.687,2.367,2.367,0,0,0,.886,3.143,3.228,3.228,0,0,0,.822.434l.209.061c.088-.027.182-.074.273-.111l.456-.146.5-.192c.349-.15.713-.323,1.09-.514l.542-.255.511-.23a17.14,17.14,0,0,0,1.6-.774c.412-.24.763-.473,1.148-.708l1.033-.661,2.035-1.291a15.773,15.773,0,0,1,2.1-1.18,17.133,17.133,0,0,1,2.561-.926c.5-.109.033.709-.134,1.216q-.321.834-.659,1.641c-.451,1.079-.925,2.127-1.429,3.152a34.434,34.434,0,0,1-3.686,5.974,32.233,32.233,0,0,1-4.374,5.04l-1.108.992-.422.377-.48.407a7.365,7.365,0,0,0-1.278,1.2,11.864,11.864,0,0,1-2.823.878,3.469,3.469,0,0,1-1.512-.086,3.688,3.688,0,0,1-1.408-.842,7.228,7.228,0,0,1-1.163-1.324,7.965,7.965,0,0,1-.792-1.7c-.208-.643-.4-1.325-.569-2.033-.04-.174-.08-.35-.12-.526l-.089-.425c-.058-.286-.108-.583-.155-.887-.117-.077.039.05.2-.082s.321-.531.3-1.551c0,0-.229-1.134-.348-2.3s-.158-2.336-.158-2.336l.25-.314a12.545,12.545,0,0,1,.664-5.112c.569-2.015,1.325-3.953,1.484-5.124l.367.467a35.278,35.278,0,0,1,3.043-6.738c1.263-2.223,2.631-4.258,3.524-5.854-.233,1.176,1.486-1.291,2.941-2.737,0,0-.245.475-.467.96s-.441.963-.441.963a6.017,6.017,0,0,1,1.771-1.67,9.513,9.513,0,0,0,1.909-1.581l.333-.4c0-.183-.691.309-1.292.72,1.845-1.577,1.817-1.336,1.292-.72,0,.022.029.015,0,.06-.125.135-.225.227-.338.342-.585.694-1.277,1.572-1.072,1.554a12.8,12.8,0,0,0,2.226-2.095,7.651,7.651,0,0,1,.9-.883c.089-.073.185-.145.286-.218s.2-.144.363-.245a9.88,9.88,0,0,1,.985-.56l-.25-.189-.261-.18a15.25,15.25,0,0,1,2.988-1.245,3.818,3.818,0,0,1,2.363.046,3.38,3.38,0,0,1,1.531,1.309,8.582,8.582,0,0,1,1.03,2.693,4.655,4.655,0,0,0,.325.394,1.193,1.193,0,0,0,.154.147,1.087,1.087,0,0,0,.118.045.649.649,0,0,0,.374-.093.565.565,0,0,0,.216-.236.368.368,0,0,1,.113-.157c.011,0,.032,0,.007,0h.005l.088.045.154.095c.085.064.261.129.3.164a.508.508,0,0,0,.139.048,2.252,2.252,0,0,0,.3-.044,2.486,2.486,0,0,0,.922-.534c-.036-.232-.623.089-1.077.105a3.434,3.434,0,0,0,1.713-1.749,2.172,2.172,0,0,0,.136-.519,3.1,3.1,0,0,0,.016-.6,6.384,6.384,0,0,0-.3-1.584,11.2,11.2,0,0,0-.7-1.719,7.865,7.865,0,0,0-.891-1.462,5.08,5.08,0,0,0-1.026-1.046,4.482,4.482,0,0,0-1.173-.677c.954.175.866.019.52-.306a6.135,6.135,0,0,0-.626-.439c-.2-.121-.338-.235-.255-.3a1.183,1.183,0,0,0-.192-.028l-.518-.036a8.939,8.939,0,0,0-1.629.114,8.156,8.156,0,0,0-.888.176c-.279.059-.556.138-.8.209-.476.129-.785.241-.785.241A11.505,11.505,0,0,1,174,15.207a7.466,7.466,0,0,1,3.858.485c-.378-.57.174-.674.535-.819a.494.494,0,0,0,.114-.062,6.921,6.921,0,0,0-2.011-.9,5.19,5.19,0,0,1-1.115-.01,6.6,6.6,0,0,0-3.633.044.111.111,0,0,1,.013-.027c-.025.005-.048.007-.072.013A23.421,23.421,0,0,0,167.4,15.3c.094.088.209.159.19.238-.312.055-.671.1-1.058.155a27.977,27.977,0,0,0-8.54,6.514,59.918,59.918,0,0,0-9.114,13.049,58.564,58.564,0,0,0-3.7,8.746,58.678,58.678,0,0,0-1.411,6.723,27.778,27.778,0,0,0,.33,10.568c-.32-.2-.581-1.4-.712-2.783-.117-1.315-.147-2.776-.215-3.7-.05,1.154-.052,2.306,0,3.462a25.282,25.282,0,0,0,3.893,12.778,5.785,5.785,0,0,0,3.234,2.484,11.577,11.577,0,0,0,3.437.538,10.72,10.72,0,0,0,4.029-.791,34.086,34.086,0,0,0,12.883-9,39.553,39.553,0,0,0,5.124-7.347c.349-.951.707-1.9,1.062-2.818A55.443,55.443,0,0,0,178.959,47.988Zm.139-8.552s.162.123.384.328a4.837,4.837,0,0,1,.722.833,4.256,4.256,0,0,1,.5.982,4,4,0,0,1,.138.485,3.651,3.651,0,0,0-.542-.512,3.542,3.542,0,0,0-.595-.373,5.6,5.6,0,0,0-.905-1.551C178.513,39.239,178.5,39.082,179.1,39.436Zm-1.6-13.555.016.025.008.013,0,.006,0,0-.138.008A.428.428,0,0,1,177.5,25.881ZM164.787,24.55c.676-.661,1.388-1.291,1.388-1.291a20.478,20.478,0,0,0-2.253,2.328l-.457.31S164.108,25.209,164.787,24.55Zm-5.042-3.184c.619-.693,1.281-1.346,1.789-1.825l.625-.567c.151-.137.242-.209.242-.209l.453-.238a30.783,30.783,0,0,0-2.9,2.69c-.678.723-1.319,1.468-1.793,2.052l-.781.971S158.5,22.738,159.745,21.366ZM145.086,63c-.336-2.07-.742-2.845-.452-4.414,0,0,.137.944.346,1.863s.465,1.813.465,1.813Zm2.883-3.034a5.678,5.678,0,0,0-.163-.825,4.005,4.005,0,0,0-.5-1.175c.175.347.32-.025.459-.17.07-.072.139-.089.208.062A5.8,5.8,0,0,1,148.219,59C147.949,60.176,148.021,60.3,147.969,59.965Zm4.274,7.471a3.909,3.909,0,0,1-1.672-1.831,13.556,13.556,0,0,0,1.246,1.117,6.621,6.621,0,0,0,1.961,1.117A6.624,6.624,0,0,1,152.243,67.436Z" transform="translate(-9.413 -6.987)" style="fill:#231f20"/><path d="M191.03,50.656l-.073.02.23.278a.538.538,0,0,0,.107-.087A.347.347,0,0,0,191.03,50.656Z" transform="translate(-9.413 -6.987)" style="fill:#231f20"/><path d="M190.862,50.5a.445.445,0,0,0-.128-.173l0,0a.529.529,0,0,0,.016.092l.1.117Z" transform="translate(-9.413 -6.987)" style="fill:#231f20"/><polygon points="180.571 45.557 180.409 44.447 179.682 43.777 180.571 45.557" style="fill:#231f20"/><path d="M191.317,52.812l-.568-.524-.57.646.161.32,1,0,.063-.143A.238.238,0,0,0,191.317,52.812Z" transform="translate(-9.413 -6.987)" style="fill:#231f20"/><polygon points="180.648 46.081 180.766 45.947 180.571 45.557 180.648 46.081" style="fill:#231f20"/><path d="M205.809,57.268c.4-2.645.858-5.547,1.455-9.133.215-1.29.446-2.673.69-4.107l-.16-1.558c.093.181.249.141.414.071.3-1.768.621-3.591.95-5.407.115-.638.227-1.277.34-1.917.15-.856.305-1.724.466-2.593a10.059,10.059,0,0,1,.133-1.769c.186-1.453.426-2.944.754-4.419q.469-2.226.954-4.513.5-2.266,1.012-4.577l.475-2.031.117-.5a4.186,4.186,0,0,0,.07-.442,2.459,2.459,0,0,0-.064-.884,1.969,1.969,0,0,0-1.172-1.273,6.266,6.266,0,0,0-1.717-.413,4.9,4.9,0,0,0-3.442.865,8.814,8.814,0,0,0-1.454,1.448c-.471.566-.919,1.188-1.393,1.836-.957,1.3-1.9,2.542-2.852,3.794-1.433,2.169-3.124,4.966-2.82,5.771a36.745,36.745,0,0,0-4.16,6.228c.123.211-.287-.61-1.078.557l-.518,1.506-.5,1.508-.3.089c-.053,1.534-2.673,4.824-2.843,6.494l-.361-.418c-1.088,2.818-3.168,6.478-3.5,8.944-.234-.876-.863,1.04-1.366,2.311l-.079-1.516c-.463,1.676-1.055,1.279-1.539,3l-.051.36c.1.127.381-.382.66-.8-.659,1.508-.729,1.358-.66.8-.012-.015-.032,0-.037-.04.028-.124.058-.212.088-.32.1-.624.251-1.391.09-1.337-1.084,1.731-.342,2.314-1.45,3.882l.615.058c-1.588,2.21-1.456,2.72-2.905,5.5.14,1.014.751,1.034.538,2.528-.361.32-.713-.022-1.095,1.973.175.172.449-.489.722-.982l-.324,1.472-.165.765c-.025.121-.062.275-.078.371-.006.078-.03.174-.028.235a2.14,2.14,0,0,0,.392,1.448,3.023,3.023,0,0,0,.557.576,1.745,1.745,0,0,0,.506.3l.115.035a.128.128,0,0,1,.028.01h.006l0,0h0l-.082.014h.006l.16-.025c-.081.019-.055.024-.041.022a.117.117,0,0,0,.049,0,.545.545,0,0,0,.165-.058.416.416,0,0,0-.027.313.243.243,0,0,0,.212.129c.216.047.592-.17.682-.013a2.951,2.951,0,0,0,.2-.359,7.513,7.513,0,0,0,.4-1.063c.133-.431.251-.9.356-1.292l.177-.651c-.037.3-.125.722-.21,1.151s-.193.895-.329,1.338c-.066.219-.146.447-.224.64a3.756,3.756,0,0,1-.263.536,2.617,2.617,0,0,1-.723.805.536.536,0,0,1,.339.4,1.7,1.7,0,0,1-.043.535.773.773,0,0,0-.008.124A3.188,3.188,0,0,0,182,72.753a.086.086,0,0,1,0-.022,6.4,6.4,0,0,1,.338-.708,4.64,4.64,0,0,0,1.2-2.348c.008.005.011.018.018.024.032-.1.066-.2.1-.3.076-.234.152-.469.232-.7.249-.72.491-1.442.733-2.163-.124,0-.246.02-.3-.034.137-.192.322-.4.519-.618l.008-.023c.369-1.1.738-2.2,1.121-3.3a1.72,1.72,0,0,1,1.2-1.1c1.1-.359,2.189-.73,3.282-1.1,1.3-.442,2.607-.885,3.919-1.308.77-.248,1.547-.457,2.446-.7l.368-.1c-.018.142-.035.281-.053.418-.11.881-.208,1.669-.282,2.46l-.158,1.691c-.182,1.94-.36,3.932-.51,5.919,0,1.536-.085,3.283-.1,5.064-.01.691-.011,1.385,0,2.072a12.5,12.5,0,0,0,.138,1.982,3.226,3.226,0,0,0,.831,1.511,2.919,2.919,0,0,0,1.3.772c-.126.093-.384.073-.7-.072a2.838,2.838,0,0,1-.967-.82,3.651,3.651,0,0,1-.633-1.317c-.109-.411-.136-.819-.2-1.135,0,.18,0,.36.008.54a3.852,3.852,0,0,0,3.553,3.7c.074.005.15.007.226.007a3.669,3.669,0,0,0,3.7-2.933c.109-.452.2-.906.274-1.36a9.161,9.161,0,0,1-.456-.835,9.858,9.858,0,0,1-.922-3.45,9.21,9.21,0,0,1,.3-3.17l.047-.171.036-.109.076-.216c.051-.143.1-.286.162-.425a8.273,8.273,0,0,1,.385-.813l-.181-.157c.656-1.743,1.353-3.622,2.066-5.509.184-1.291.375-2.577.564-3.842Zm3.121-20.175-.374,2.416L208,38.378C208.416,37.314,208.92,36.079,208.93,37.093ZM182.872,56.275a20.848,20.848,0,0,0,.469-2.113l.211-.307ZM198.163,28.2c-.2.636.169.924-.793,1.662A4.973,4.973,0,0,1,198.163,28.2Zm-2.288,4.506c1.385-.625.087-.322.368.97C196.208,33.148,195.216,34.063,195.875,32.706ZM194.4,40.128l.5.156c-.275.268-.037.566-.526.594Zm-4.468,19.545-1.742.742a9.986,9.986,0,0,0-1.893.9,1.938,1.938,0,0,0-.458.5,1.61,1.61,0,0,0-.123.229s-.064.076-.12.158l-.108.166s.028-.1.094-.265a1.974,1.974,0,0,1,.4-.623,5.621,5.621,0,0,1,1.994-1.038l1.9-.766.977-.38Zm6.91-7.578c.165-.236.53-.221.627-.526l.165.037Zm2.644,27.665a4.074,4.074,0,0,1-1.127-.333,1.044,1.044,0,0,1-.6-.822,2.326,2.326,0,0,0,.75.482,1.768,1.768,0,0,0,.542.131,1.222,1.222,0,0,0,.235,0,1.926,1.926,0,0,0,.091.27l.084.185c0,.025.055.048,0,.06Zm2.095-46.39a21.275,21.275,0,0,1-.838,8.613c-.025.6.015,1.361.676,1.6a2.374,2.374,0,0,0-.4,1.654c.207.065-.538-.184-.658.127l.276.417a4.1,4.1,0,0,1,.273.432l-.221.034c.449.408.157,1.166.1,1.806a1.539,1.539,0,0,0,.093.839l-.446-.338a3.009,3.009,0,0,1-.407,1.642c-.037.063-.074.125-.116.185a1.37,1.37,0,0,1-.158.12,3.088,3.088,0,0,0-.293.245,1.49,1.49,0,0,0-.4.6c-.068-.287-.223-.309-.406-.239a4.836,4.836,0,0,1-.634.322s.032-.182.053-.36.006-.379.006-.379c-.165.22-.385.129-.563.062a.532.532,0,0,0-.59.01l-.071.109c.032.136.242.153.449.2-.556.1-.557-.024-.449-.2,0-.016-.016-.027-.013-.047a.5.5,0,0,1,.084-.062c.128-.18.274-.379.178-.486a.451.451,0,0,0-.566.246c-.107.157-.239.3-.58.149l.227.556a4.39,4.39,0,0,1-.413-.194,1.121,1.121,0,0,1-.674.789l.182.119a9.249,9.249,0,0,0-.673.693l-.763-.921a.63.63,0,0,0-.119.078c.032.217.211.242.367.323a5.421,5.421,0,0,1-2.651,1.131h-.1l-.466,1.066-.53-1.062-5.367.024,3.159-3.4-.026-.024.053,0,.245-.265.09-.1a.5.5,0,0,0,.043.162l.077.155.2-.02c.19-.018.423-.124.58-.011l.209-.961c.08.3-.041.831.039,1.381l.183,1.242.927.855.322-.366a1.663,1.663,0,0,0,.138-.178,2.611,2.611,0,0,1-.286-1.058l-.179.049c.027-.054.054-.107.081-.162a.279.279,0,0,1-.079-.152l-.134-.162a.368.368,0,0,1,.122.068c.291-.049.328-.248.419-.47.009.006.014.014.023.02q.171-.342.343-.682a2.014,2.014,0,0,1-.271-.122,2.316,2.316,0,0,1,.343-.021c.1-.2.2-.4.3-.6l.055-.127.023-.027c.16-.311.323-.616.484-.925.117-.464.106-.825.479-.911q.726-1.371,1.473-2.719c.151-.936.97-1.871.9-2.851.435.348-.076.87-.008,1.266.663-1.159,1.333-2.311,2.022-3.446-.565-.225-1.318-.294-1.055-1.18a1.109,1.109,0,0,1,.581.453c.35-.03.323-.439.25-.817l.59.09c.12-.225-.159-.39-.267-.528.894.663.755-.737,1.153-.8l-.591-.091a1.755,1.755,0,0,0,1.238-.5l-.6-.3c.276-.119.756-.45.321-.721l.916.225c-.473-.6.251-.244-.077-.944l-.613.065c.516-.284,1.25-.289,1.524-.69,0-.024.006-.044.009-.066l-.065-.212a.557.557,0,0,0,.085.074c.027-.421-.183-.586.069-1.067l-.044-.056c.341-.08.737-.17.765.125l-.278.485-.425-.532a6.714,6.714,0,0,0,.461.824c.145-.215.287-.432.433-.647l-.231,1.015A.831.831,0,0,1,201.581,33.37ZM202.612,44.8c-.114-.131-.228-.263-.164-.451C202.6,44.524,203.061,44.619,202.612,44.8Zm.129.76c.874-.131-.077-.093.783.291C203.24,45.7,202.827,45.932,202.741,45.559Z" transform="translate(-9.413 -6.987)" style="fill:#231f20"/><path d="M208.055,43.3l0,.127.04-.236C208.083,43.224,208.07,43.253,208.055,43.3Z" transform="translate(-9.413 -6.987)" style="fill:#231f20"/><polygon points="208.922 21.701 208.926 21.704 208.923 21.701 208.92 21.699 208.922 21.701" style="fill:#231f20"/><path d="M218.339,28.691l0,0C218.416,28.761,218.379,28.727,218.339,28.691Z" transform="translate(-9.413 -6.987)" style="fill:#231f20"/><path d="M247.778,32.4c.018-.041.036-.082.055-.134,0,0-.023-.056-.059-.137C247.778,32.223,247.778,32.313,247.778,32.4Z" transform="translate(-9.413 -6.987)" style="fill:#231f20"/><path d="M252.778,22.363a16.925,16.925,0,0,0-3.341-1.865,19.684,19.684,0,0,0-7.623-1.381,38.391,38.391,0,0,0-4,.278q-2.014.224-4,.6a60.629,60.629,0,0,0-7.763,2.016c-2.038.836-4.447,2.217-4.5,3.027A13.827,13.827,0,0,0,219,26.2l-.331.189c-.085.052-.171.108-.255.169a4.622,4.622,0,0,0-.5.412,4.432,4.432,0,0,0-.833,1.049c.089.062-.026-.021-.176-.109a.339.339,0,0,0-.521.165.681.681,0,0,0,.076.189.8.8,0,0,0,.265.264,2,2,0,0,0,.477.105s-.094.2-.089.2a.954.954,0,0,1,.352-.037,1.29,1.29,0,0,1,.214.061c.089.035.194.054.295.082a4.351,4.351,0,0,0,.668.041l-.295-.293,0,0c.029.028.056.055,0,0h0l0,0c-.041-.037-.08-.072,0,0-.026-.027-.042-.042,0,0l.329.3.063,0c1.106.027,2.633.062,4.138.03a2.226,2.226,0,0,0,.145.813.6.6,0,0,0,.063.119l.032.054c.008.021-.022.085-.032.125l-.159.528a6.461,6.461,0,0,0-.313,1.682l-.259-.042-.263-.032c-.2.873-.5,1.892-.83,2.963-.289.921-.586,1.871-.878,2.8a16.444,16.444,0,0,0-.845,3.961c-.331-.775-.722.961-1.1,2.106l-.231-1.352c-.282,1.5-.9,1.159-1.23,2.688l-.021.32c.108.113.344-.34.586-.71-.527,1.345-.607,1.21-.586.71-.013-.014-.031,0-.04-.036.018-.11.04-.189.061-.284.047-.554.125-1.237-.028-1.188-.911,1.538-.137,2.058-1.129,3.436l.611.061c-1.445,1.928-1.281,2.385-2.648,4.766.154.9.767.955.562,2.263-.356.261-.7-.063-1.09,1.668.173.165.448-.4.72-.816a105.718,105.718,0,0,1-3.156,10.73c.209-1.877-.769.539-1.039.24l-.368,1.731c-.173.866-.345,1.733-.345,1.733.02-1.011.526-3.327.666-5.219-.486.39-.741-.194-1.035-.362-.137.451-.268.894-.4,1.331a1.554,1.554,0,0,1-.01.722,6.155,6.155,0,0,0-.786,2.179c-.007,0-.012-.016-.019-.021-.147.542-.291,1.08-.427,1.609a6.264,6.264,0,0,0-.177,1.2c.116-.026.224-.065.287-.031-.078.175-.189.381-.289.614a4.854,4.854,0,0,0,1.47,3.326,5.634,5.634,0,0,0,5.411,1.29A14.615,14.615,0,0,0,217.7,74.9c2.585-1.726,5.018-3.411,7.326-5.072,2.55-2.23,6.341-4.784,8.367-7.159.108.621-2.069,2.138-2.859,3.054,4.13-3.194,7.838-6.345,11.273-9.574A65.195,65.195,0,0,0,252.8,43.3a36.224,36.224,0,0,0,2.269-4.23,10.305,10.305,0,0,1,1.014-2.648c.027-.083.049-.166.074-.249,0-.057,0-.113,0-.171,0-.312-.026-.623-.043-.855l-.028-.383c.091.17.256.139.43.086a18.232,18.232,0,0,0,.46-4.7,11.768,11.768,0,0,0-.763-3.907c-.292-.453-.575-.866-.8-1.241A10.349,10.349,0,0,0,252.778,22.363Zm-34.623,6.372h0c-.015,0-.027,0-.032-.013s-.006-.005-.006-.012l-.015-.031,0-.006a.158.158,0,0,0-.06-.08l-.084-.046-.018-.009a2.046,2.046,0,0,0-.192-.088l-.038-.015-.009,0,.009,0,.015.006.053.021-.017-.007.02.008c.021.009.046.019.073.033s.056.026.086.042l.011,0,.007,0,.011,0c.023.014.049.024.073.041l.012.007a.2.2,0,0,1,.048.073h0l0,0a.156.156,0,0,1,.021.043c0,.012.013.02.032.013a.189.189,0,0,0,.036-.009Zm.164-.042.012,0h0l-.009,0-.075.02h0l.022-.006Zm1.626-1.083a.658.658,0,0,1-.271.223.613.613,0,0,1-.1.04.377.377,0,0,1-.072.008,1.6,1.6,0,0,1-.2,0,1.736,1.736,0,0,1,.084-.174l.051-.084.129-.118a3.613,3.613,0,0,1,.729-.483A4.361,4.361,0,0,0,219.945,27.61Zm-8.351,48.447a4.935,4.935,0,0,1-1.4-.225,4.8,4.8,0,0,1-1.3-.639,4.169,4.169,0,0,1-.518-.427s-.125-.273-.12-.276a4.029,4.029,0,0,0,.5.49,4.662,4.662,0,0,0,1.326.757,4.887,4.887,0,0,0,2.148.289A4.888,4.888,0,0,1,211.594,76.057Zm2-7.249a1.505,1.505,0,0,0-.095.194,4.631,4.631,0,0,1,.046-.583c.031-.31.061-.621.061-.621.158.094-.217.933.093.8Zm14.953-39.552a3.615,3.615,0,0,1,.208-.632,2.957,2.957,0,0,1,.542-.8l.3.1.3.111a1.771,1.771,0,0,0-.828.783,2.042,2.042,0,0,1-.59.735Zm-4.289,13.758-.5,2.707-.137.148Zm-6.29,2.363.182-.276-.487,2.166A13.876,13.876,0,0,0,217.963,45.377Zm11.353,16.476c.251-.55-.826-.242.263-1.193C230.805,60.812,229.828,60.373,229.316,61.853Zm2.237,1.242,1.7-1.822.652.118C232.777,62.191,232.588,62.785,231.553,63.1Zm.237-4.38c.146-.2.186-.316.277-.446a1.55,1.55,0,0,1,.4-.388,3.1,3.1,0,0,0-.09.5.307.307,0,0,1-.14.185A2.489,2.489,0,0,1,231.79,58.715Zm15.466-23.36s.142-.28.254-.573.2-.593.2-.593.14.179.268.372.247.4.247.4C247.749,35.479,247.179,35.873,247.256,35.355Zm.525-2.7a5.949,5.949,0,0,1-.728,2.585c-.365.672-.738,1.329-1.115,1.978a2.837,2.837,0,0,1-.267.852,44.636,44.636,0,0,1-4.475,8.171,33.174,33.174,0,0,1-6.6,7.088c-.912.955-2.077,2.147-1.847,2.848a8.184,8.184,0,0,0-1.465.911l-.989.78-1.237,1c.009.257.011-.694-.749-.233,0,0-.373.474-.8.976l-.895,1.018-.122-.171a6.318,6.318,0,0,1-2.14,1.85,10.442,10.442,0,0,0-2.383,1.8l.445-.868a34.9,34.9,0,0,1-3.258,2.248,28.211,28.211,0,0,0-3.521,2.605c1.21-1.341-.328-.227-1.267.33l1.845-1.809c-.679.518-.751.424-.791.307-.022-.057-.04-.118-.134-.105a.423.423,0,0,0-.087.026c-.031.024,0-.032.007-.05l.027-.077a1.031,1.031,0,0,0,.056-.277.225.225,0,0,0-.072-.04,7.222,7.222,0,0,0-.718,1.257c.42-1.151.589-1.3.718-1.257a.807.807,0,0,1,.076-.084.527.527,0,0,1,0,.124,1.016,1.016,0,0,0,.082.065.2.2,0,0,0,.045.024c.014-.006,0,.023.039-.012l.1-.087a3.532,3.532,0,0,0,.533-.538c-.258.128.011-.324,0-.417a.178.178,0,0,0-.083-.2c-.094-.073-.157-.206.4-1.18l-.983,1.179c.838-1.463,1.144-2.06,1.421-2.663s.52-1.188,1.182-2.382c-.492.084-1.413.96-1.461.291.458-.575,1.019-.894,1.148-1.93-.285.146-.558.7-.834,1.173.024-.138.049-.277.074-.419.037-.159.075-.32.114-.482l.251-1.029c.18-.713.385-1.481.621-2.278a34.536,34.536,0,0,1,1.759-4.782c-.112.812.1.647.36.361s.568-.712.708-.589l.109-.418c.08-.29.12-.491.182-.755l.23-1.005a9.4,9.4,0,0,1-.139,1.352l-.028.211-.048.275-.087.555A7.976,7.976,0,0,0,220.9,51.8c.433-.284.726-.037,1.025.04l.051.012.287-.814a1.092,1.092,0,0,1-.009-.349,1.2,1.2,0,0,0,.216-.232q.445-1.256.9-2.521a.614.614,0,0,1-.216-.056,2.358,2.358,0,0,1,.306-.2q2.212-6.21,4.526-12.586c.1-.461.226-.943.375-1.437.164-.527.333-1.07.5-1.6s.313-1.058.444-1.623a6.285,6.285,0,0,1,.4-1.408.991.991,0,0,1-.029.623c-.054.261-.121.571-.2.874a5.179,5.179,0,0,0-.21,1.063c.192-.528.383-1.053.576-1.581a1.7,1.7,0,0,1,1.052-1.048,18.829,18.829,0,0,1,7.448-1.877q.456,0,.919.036a25.1,25.1,0,0,1,6,1.171,3.9,3.9,0,0,1,2.516,3.6h0c.019.028.038.052.057.081a5.608,5.608,0,0,1,.4.7A.49.49,0,0,0,247.781,32.659Zm8.963-2.506s.027.522.02,1.044-.036,1.044-.036,1.044-.169-.228-.339-.455-.354-.438-.354-.438C256.308,30.452,256.523,29.3,256.744,30.153Z" transform="translate(-9.413 -6.987)" style="fill:#231f20"/><path d="M256.3,35.7c.035-.124.064-.248.1-.372-.028.053-.054.1-.084.161C256.31,35.49,256.306,35.575,256.3,35.7Z" transform="translate(-9.413 -6.987)" style="fill:#231f20"/><path d="M283.922,31.3c-.026.027-.074.066-.117.1a2.79,2.79,0,0,0,.425-.291c-.076.041-.148.082-.242.127Z" transform="translate(-9.413 -6.987)" style="fill:#231f20"/><path d="M270.1,67.256l-.03-.01c-.032,0-.022.026-.02.044l.03-.019Z" transform="translate(-9.413 -6.987)" style="fill:#231f20"/><path d="M269.518,67.408l-.066,0h.033Z" transform="translate(-9.413 -6.987)" style="fill:#231f20"/><path d="M269.983,67.306a1.876,1.876,0,0,0-.632.073l-.087.022a1.236,1.236,0,0,0,.124.007c.056,0,.1,0,.148,0s.1-.005.152-.011c.033,0,.066-.006.1-.012l.031-.007a.783.783,0,0,0,.15-.043.325.325,0,0,0,.056-.028A.122.122,0,0,1,269.983,67.306Z" transform="translate(-9.413 -6.987)" style="fill:#231f20"/><path d="M269.752,67.39l.013,0c-.012,0-.03,0-.044.006C269.731,67.391,269.742,67.392,269.752,67.39Z" transform="translate(-9.413 -6.987)" style="fill:#231f20"/><path d="M269.654,67.4l.067-.006-.033,0Z" transform="translate(-9.413 -6.987)" style="fill:#231f20"/><polygon points="260.408 60.389 260.405 60.39 260.404 60.39 260.408 60.389" style="fill:#231f20"/><path d="M269.793,67.382h-.006l-.022,0Z" transform="translate(-9.413 -6.987)" style="fill:#231f20"/><path d="M284.4,25.316c-.249-.09-.5-.185-.747-.28a13.708,13.708,0,0,0-2.445-.763c-.54-.1-1.078-.159-1.614-.2-.684.051-1.325.107-1.892.121a35.019,35.019,0,0,0-4.751.713c-.8.167-1.612.345-2.41.53a8.661,8.661,0,0,0-2.17.822,7.067,7.067,0,0,0-3.03,3.3q-1.109,2.328-2.231,4.685c-3.062,6.228-5.988,12.579-8.529,18.841-.9,2.663-1.794,6.054-1.251,6.8a52.982,52.982,0,0,0-2.341,7.837c.173.18-.429-.54-.912.921l-.269,3.453-.272.184a10.574,10.574,0,0,1-.652,3.749,13.29,13.29,0,0,0-.728,3.866l-.448-.332c-.11.739-.23,1.548-.355,2.385a4.439,4.439,0,0,0-.033,1.363,1.426,1.426,0,0,0,.746.962,1.106,1.106,0,0,0,1.046-.036c-.247.309-.145.442.152.461a1.939,1.939,0,0,0,.985-.347,3.106,3.106,0,0,1-.251.5,3.531,3.531,0,0,1-.371.491,2.135,2.135,0,0,1,1.018-.291,1.109,1.109,0,0,0,.439-.117,1.518,1.518,0,0,0,.264-.169c.045-.034.091-.073.139-.117l.254-.231.257-.307c-.008-.082-.149-.04-.351.054l-.338.171a1.354,1.354,0,0,1-.23.083l.344-.237.359-.241a1.7,1.7,0,0,1,.387-.207c.129-.03.024.135-.171.377,0,.02.026.018.009.055-.1.1-.176.168-.266.252a4.4,4.4,0,0,0-.485.646c-.116.18-.193.323-.13.356a2.918,2.918,0,0,0,.474-.264c.066-.044.126-.09.183-.136.079-.063.153-.126.222-.188a7.74,7.74,0,0,0,.685-.723,4.563,4.563,0,0,1,1.769-1.35l-.5-.364c2.707-1.194,2.878-1.724,5.845-3.413.507-.961-.011-1.3,1.059-2.525.5-.1.6.393,2.112-1.21-.051-.246-.675.212-1.2.514,1.5-1.489,3.144-3.224,4.842-4.957l.641-.65c.125-.125.178-.181.243-.253l.193-.228a8.9,8.9,0,0,0,.748-1.1c.119-.2.234-.413.347-.627l.166-.326.01-.02.006-.011,0,0-.031.071v0l.023-.05.046-.1.017-.038c-.336.094-.67.2-.932.3-.347.125-.571.221-.571.221a6.365,6.365,0,0,1,.988-.464l.321-.118c.1-.036.208-.073.351-.115a3.717,3.717,0,0,1,.526-.143,1.613,1.613,0,0,1,.57-.015c.118.017.29.255.283.669a.5.5,0,0,1,.522-.089,1.608,1.608,0,0,1,.424.343.666.666,0,0,0,.1.076,2.084,2.084,0,0,0-.146-1.685.243.243,0,0,1-.028-.01,3.36,3.36,0,0,0-.693-.416,1.581,1.581,0,0,0-1.2-.416,6.746,6.746,0,0,0-1.535.3.1.1,0,0,1,.006-.025,13.511,13.511,0,0,0-2.967,1.139c-.124.066-.245.139-.368.208.059.1.132.184.113.27a4.96,4.96,0,0,1-.765.105c-.866.522-1.7,1.087-2.517,1.64-.44.3-.879.6-1.322.886q-2.05,1.346-4.092,2.7c.332-1.706.761-3.5,1.321-5.534a73.3,73.3,0,0,1,4.53-12.561c.065-.163.128-.325.2-.493a4.09,4.09,0,0,1,.356-.729,2.177,2.177,0,0,1,.6-.584c.494-.269,1.039-.513,1.555-.763l3.2-1.5,1.587-.756,1.55-.7c1.007-.462,1.947-.927,2.769-1.4-.156.656-3.236,1.656-4.543,2.481.176-.074.35-.149.526-.222,1.467-.609,2.979-1.2,4.443-1.761.971-.376,1.944-.752,2.912-1.138a3.957,3.957,0,0,0,2.788-3.139,3.093,3.093,0,0,0-4.036-3.89c-1.958.371-3.9.89-5.783,1.391-.7.188-1.4.375-2.1.555-.248.063-.5.129-.757.2l.509-1.018c.992-1.985,2.017-4.038,3.108-6.008a2.436,2.436,0,0,1,1.267-1.036c1.587-.49,3.263-.858,4.883-1.213l.7-.153c.71-.158,1.425-.3,2.141-.434.989-.19,2.012-.386,3.011-.634.146-.037.28-.085.413-.132.059-.041.121-.075.177-.12a2.789,2.789,0,0,0,.648-.736,2.028,2.028,0,0,0,.191-.4c.008.188.134.253.3.281a.844.844,0,0,0,.087,0,2.681,2.681,0,0,0,.5-1.8,6.646,6.646,0,0,1,.171-1.543l.06-.327A1.43,1.43,0,0,0,284.4,25.316ZM251.605,83.1c-.159.14-.316.282-.456.429-.07.073-.137.147-.2.223a1.139,1.139,0,0,0-.083.111l-.011.067-.173.032.11-.136.022-.029.077-.072.174-.162.378-.352,1.031-.959A7.056,7.056,0,0,1,251.605,83.1Zm1.056-14.859c1.184-1.1.009-.365.6.9C253.1,68.6,252.353,69.873,252.661,68.244Zm.712-3.455a6.2,6.2,0,0,1,.318-1.994C253.671,63.523,254.11,63.7,253.373,64.789Zm6.9,5.812.32-.119-5.47,3.974-.181.068-.09.033-.045.016c-.016.007-.034.016-.022-.017l.1-.533-.084.515c-.011.032.007.022.024.014l.047-.018.094-.039.189-.08Zm13.954-24.235.687.274c-1.654.534-2.147,1.116-3.483,1.2Zm10.925-19.294-.07.409L285,27.29a2.563,2.563,0,0,0-.189-.393.657.657,0,0,0-.364-.319.518.518,0,0,0,0-.383.971.971,0,0,0-.317-.377c-.307-.241-.347-.379.194-.285a1.5,1.5,0,0,1,.325.154,1.157,1.157,0,0,1,.473.586A1.554,1.554,0,0,1,285.153,27.072Z" transform="translate(-9.413 -6.987)" style="fill:#231f20"/><polygon points="260.559 60.345 260.556 60.346 260.553 60.347 260.559 60.345" style="fill:#231f20"/><path d="M135.9,64.831a8.328,8.328,0,0,0,.947-1.473c.142-.337.276-.685.4-1.048a6.276,6.276,0,0,0,.444-2.033,1.544,1.544,0,0,0-1.1-1.529,3.683,3.683,0,0,0-2.106.168,8.257,8.257,0,0,0-1.954.911,10.663,10.663,0,0,0-1.738,1.416q-.811.789-1.578,1.6a7.59,7.59,0,0,1,1.813-2.088,15.074,15.074,0,0,1,2.433-1.722,10.321,10.321,0,0,0-2.693,1.682c-2.612,2.216-5.259,4.478-7.873,6.731.031-.255.062-.509.093-.76.211-1.731.41-3.366.646-5a70.536,70.536,0,0,1,3.229-13.963,2.142,2.142,0,0,1,.773-1c1.932-1.248,3.967-2.485,6.047-3.677,1.377-.789,2.8-1.56,4.183-2.3.914-.494,1.83-.989,2.739-1.493.049-.027.09-.056.137-.084.05-.049.1-.094.148-.144a5.061,5.061,0,0,0,.642-.813,3.568,3.568,0,0,0,.216-.391c-.019.214.146.257.336.277a3.52,3.52,0,0,0,.892-2.307,3.091,3.091,0,0,0-4.483-3.358q-.728.236-1.448.5c-.15.065-.33.149-.478.213-.777.345-1.4.6-1.852.771L130,35.8l-.278.111-.138.055c-.023.008-.048.02-.068.025l.021-.074.167-.6.34-1.215q.343-1.246.689-2.51c.243-.848.463-1.729.744-2.59a5.379,5.379,0,0,1,1.414-2.178,7.665,7.665,0,0,1,2.152-1.353l1.253-.571c.214-.1.413-.2.64-.288l.752-.26,3.073-1.05,1.522-.514a10.41,10.41,0,0,0,1.075-.448,6.873,6.873,0,0,0,1.808-1.253,4.3,4.3,0,0,0,1.089-1.572.789.789,0,0,0-.269-.933,1.786,1.786,0,0,0-.3-.2,4.735,4.735,0,0,0-.466-.193c-.376-.141-.764-.275-1.147-.39a12.189,12.189,0,0,0-2.285-.484,17.186,17.186,0,0,0-2.385-.05c-2.655.269-5.964,1.53-6.293,2.338-.515.085-1.167.222-1.595.337a5.692,5.692,0,0,0-1.386.6A5.143,5.143,0,0,0,128,23.129c.079.089-.017-.04-.2-.057a.447.447,0,0,0-.334.111,1.052,1.052,0,0,0-.193.215,2.537,2.537,0,0,0-.215.432l-.537,3.473-.285.165a10.821,10.821,0,0,1-.94,3.711A13.2,13.2,0,0,0,124.286,35l-.419-.372c-.708,3.227-2.279,7.566-2.268,10.27-.352-.891-.722,1.283-1.035,2.743l-.293-1.607c-.224,1.884-.87,1.577-1.1,3.511l0,.4c.118.116.318-.485.542-.982-.44,1.742-.521,1.6-.542.982-.014-.015-.032,0-.043-.036.009-.138.025-.239.039-.36.01-.685.049-1.538-.1-1.449-.828,2.068,0,2.544-.863,4.443l.619-.063a13.986,13.986,0,0,0-1.066,3.037c-.215.883-.411,1.833-.919,3.473.282,1.074.9.99.883,2.654-.316.411-.7.1-.842,2.33.195.16.387-.6.6-1.187-.191,2.147-.4,4.572-.683,7.007-.146,1.215-.3,2.441-.473,3.641s-.364,2.295-.541,3.347c-.055-1.134-.217-.937-.416-.475s-.4,1.167-.561,1a12.768,12.768,0,0,0,.072,1.413,2.293,2.293,0,0,0,.327.867,1.977,1.977,0,0,0,.257.33,1.982,1.982,0,0,1-.793-1.546l-.067-.61-.03-.326c-.01-.109-.019-.214-.025-.384-.027-.622-.054-1.241-.079-1.823-.423.6-.763-.058-1.079-.193-.069.553-.134,1.139-.186,1.745a2.226,2.226,0,0,1,.127.872A4.555,4.555,0,0,0,113.086,79a3.654,3.654,0,0,0,.25,1.54c-.009,0-.019-.006-.028,0a3.78,3.78,0,0,0,.9,1.43,3.732,3.732,0,0,0,1.663.949c.006-.138-.006-.287.06-.355a7.261,7.261,0,0,0,.687.477c.085,0,.17.012.256.012h.108a5.177,5.177,0,0,0,3.6-1.708c1.068-1.089,2.155-2.162,3.243-3.236,1.677-1.656,3.412-3.368,5.055-5.123C131.367,70.32,133.72,67.492,135.9,64.831Zm5.757-31.976a2.148,2.148,0,0,1,.287.247,2.667,2.667,0,0,1,.48.693,4.028,4.028,0,0,1,.333,1.219,3.743,3.743,0,0,0-.447-.444,2.574,2.574,0,0,0-.482-.321,2.467,2.467,0,0,0-.439-1.179C141.158,32.749,141.16,32.6,141.652,32.855Zm-10.3-11.444c-.324.378-.085.754-.865.83A1.525,1.525,0,0,1,131.356,21.411Zm-1.764,2.468c1.085-.287-.03-.205.617.66-.094-.175-.292-.141-.474-.071-.085.019-.154,0-.174-.117A1.009,1.009,0,0,1,129.592,23.879Zm-9.423,25.4.166-.37-.168,1.36c-.075.68-.151,1.36-.151,1.36C119.972,50.913,120.284,50,120.169,49.282Zm-.079,31.9-.156.087-.158.081a8.459,8.459,0,0,0,.613-.649l1.426-1.595,2.138-2.4Zm7.652-16.249c.834-.633,1.426-1.209,1.939-1.671a6,6,0,0,1,1.655-1.133l-3.152,3.081A3.149,3.149,0,0,1,127.742,64.929Z" transform="translate(-9.413 -6.987)" style="fill:#231f20"/><path d="M141.284,38.806c.128-.093.254-.187.367-.286-.069.04-.132.078-.214.124C141.437,38.644,141.379,38.708,141.284,38.806Z" transform="translate(-9.413 -6.987)" style="fill:#231f20"/><path d="M120.292,21.3c.048-.185.1-.369.146-.555-.036.083-.073.171-.112.268Z" transform="translate(-9.413 -6.987)" style="fill:#231f20"/><path d="M117.988,6.993a.213.213,0,0,0-.083,0l-.924.07H117l-.1.017.02,0a3.625,3.625,0,0,0-2.207,1.457,4,4,0,0,0-.52,1.234,10.323,10.323,0,0,0-.2,1.422c-.215,1.995-.407,4.035-.711,6.1-.152,1.034-.333,2.074-.56,3.117l-.726,3.066q-.751,3.063-1.511,6.163l-.821,3.243q-.517,1.973-1.037,3.948-1.081,3.948-2.163,7.892c-.734,2.621-1.455,5.215-2.227,7.716l-.283.933-.071.232a.311.311,0,0,1-.017.05l-.015-.06-.029-.12-.118-.48q-.234-.963-.468-1.924-.46-1.928-.917-3.841c-.533-1.913-1.145-4.042-1.713-5.692s-1.1-2.848-1.424-2.744c-.373-1.976-.82-3.941-1.368-6.1-.274-1.077-.573-2.2-.9-3.4q-.249-.9-.511-1.847L96.274,27l-.1-.315c-.071-.21-.147-.42-.23-.628-.124-.026.044.026.181-.11a.549.549,0,0,0,.135-.389,2.152,2.152,0,0,0-.2-.846c-.1-.12-.2-.233-.3-.34a2.214,2.214,0,0,0-1.94-.807l-.06-.125-.069-.12A6.3,6.3,0,0,0,91.522,24.6a1.268,1.268,0,0,0-.107.127c-.047.053-.087.118-.131.179a3.46,3.46,0,0,0-.241.4c-.082.145-.133.272-.217.46s-.151.37-.217.553a6.324,6.324,0,0,0-.426,1.933l-.409-.406c-.111.478-.228.979-.348,1.5-.13.538-.263,1.092-.4,1.657-.276,1.128-.562,2.293-.842,3.434a32.369,32.369,0,0,0-1,6.161c-.338-1.067-.758,1.647-1.111,3.481l-.259-1.96c-.273,2.344-.918,2.017-1.2,4.425l-.008.489c.116.135.338-.623.569-1.256-.481,2.191-.569,2.016-.569,1.256-.013-.017-.032.006-.042-.041.013-.172.032-.3.05-.448.019-.85.083-1.9-.072-1.782-.885,2.613-.061,3.144-.985,5.551l.626-.114c-1.315,3.4-1.113,4.03-2.191,8.122.277,1.3.887,1.149.885,3.19-.313.528-.719.175-.809,2.928.2.179.376-.775.576-1.508-.079,1.324-.145,2.734-.21,4.19-.011.192-.014.35-.017.5v.473c0,.318.021.644.045.975.046.662.127,1.347.228,2.051a15.156,15.156,0,0,0,.284,1.655.759.759,0,0,0,.3.341,1.613,1.613,0,0,0,.742.222,3.61,3.61,0,0,0,.465,0l.2-.018c-.015.12-.158.224-.14.3,0,.074.11.132.23.163a1.251,1.251,0,0,0,.387.034c.129,0,.25-.031.288.061a2.668,2.668,0,0,0,.4-.834c.031-.083.051-.182.077-.274l.039-.155L86,72.488A2.081,2.081,0,0,0,86.041,72l.021-2.441c.023.3.045.65.062,1.065s.028.873.044,1.386a2.97,2.97,0,0,1-.108.948,3.554,3.554,0,0,1-.336.935,1.707,1.707,0,0,1-.542.622,2.527,2.527,0,0,1-.922.375c.583.265.248.662.031.978a.6.6,0,0,0-.056.114,3.427,3.427,0,0,0,2.04-.644.13.13,0,0,1,.01-.027,10.337,10.337,0,0,0,.559-.876,2.8,2.8,0,0,0,.649-.991,4.592,4.592,0,0,0,.269-.912c0-.03.009-.06.013-.09a2.54,2.54,0,0,0,.027-.306c.013-.337.025-.692.039-1.065a.225.225,0,0,1,.024.021c.018-.363.038-.726.055-1.089.053-1.123.114-2.275.2-3.414-.118.042-.229.11-.291.059a9.824,9.824,0,0,1,.365-.99A131.289,131.289,0,0,1,93,41.669l.035.094c.475,1.243.918,2.4,1.336,3.567A66.022,66.022,0,0,1,96.5,52.317c.114.362.225.752.327,1.171.2.786.384,1.64.531,2.538.131.917.266,1.855.4,2.8.132.968.265,1.942.4,2.907.133.925.264,1.842.393,2.734a9.867,9.867,0,0,0,.619,2.447,4.8,4.8,0,0,0,1.242,1.767c-.354.044-1.191-.825-1.59-2.125-.4-1.2-.5-2.645-.738-3.531.033.289.068.584.1.871l.07.631A8,8,0,0,0,99.857,69a3.249,3.249,0,0,0,4.282.9,6.986,6.986,0,0,0,3.68-4.593c2.219-8.024,4.549-16.192,6.928-24.277,1.708-5.808,3.582-12.278,5.341-18.96L120.2,19.9c.065.255.24.191.429.093.615-2.388,1.212-4.8,1.776-7.209A4.292,4.292,0,0,0,120.2,7.552c-.129-.049-.259-.1-.385-.136C119.175,7.221,118.52,7.15,117.988,6.993ZM85.423,49.069c-.029-.893.319-2.054.215-2.931l.175-.472Zm3.429,7.115c-.154,1.091-.278,2.164-.363,2.95s-.131,1.3-.131,1.3l-.153.522s.046-.541.149-1.388.243-1.985.413-3.144c.334-2.319.786-4.7.786-4.7S89.147,54,88.852,56.184Zm5.225-28.963a1.144,1.144,0,0,0-.781-.853c.216.115.3-.128.4-.26s.251-.164.584.507C94.09,27.346,94.116,27.409,94.077,27.221Zm2.478,7.333a7.189,7.189,0,0,1-.515-2.381A20.027,20.027,0,0,1,97.2,35.692C96.967,35.144,96.751,34.958,96.555,34.554Zm4.022,33.332a2.362,2.362,0,0,1-.527-1.557,5.037,5.037,0,0,0,.78,1.277,3.309,3.309,0,0,0,.679.6,1.334,1.334,0,0,0,.292.15l0,.093a1.9,1.9,0,0,0,.021.208,1.832,1.832,0,0,0,.071.3A3.68,3.68,0,0,1,100.577,67.886Zm21.606-55.151-.733,3.228-.4-1.51C121.635,13.039,122.308,11.378,122.183,12.735Z" transform="translate(-9.413 -6.987)" style="fill:#231f20"/><path d="M82.969,20.957h0c-.014-.021-.029-.045-.031-.034a.331.331,0,0,0,0,.044l.015,0,.013,0Z" transform="translate(-9.413 -6.987)" style="fill:#231f20"/><path d="M76.525,64.083c.144-.994.292-1.945.443-2.872-.025-.024-.05-.052-.073-.073a2.326,2.326,0,0,0-2.549-.17,13.474,13.474,0,0,0-3.513,2c-1.1.884-2.109,1.88-3.088,2.843-.372.367-.745.735-1.122,1.095-.425.407-.846.816-1.269,1.223l-.93,1.506c.045-.221-.124-.271-.315-.306-.381.368-.764.734-1.144,1.1l.024-.391c.082-1.333.163-2.667.265-4,.122-1.577.274-3.254.478-4.984a11.313,11.313,0,0,1,.046-1.938c.111-1.412.266-2.848.482-4.3q.16-1.089.372-2.187l.225-1.1c.081-.374.2-.809.3-1.218a2.849,2.849,0,0,1,.591-1.135,6.018,6.018,0,0,1,1-.819L68.612,47l3.732-2.691,1.892-1.345,1.947-1.308,1.89-1.275.474-.317a3.352,3.352,0,0,0,.352-.278,3.25,3.25,0,0,0,.55-.624,2.567,2.567,0,0,0,.023-2.9,2.809,2.809,0,0,0-.248-.343,2.248,2.248,0,0,0-.207-.209c-.037-.025-.071-.057-.1-.075l-.025-.018c-.024.011-.1.078-.152.113l-.168.13c-.056.044-.115.1-.154.087a8.987,8.987,0,0,0-1.139.233c-.406.1-.843.247-1.263.4s-.8.3-1.214.475l-2.581,1.062a.914.914,0,0,0-.6-.4,4.067,4.067,0,0,0-.682.148l-1.37.357c-.5.184-1.021.318-1.559.553l-.794.343-.383.165-.094.04-.047.02-.023.01,0-.031.043-.256c.223-1.342.274-2.389-.046-2.552.494-1.336.925-2.743,1.345-4.306a9.731,9.731,0,0,1,.9-2.235,7.272,7.272,0,0,1,1.587-1.855c-.087-.068.01.031.294.027a2.073,2.073,0,0,0,.577-.1c.12-.038.258-.084.411-.144l.238-.1.317-.126,1.484-1.034,1.606-1.154.482.011a7.3,7.3,0,0,1,1.946-1.09c.454-.2.949-.4,1.479-.607.283-.115.56-.243.827-.377,1.082-.526,1.836-1.32,1.876-1.957l.169.206.166.212c.063-.125.141-.283.185-.395a1.468,1.468,0,0,0,.085-.28,2.763,2.763,0,0,0-.332-.1,10.132,10.132,0,0,0-2.334-.37,4.954,4.954,0,0,0-1.834.293c.639-.6-1.241-.339-2.561,0,0,0,.3-.236.6-.451s.621-.431.621-.431a4.154,4.154,0,0,1-1.674.172,3.389,3.389,0,0,0-1.744.3l-.332.19c-.041.157.562.05,1.076.02-1.657.419-1.588.3-1.076-.02.006-.019-.017-.026.01-.054.121-.058.214-.091.322-.136.581-.315,1.326-.656,1.184-.751a4.543,4.543,0,0,0-2.144.7,4.726,4.726,0,0,1-2.066.693l.368.5c-.722.068-1.334.164-1.791.253a5.164,5.164,0,0,0-1.146.35A8.025,8.025,0,0,0,65.3,24.1a2.076,2.076,0,0,0,.19,1.075,2.523,2.523,0,0,1,.091,1.266c-.367.335-.709-.01-1.162,2.179.171.185.471-.549.761-1.1-.489,2.1-1.071,4.533-1.683,6.859-.612,2.352-1.248,4.711-1.947,6.817.255-2.36-.795.756-1.065.414l-.408,2.2c-.186,1.1-.373,2.2-.373,2.2.027-1.267.58-4.214.779-6.581-.5.536-.747-.153-1.039-.334-.151.57-.3,1.138-.442,1.7a2.46,2.46,0,0,1-.03.9,9.627,9.627,0,0,0-.836,2.805.072.072,0,0,1-.02-.019q-.407,1.8-.755,3.559c.123-.019.243-.061.3-.011-.112.227-.268.472-.435.738q-.819,4.267-1.313,8.35c-.688,5.77-1.191,11.651-1.678,17.337l-.24,2.8c0,.045-.007.093-.011.138q0,.517-.016,1.061c-.014.688-.028,1.4-.027,2.136.005.716.016,1.433.076,2.152a3.773,3.773,0,0,0,.813,1.964,3.4,3.4,0,0,0,1.724,1.133,3.313,3.313,0,0,0,.994.119,4.193,4.193,0,0,0,.948-.174A3.991,3.991,0,0,0,60,84.886c-.022.373-.79,1.013-1.862,1.217a3.706,3.706,0,0,1-1.621-.046,5.659,5.659,0,0,1-1.156-.44,3.708,3.708,0,0,0,2.811.716,5.377,5.377,0,0,0,3.252-1.875c1.008-1.151,2.036-2.287,3.063-3.423,1.58-1.745,3.213-3.55,4.752-5.392,2.334-2.794,4.526-5.748,6.548-8.525a7.494,7.494,0,0,0,.415-.648c.035-.269.071-.521.1-.789ZM74.059,21.372l.379-.019s-.595.221-1.194.475l-1.206.527C72.624,21.961,73.529,21.793,74.059,21.372Zm-6.287,5.466c.033.475,1.6-.535.533.807C66.329,28.646,68.144,27.971,67.772,26.838Zm-1.1,4.3a10.453,10.453,0,0,1-.434,2.477,7.416,7.416,0,0,0-.1-.964A2.9,2.9,0,0,1,66.673,31.138ZM56.806,55.686c-.13,1.586-.175,3.194-.175,3.194l.023-.94c0-.566.047-1.311.087-2.058.087-1.493.213-2.987.213-2.987l.142-.389S56.931,54.1,56.806,55.686ZM59.45,84.437a1.209,1.209,0,0,1-1.14.168,3.816,3.816,0,0,0,.98-.534,3.877,3.877,0,0,0,.738-.755,3.271,3.271,0,0,0,.55.163A8.421,8.421,0,0,1,59.45,84.437Zm2.768-16.9c.315-1.21.7-2.61.806-1.51l-.136,2.671Z" transform="translate(-9.413 -6.987)" style="fill:#231f20"/><path d="M64.9,68.569l-.334.322c.062-.041.118-.076.189-.125Z" transform="translate(-9.413 -6.987)" style="fill:#231f20"/><path d="M43.271,72.028a2.209,2.209,0,0,0,.659.046,2.372,2.372,0,0,1-.321-.034A2.206,2.206,0,0,1,43.271,72.028Z" transform="translate(-9.413 -6.987)" style="fill:#231f20"/><path d="M45.307,63.891a10.429,10.429,0,0,0-1.085-.839A32.145,32.145,0,0,0,38.6,60.045l-.572-.176c-.841-.256-1.68-.514-2.417-.772-1.444-.455-2.972-.9-4.6-1.353l-.093-.041c-.035-.012-.072-.024-.024-.057l.153-.165.31-.331.63-.668,1.3-1.368L36,52.248l2.588-2.691,2.514-2.675c3.339-3.606,6.608-7.388,9.709-11.328.771-.988,1.539-1.981,2.287-2.988.763-1.01,1.471-2,2.105-3.021a14.917,14.917,0,0,0,2.345-6.5A8.5,8.5,0,0,0,55.9,16.87a11.017,11.017,0,0,0-2.43-2.28,12.54,12.54,0,0,0-3-1.54,12.037,12.037,0,0,0-3.086-.521,13.8,13.8,0,0,0-3.059.242c-1.973.35-3.461.85-3.8,1.265A25.715,25.715,0,0,0,35.2,15.18a49.929,49.929,0,0,0-6.419,2.538c-.085.282.327-.777-1.84.156,0,0-1.107.708-2.172,1.466-.54.365-1.057.769-1.453,1.053s-.65.489-.65.489l-.435.01a37.046,37.046,0,0,1-4.647,3.434,22.877,22.877,0,0,0-4.6,3.868l-.069-.61-1.482,1.4c-.244.232-.552.5-.751.7a7.666,7.666,0,0,0-.57.629c-.083.105-.16.209-.232.313s-.1.167-.157.257A2.794,2.794,0,0,0,9.5,31.4a1.994,1.994,0,0,0-.081.349l0-.006v0h0c.009.067.047.373.037.292h0v-.067l.031.236c.017.132.012.084.012.084v-.021c0-.023-.008-.069,0-.072a2.855,2.855,0,0,0,.261.365c.064.091.128.2.194.29.073.071.138.162.208.219a1.156,1.156,0,0,0,.649.371.591.591,0,0,0,.359-.128,2.363,2.363,0,0,0,.5-.455c-.052.191-.018.282.1.282s.27-.068.732-.408c.81-.587,1.988-1.552,2.937-2.253l-1.523,1.957C16.2,30.445,16.406,31.17,18.8,29.22l.455-.424c.036-.2-.831.321-1.587.731,2.378-1.618,2.293-1.391,1.587-.731,0,.024.03.017-.006.065l-.449.359c-.8.729-1.782,1.63-1.552,1.621,3.02-1.723,2.895-2.746,5.879-4.118l-.561-.348c2.132-.94,3.341-1.521,4.636-2.16a39.993,39.993,0,0,1,5.248-2.208,7.245,7.245,0,0,0,1.177-1.283,5.4,5.4,0,0,1,2.043-1.391c.4-.007.534.123,1,.093a21.774,21.774,0,0,0,3.049-.742c.17-.26-1.154-.067-2.171.114a26.3,26.3,0,0,1,2.738-.749c.481-.105.976-.189,1.48-.265l.765-.095.388-.033.491-.035a16.087,16.087,0,0,1,2.116.04,14.634,14.634,0,0,1,2.079.368,8.191,8.191,0,0,1,1.9.7,4.568,4.568,0,0,1,1.507,1.2,5.126,5.126,0,0,1,.909,3.8,8.768,8.768,0,0,1-1.522,3.848c-.2.3-.418.6-.64.893l-.654.838q-.44.546-.873,1.084c-.583.713-1.166,1.406-1.749,2.07,2.063-3.134-1.375.8-1.382.238l-2.146,2.813c-1.082,1.4-2.2,2.781-2.2,2.781,1.127-1.643,4.059-5.379,5.983-8.533-.906.575-.637-.43-.806-.749q-.818,1.041-1.693,2.136a5.39,5.39,0,0,1-.708,1.187,28.045,28.045,0,0,0-3.026,3.393.122.122,0,0,1,0-.034c-1.185,1.4-2.424,2.824-3.714,4.251.12.041.258.052.262.146A11.79,11.79,0,0,1,36,40.816c-1.748,1.9-3.579,3.8-5.486,5.638-.8.773-1.61,1.536-2.418,2.3l-.721.681c.14-.838.286-1.676.432-2.513.35-2.012.711-4.093.989-6.154a30.086,30.086,0,0,0,.244-5.514c-.1-1.954-2.124-3.632-4.361-3.632H24.6c-.07,0-.129.013-.2.016l-.054.034c-1.211.809-2.366,1.627-3.452,2.431a5.939,5.939,0,0,0-.241,1.052c-.135,1.015-.253,2.032-.371,3.049-.115,1-.238,2.018-.373,3.032q-.06.744-.136,1.525c-.216,2.128-.5,4.43-.791,6.761-.582,4.662-1.2,9.439-1.362,13.155-.472-.69.463-6.066.489-8.321l-.168.906q-.5,3.593-.966,7.067v0l-.522,4.126.015-.358q-.761,5.7-1.461,11.174a20.109,20.109,0,0,0-.037,6.442,6.614,6.614,0,0,0,1.873,3.68,3.536,3.536,0,0,0,2.431.925,3.682,3.682,0,0,0,.847-.1,3.09,3.09,0,0,0,2.254-1.978l.037-.1a12.624,12.624,0,0,0,.766-2.783c.235-2.015.443-4.064.644-6.046.163-1.614.327-3.229.506-4.842.162-1.457.373-2.938.576-4.37l.125-.877a.632.632,0,0,1,.191-.43.847.847,0,0,1,.6-.071c.314.046.632.082.949.118a11.392,11.392,0,0,1,2.167.383c3.012.956,6.041,2.011,8.971,3.03l1.977.688c.8.279,1.593.536,2.368.782l.367.056a4.9,4.9,0,0,0,.841.093,1.848,1.848,0,0,0,.653-.138,1.713,1.713,0,0,0,.524-.332c-.125.192-.039.29.141.344a.827.827,0,0,0,.092.021,3.269,3.269,0,0,0,.748-.613,5.227,5.227,0,0,0,1.645-3.743A5.132,5.132,0,0,0,45.307,63.891ZM17.655,28.9l-.569.307,1.73-1.378,1.761-1.358C19.733,27.259,18.381,28.057,17.655,28.9Zm11.188-8.391c.512-.563-1.576-.029.595-1.166C31.66,19.291,29.868,19.047,28.843,20.513Zm7.09-3.791a4.261,4.261,0,0,1-1.735.467,10.979,10.979,0,0,1,2.746-1.134A10.033,10.033,0,0,0,35.933,16.722ZM18.731,61.9c-.037.6-.075,1.2-.1,1.647l-.01.474s-.146.134-.295.294-.3.34-.3.34c.095-.5.144-.884.186-1.288.052-.508.1-.952.14-1.373a10.345,10.345,0,0,1,.542-2.539ZM28.8,49l-1.589,1.6-.4.4-.2.2-.1.1-.051.05a.126.126,0,0,1-.024.023l0-.015c-.032-.167-.068-.33-.106-.488l.379-2.8L26.364,50.8c.038.139.072.283.1.432l.012.056c.025-.021.06-.061.09-.09l.187-.19.373-.38,1.463-1.5c.965-.985,1.9-1.948,2.8-2.9l.462-.346Q30.381,47.424,28.8,49ZM47.064,67.42v.014l-.006-.014a3.632,3.632,0,0,0-1.116-1.272,4.836,4.836,0,0,0-.5-1.053c-.209-.339-.441-.637-.613-.874-.349-.479-.369-.653.323-.158a6.768,6.768,0,0,1,1.3,1.5A4.013,4.013,0,0,1,47.064,67.42Z" transform="translate(-9.413 -6.987)" style="fill:#231f20"/><polygon points="13.512 91.102 91.011 90.128 91.011 92.468 13.512 91.493 13.512 91.102" style="fill:#ca7d2d"/><polygon points="173.393 89.962 250.893 91.132 173.393 92.301 173.393 89.962" style="fill:#ca7d2d"/><path d="M115.12,103.877h-4.588l-.918-2.753,1.7.584h2.3l.667-.333.334-.668V99.621l-.584-.583-2.5-.584-1.586-1.586v-2.5l2.171-2.171h4.337l.835,2.5-1.5-.5h-2.168l-.668.334-.334.667v.668l.585.584,2.5.585,1.586,1.584v3.088Z" transform="translate(-9.413 -6.987)" style="fill:#ca7d2d"/><path d="M128.81,103.877h-6.842l.334-1.335V93.53l-.334-1.335h6.676l.833,2.5-1.5-.5h-3l-.168.168v2l.168.166h1.418l1.252-.417v2.836l-1.252-.416h-1.418l-.168.167v2.754l.251.25h2.921l1.752-.584Z" transform="translate(-9.413 -6.987)" style="fill:#ca7d2d"/><path d="M139.5,103.877l-1.418-4.339-.334-.166h-1.252l-.167.166v3l.335,1.335H133.49l.333-1.335V93.53L133.49,92.2h6.841l2,2v2.838L140.5,98.87l1.252,3.421.918,1.586Zm.166-8.595-.332-.668L138.5,94.2h-2l-.167.168V97.2l.167.167h2l.835-.418.332-.668Z" transform="translate(-9.413 -6.987)" style="fill:#ca7d2d"/><path d="M147.015,103.877l.334-1.335V93.53l-.334-1.335h3.17l-.332,1.335v9.012l.332,1.335Z" transform="translate(-9.413 -6.987)" style="fill:#ca7d2d"/><path d="M162.038,103.877H155.2l.334-1.335V93.53L155.2,92.2h6.675l.836,2.5-1.5-.5h-3l-.166.168v2l.166.166h1.418l1.252-.417v2.836l-1.252-.416H158.2l-.166.167v2.754l.249.25H161.2l1.752-.584Z" transform="translate(-9.413 -6.987)" style="fill:#ca7d2d"/><path d="M171.557,103.877h-4.59l-.918-2.753,1.7.584h2.3l.667-.333.334-.668V99.621l-.584-.583-2.5-.584-1.586-1.586v-2.5l2.169-2.171h4.341l.833,2.5-1.5-.5h-2.17l-.668.334-.333.667v.668l.584.584,2.5.585,1.586,1.584v3.088Z" transform="translate(-9.413 -6.987)" style="fill:#ca7d2d"/></svg>