<svg id="Layer_1" data-name="Layer 1" xmlns="http://www.w3.org/2000/svg" xmlns:xlink="http://www.w3.org/1999/xlink" viewBox="0 0 390.486 103.109"><defs><linearGradient id="linear-gradient" x1="30.125" y1="118.636" x2="30.125" y2="-1.274" gradientUnits="userSpaceOnUse"><stop offset="0" stop-color="#003512"/><stop offset="1" stop-color="#009444"/></linearGradient><linearGradient id="linear-gradient-2" x1="86.158" y1="118.636" x2="86.158" y2="-1.274" xlink:href="#linear-gradient"/><linearGradient id="linear-gradient-3" x1="135.545" y1="118.636" x2="135.545" y2="-1.274" xlink:href="#linear-gradient"/><linearGradient id="linear-gradient-4" x1="181.629" y1="118.636" x2="181.629" y2="-1.274" xlink:href="#linear-gradient"/><linearGradient id="linear-gradient-5" x1="233.534" y1="118.636" x2="233.534" y2="-1.274" xlink:href="#linear-gradient"/><linearGradient id="linear-gradient-6" x1="276.944" y1="118.636" x2="276.944" y2="-1.274" xlink:href="#linear-gradient"/><linearGradient id="linear-gradient-7" x1="318.308" y1="118.636" x2="318.308" y2="-1.274" xlink:href="#linear-gradient"/><linearGradient id="linear-gradient-8" x1="368.365" y1="118.636" x2="368.365" y2="-1.274" xlink:href="#linear-gradient"/><linearGradient id="linear-gradient-9" x1="276.638" y1="46.5" x2="276.638" y2="5.864" gradientUnits="userSpaceOnUse"><stop offset="0" stop-color="#f7941d"/><stop offset="1" stop-color="#ffde17"/></linearGradient><linearGradient id="linear-gradient-10" x1="-629.798" y1="1147.717" x2="-633.046" y2="1117.721" gradientTransform="translate(909.765 -1108.057)" xlink:href="#linear-gradient"/></defs><title>logo-greenius</title><path d="M34.175,52.428A30.369,30.369,0,0,1,53.364,59.82a1.38,1.38,0,0,1,.158,2.124L47.309,68.55a1.665,1.665,0,0,1-2.124.079,14.459,14.459,0,0,0-10.3-3.775,15.77,15.77,0,0,0,.078,31.536,18.592,18.592,0,0,0,7-1.258V89.57H36.006a1.429,1.429,0,0,1-1.494-1.416V80.369a1.446,1.446,0,0,1,1.494-1.494H52.814a1.478,1.478,0,0,1,1.415,1.494l.079,22.156a1.942,1.942,0,0,1-.629,1.257,39.734,39.734,0,0,1-19.5,5.113,28.234,28.234,0,0,1,0-56.467Z" transform="translate(-5.942 -5.864)" style="fill:url(#linear-gradient)"/><path d="M65.081,54.63a1.493,1.493,0,0,1,1.495-1.494H90.09a17.1,17.1,0,0,1,17.144,16.987c0,7.235-4.8,13.055-11.639,15.808l10.774,19.975a1.488,1.488,0,0,1-1.336,2.281H94.573a1.45,1.45,0,0,1-1.259-.708L82.855,86.638H77.428v20.054a1.547,1.547,0,0,1-1.494,1.5H66.576a1.494,1.494,0,0,1-1.495-1.5ZM89.068,76.65a6.305,6.305,0,0,0,5.976-6.292,6.025,6.025,0,0,0-5.976-5.976H77.428V76.65Z" transform="translate(-5.942 -5.864)" style="fill:url(#linear-gradient-2)"/><path d="M117.772,54.63a1.493,1.493,0,0,1,1.494-1.494h32.559a1.493,1.493,0,0,1,1.494,1.494V63.2a1.493,1.493,0,0,1-1.494,1.494H130.04v9.752h17.931a1.547,1.547,0,0,1,1.494,1.494v8.573a1.493,1.493,0,0,1-1.494,1.494H130.04V96.626h21.785a1.493,1.493,0,0,1,1.494,1.494v8.572a1.493,1.493,0,0,1-1.494,1.5H119.266a1.493,1.493,0,0,1-1.494-1.5Z" transform="translate(-5.942 -5.864)" style="fill:url(#linear-gradient-3)"/><path d="M163.856,54.63a1.493,1.493,0,0,1,1.494-1.494h32.559A1.493,1.493,0,0,1,199.4,54.63V63.2a1.493,1.493,0,0,1-1.494,1.494H176.124v9.752h17.931a1.547,1.547,0,0,1,1.494,1.494v8.573a1.493,1.493,0,0,1-1.494,1.494H176.124V96.626h21.785A1.493,1.493,0,0,1,199.4,98.12v8.572a1.493,1.493,0,0,1-1.494,1.5H165.35a1.493,1.493,0,0,1-1.494-1.5Z" transform="translate(-5.942 -5.864)" style="fill:url(#linear-gradient-4)"/><path d="M209.862,53.765a1.478,1.478,0,0,1,1.494-1.415h1.967l31.378,30.2h.079V54.63a1.493,1.493,0,0,1,1.494-1.494h9.437a1.547,1.547,0,0,1,1.494,1.494v52.928a1.478,1.478,0,0,1-1.494,1.415h-1.259a2.327,2.327,0,0,1-1.022-.393L222.367,77.358h-.08v29.334a1.493,1.493,0,0,1-1.494,1.5h-9.358a1.547,1.547,0,0,1-1.494-1.5Z" transform="translate(-5.942 -5.864)" style="fill:url(#linear-gradient-5)"/><path d="M270.731,54.63a1.546,1.546,0,0,1,1.494-1.494h9.437a1.547,1.547,0,0,1,1.5,1.494v52.062a1.547,1.547,0,0,1-1.5,1.5h-9.437a1.547,1.547,0,0,1-1.494-1.5Z" transform="translate(-5.942 -5.864)" style="fill:url(#linear-gradient-6)"/><path d="M295.9,54.63a1.547,1.547,0,0,1,1.494-1.494h9.674a1.493,1.493,0,0,1,1.494,1.494V86.481a9.753,9.753,0,1,0,19.5,0V54.63a1.493,1.493,0,0,1,1.494-1.494h9.673a1.547,1.547,0,0,1,1.494,1.494V87.11c0,11.954-10.066,21.863-22.492,21.863A22.173,22.173,0,0,1,295.9,87.11Z" transform="translate(-5.942 -5.864)" style="fill:url(#linear-gradient-7)"/><path d="M350.237,100.716l3.7-6.528a2.03,2.03,0,0,1,2.674-.472c.315.157,5.977,4.325,11.168,4.325,3.145,0,5.426-1.966,5.426-4.718,0-3.3-2.752-5.82-8.1-7.943-6.764-2.674-15.257-7.943-15.257-17.38,0-7.786,6.056-15.65,18.167-15.65,8.179,0,14.47,4.168,16.829,5.9a1.992,1.992,0,0,1,.472,2.517L381.3,66.82c-.55.865-1.966,1.573-2.674,1.022-.708-.393-6.448-4.718-11.246-4.718-2.831,0-4.954,1.887-4.954,4.011,0,2.909,2.359,5.111,8.572,7.628,6.134,2.438,15.886,7.235,15.886,17.93,0,8.1-7,16.28-18.559,16.28-10.224,0-15.887-4.246-17.7-6.056C349.844,102.131,349.608,101.816,350.237,100.716Z" transform="translate(-5.942 -5.864)" style="fill:url(#linear-gradient-8)"/><path d="M196.413,45.937" transform="translate(-5.942 -5.864)" style="fill:#58595b"/><path d="M276.638,5.864a20.318,20.318,0,1,0,20.318,20.318A20.318,20.318,0,0,0,276.638,5.864ZM288.426,31c-3.861,2.725-7.752,5.575-11.514,8.332l-.85.623a6.07,6.07,0,0,1-3.631,1.256,5.668,5.668,0,0,1-2.28-.482c-1.431-.623-3.136-2.053-3.13-5.328q0-2.607,0-5.212h-.017V17.145a5.566,5.566,0,0,1,3.1-5.437,5.3,5.3,0,0,1,2.351-.554h0A5.986,5.986,0,0,1,276.2,12.6c.053.042.156.116.255.187.071.05.143.1.213.153q1.64,1.193,3.273,2.393c2.789,2.043,5.671,4.155,8.532,6.161a5.746,5.746,0,0,1,2.551,4.714A5.847,5.847,0,0,1,288.426,31Z" transform="translate(-5.942 -5.864)" style="fill:url(#linear-gradient-9)"/><path d="M286.252,24.669c-4-2.8-7.913-5.72-11.861-8.594-.206-.15-.418-.294-.617-.454a2.176,2.176,0,0,0-1.321-.593,1.459,1.459,0,0,0-.648.159,1.892,1.892,0,0,0-.925,1.958q0,4.586,0,9.17h.012q0,4.545,0,9.092c0,.72.055,1.445.8,1.771a1.827,1.827,0,0,0,.733.159,2.281,2.281,0,0,0,1.341-.507c4.124-3.021,8.244-6.048,12.421-8.995A1.812,1.812,0,0,0,286.252,24.669Z" transform="translate(-5.942 -5.864)" style="fill:url(#linear-gradient-10)"/><path d="M288.476,21.5c-2.861-2.006-5.743-4.118-8.532-6.161q-1.635-1.2-3.273-2.393c-.07-.052-.142-.1-.213-.153-.1-.071-.2-.145-.255-.187a5.986,5.986,0,0,0-3.75-1.449h0a5.3,5.3,0,0,0-2.351.554,5.566,5.566,0,0,0-3.1,5.437V30.189h.017q0,2.605,0,5.212c-.006,3.275,1.7,4.7,3.13,5.328a5.668,5.668,0,0,0,2.28.482,6.07,6.07,0,0,0,3.631-1.256l.85-.623c3.762-2.757,7.653-5.607,11.514-8.332a5.847,5.847,0,0,0,2.6-4.789A5.746,5.746,0,0,0,288.476,21.5Zm-2.283,6.338c-4.177,2.947-8.3,5.974-12.421,8.995a2.281,2.281,0,0,1-1.341.507,1.827,1.827,0,0,1-.733-.159c-.748-.326-.8-1.051-.8-1.771q.007-4.546,0-9.092h-.012q-.007-4.586,0-9.17a1.892,1.892,0,0,1,.925-1.958,1.459,1.459,0,0,1,.648-.159,2.176,2.176,0,0,1,1.321.593c.2.16.411.3.617.454,3.948,2.874,7.864,5.791,11.861,8.594A1.812,1.812,0,0,1,286.193,27.835Z" transform="translate(-5.942 -5.864)" style="fill:#fff"/><g style="opacity:0.18"><path d="M279.341,32.8c2.28-1.66,4.548-3.337,6.852-4.962a1.812,1.812,0,0,0,.06-3.166c-4-2.8-7.914-5.72-11.862-8.594-.206-.15-.418-.294-.617-.454a1.737,1.737,0,0,0-1.968-.434,1.891,1.891,0,0,0-.926,1.958v1.166A25.853,25.853,0,0,1,279.341,32.8Z" transform="translate(-5.942 -5.864)" style="fill:#fff"/></g><path d="M388.193,53.3H387.08a.138.138,0,0,1-.138-.138v-.6a.138.138,0,0,1,.138-.139h3.18a.138.138,0,0,1,.138.139v.6a.138.138,0,0,1-.138.138h-1.114v4.082a.143.143,0,0,1-.138.139h-.676a.143.143,0,0,1-.139-.139Z" transform="translate(-5.942 -5.864)" style="fill:#006838"/><path d="M391.6,52.458a.123.123,0,0,1,.131-.108h.116a.134.134,0,0,1,.124.072l1.6,3.435h.021l1.6-3.435a.126.126,0,0,1,.124-.072h.116a.123.123,0,0,1,.131.108l.859,4.89a.127.127,0,0,1-.131.168h-.662a.159.159,0,0,1-.139-.11l-.429-2.757h-.022l-1.273,2.859a.123.123,0,0,1-.124.08h-.131a.129.129,0,0,1-.123-.08L392.1,54.649h-.021l-.422,2.757a.142.142,0,0,1-.131.11h-.655a.134.134,0,0,1-.138-.168Z" transform="translate(-5.942 -5.864)" style="fill:#006838"/></svg>