<svg xmlns="http://www.w3.org/2000/svg" viewBox="0 0 202.095 76.456"><title>logo-ohvation</title><g style="isolation:isolate"><g id="Layer_1" data-name="Layer 1"><path d="M40.026,40.121" transform="translate(-5.392 -6.964)" style="fill:#009fdd;fill-rule:evenodd;mix-blend-mode:multiply"/><path d="M20.271,64.594A14.54,14.54,0,0,1,5.4,49.533c.335-8.053,7.169-13.491,14.578-13.545,7.65-.052,14.77,5.648,14.915,13.965C35.09,58.319,27.969,64.543,20.271,64.594Zm-.29-20.342A5.845,5.845,0,0,0,14.544,50C14.4,53.351,17,56.334,20.078,56.385A6.006,6.006,0,0,0,25.8,50.056,5.87,5.87,0,0,0,19.981,44.252Z" transform="translate(-5.392 -6.964)" style="fill:#009fdd;mix-blend-mode:multiply"/><path d="M48.872,63.707V48.071a4.416,4.416,0,0,0-4.043-4.6c-2.308-.052-4.234,2.2-4.234,4.757V63.707H31.7V20.456h8.9V40.223l1.54-1.62a7.46,7.46,0,0,1,7.217-2.561c4.765.574,8.277,4.809,8.277,9.986V63.707Z" transform="translate(-5.392 -6.964)" style="fill:#009fdd;mix-blend-mode:multiply"/><g style="mix-blend-mode:multiply"><path d="M62.519,36.266H71.59l6.886,18.478h.113l6.383-18.478h8.454L82.676,63.478h-8.9Z" transform="translate(-5.392 -6.964)" style="fill:#009fdd"/><path d="M108.547,60.062h-.114c-1.846,2.913-5.207,4.088-8.622,4.088-5.1,0-9.686-2.911-9.686-8.4,0-9.406,11.422-9.575,18.422-9.575,0-2.967-2.464-4.871-5.376-4.871a8.978,8.978,0,0,0-6.831,3.247l-4.48-4.591a17.565,17.565,0,0,1,11.983-4.367c9.8,0,12.43,4.983,12.43,14.054v13.83h-7.726Zm-2.073-8.51c-2.575,0-8.287.223-8.287,3.92,0,2.015,2.128,2.967,3.976,2.967,3.3,0,6.384-1.735,6.384-5.094V51.552Z" transform="translate(-5.392 -6.964)" style="fill:#009fdd"/><path d="M136.15,42.985h-7.389v9.071c0,2.911.334,5.04,3.974,5.04.9,0,2.687-.113,3.415-.785v7a17.411,17.411,0,0,1-5.88.839c-5.6,0-9.909-2.3-9.909-8.231V42.985h-5.376V36.266h5.376V28.2h8.4v8.062h7.389Z" transform="translate(-5.392 -6.964)" style="fill:#009fdd"/><path d="M143.04,22.828a4.871,4.871,0,1,1-4.873,4.87A4.876,4.876,0,0,1,143.04,22.828Zm-4.2,13.438h8.4V63.478h-8.4Z" transform="translate(-5.392 -6.964)" style="fill:#009fdd"/><path d="M164.315,35.594c8.4,0,15.119,5.6,15.119,14.278S172.715,64.15,164.315,64.15,149.2,58.551,149.2,49.872,155.918,35.594,164.315,35.594Zm0,21.165c4.2,0,6.721-2.8,6.721-6.887s-2.52-6.887-6.721-6.887-6.718,2.8-6.718,6.887S160.116,56.759,164.315,56.759Z" transform="translate(-5.392 -6.964)" style="fill:#009fdd"/><path d="M181.282,36.266h8.064v3.7h.11a8.828,8.828,0,0,1,7.953-4.367c8.51,0,10.078,5.6,10.078,12.879V63.478h-8.4V50.153c0-3.136-.058-7.168-4.367-7.168-4.37,0-5.041,3.415-5.041,6.943v13.55h-8.4Z" transform="translate(-5.392 -6.964)" style="fill:#009fdd"/></g><path d="M60.252,65.345A9.1,9.1,0,0,0,49.391,71.87,9.179,9.179,0,1,0,67.36,75.435,8.974,8.974,0,0,0,60.252,65.345Z" transform="translate(-5.392 -6.964)" style="fill:#8dc63f;mix-blend-mode:multiply"/><polygon points="59.858 0 48.285 52.511 63.19 55.733 74.764 3.22 59.858 0" style="fill:#8dc63f;mix-blend-mode:multiply"/></g></g></svg>