<svg id="Layer_1" data-name="Layer 1" xmlns="http://www.w3.org/2000/svg" viewBox="0 0 595.887 91.425"><title>logo-gridiron</title><path d="M103.394,58.1A32.059,32.059,0,0,1,98.4,70.391a39.033,39.033,0,0,1-9.969,10.15A50.444,50.444,0,0,1,74.1,87.478a60.163,60.163,0,0,1-18.055,2.57A51.632,51.632,0,0,1,38.9,87.478a32.663,32.663,0,0,1-11.882-6.937,23.569,23.569,0,0,1-6.39-10.15A25.7,25.7,0,0,1,19.969,58.1a32.084,32.084,0,0,1,4.993-12.29,39.005,39.005,0,0,1,9.97-10.15A50.42,50.42,0,0,1,49.26,28.721a60.176,60.176,0,0,1,18.055-2.569,52.962,52.962,0,0,1,11.943,1.242,41.941,41.941,0,0,1,9.553,3.383,28.649,28.649,0,0,1,7.2,5.1,24.93,24.93,0,0,1,4.77,6.467l-14.47,6.766a16.056,16.056,0,0,0-7.218-7.151q-5.234-2.869-14.054-2.87a41.119,41.119,0,0,0-11.707,1.542,31.668,31.668,0,0,0-9,4.154,22.41,22.41,0,0,0-6.076,6.038A19.067,19.067,0,0,0,35.3,58.1a15.279,15.279,0,0,0,.386,7.282,13.493,13.493,0,0,0,3.946,6.038,20.753,20.753,0,0,0,7.533,4.154,35.674,35.674,0,0,0,11.163,1.542q9.678,0,16.47-3.3a25.585,25.585,0,0,0,10.252-8.351H54.472l2.054-11.648h47.28c-.006.685-.045,1.384-.113,2.1s-.168,1.442-.3,2.183" transform="translate(-19.523 -26.105)" style="fill:#ef3838"/><path d="M302.584,58.1a17.8,17.8,0,0,0-.135-7.256,12.2,12.2,0,0,0-3.335-5.933,17.519,17.519,0,0,0-6.74-3.971,31.845,31.845,0,0,0-10.33-1.461h-27.75l-6.567,37.244h27.749a36.749,36.749,0,0,0,10.847-1.462,27.045,27.045,0,0,0,8.139-3.97,19.9,19.9,0,0,0,5.428-5.934,21.556,21.556,0,0,0,2.694-7.257m16.887,0a33.871,33.871,0,0,1-4.881,12.415,37.659,37.659,0,0,1-9.645,10.178A47.537,47.537,0,0,1,291.1,87.538a58.1,58.1,0,0,1-17.6,2.51H229.311l11.267-63.9h44.181a49.926,49.926,0,0,1,16.718,2.509,30.678,30.678,0,0,1,11.435,6.847,22.921,22.921,0,0,1,6.056,10.177,27.448,27.448,0,0,1,.5,12.414" transform="translate(-19.523 -26.105)" style="fill:#ef3838"/><polygon points="302.488 63.943 313.06 0.046 328.135 0.046 317.563 63.943 302.488 63.943" style="fill:#838182"/><path d="M507.886,58.1a17.2,17.2,0,0,0-.209-7.323,13.48,13.48,0,0,0-3.459-6.123,17.709,17.709,0,0,0-6.883-4.2,31,31,0,0,0-10.391-1.541,36.07,36.07,0,0,0-10.936,1.541,27.53,27.53,0,0,0-8.363,4.2,22.021,22.021,0,0,0-5.62,6.123,21,21,0,0,0-2.79,7.323,17.184,17.184,0,0,0,.208,7.324,13.448,13.448,0,0,0,3.46,6.124,17.672,17.672,0,0,0,6.883,4.2,30.986,30.986,0,0,0,10.391,1.541,36.089,36.089,0,0,0,10.936-1.541,27.577,27.577,0,0,0,8.363-4.2,22.039,22.039,0,0,0,5.619-6.124,21.026,21.026,0,0,0,2.791-7.324m15.845,0a32.8,32.8,0,0,1-4.908,12.292,38.881,38.881,0,0,1-9.712,10.15,48.659,48.659,0,0,1-13.857,6.937,55.76,55.76,0,0,1-17.327,2.57,47.573,47.573,0,0,1-16.42-2.57A31.233,31.233,0,0,1,450.1,80.541a23.555,23.555,0,0,1-6.133-10.15A26.425,26.425,0,0,1,443.39,58.1a32.781,32.781,0,0,1,4.908-12.29,38.816,38.816,0,0,1,9.712-10.15,48.621,48.621,0,0,1,13.857-6.938,55.781,55.781,0,0,1,17.327-2.569,47.609,47.609,0,0,1,16.42,2.569,31.247,31.247,0,0,1,11.41,6.938,23.576,23.576,0,0,1,6.134,10.15,26.458,26.458,0,0,1,.573,12.29" transform="translate(-19.523 -26.105)" style="fill:#838182"/><polygon points="568.606 63.822 530.359 19.268 522.503 63.822 506.467 63.822 517.712 0.044 533.749 0.044 571.996 44.598 579.852 0.044 595.887 0.044 584.641 63.822 568.606 63.822" style="fill:#838182"/><path d="M190.923,36.682a14.961,14.961,0,0,0-4.456-6.41,16.869,16.869,0,0,0-6.341-3.251,24,24,0,0,0-6.02-.916H117.454a1.132,1.132,0,0,0-1.115.936l-10.9,61.839a1.133,1.133,0,0,0,1.115,1.329h13.819a1.131,1.131,0,0,0,1.114-.936l3.695-20.951,2.438-13.828,2.4-13.625a1.132,1.132,0,0,1,1.114-.936h38.154a8.957,8.957,0,0,1,1.92.275,6.047,6.047,0,0,1,2.241,1.053,4.963,4.963,0,0,1,1.627,2.2,6.824,6.824,0,0,1,.171,3.708,7.691,7.691,0,0,1-1.554,3.618,9.819,9.819,0,0,1-2.548,2.244,10.081,10.081,0,0,1-2.628,1.144,8.224,8.224,0,0,1-1.8.321H130.091a1.132,1.132,0,0,0-.856,1.872l10,11.565a1.133,1.133,0,0,0,.856.391h17.849a1.133,1.133,0,0,1,1.087.815L164.946,89.4a1.132,1.132,0,0,0,1.086.814h14.855a1.132,1.132,0,0,0,1.086-1.452L175.7,67.475a1.13,1.13,0,0,1,.66-1.362,29.344,29.344,0,0,0,4.019-2.095,23.376,23.376,0,0,0,4.716-3.892,24.469,24.469,0,0,0,3.861-5.541,25.667,25.667,0,0,0,2.407-7.418q1.13-6.408-.44-10.485" transform="translate(-19.523 -26.105)" style="fill:#ef3838"/><path d="M437.209,36.693A14.922,14.922,0,0,0,432.75,30.3a16.888,16.888,0,0,0-6.345-3.24,24.091,24.091,0,0,0-6.023-.912H363.694a1.131,1.131,0,0,0-1.114.934L351.67,88.719a1.132,1.132,0,0,0,1.115,1.328h13.828a1.132,1.132,0,0,0,1.115-.933l3.7-20.882,2.44-13.784,2.4-13.578a1.133,1.133,0,0,1,1.115-.935H415.56a9.013,9.013,0,0,1,1.921.273,6.08,6.08,0,0,1,2.243,1.05,4.964,4.964,0,0,1,1.628,2.19,6.788,6.788,0,0,1,.17,3.7,7.658,7.658,0,0,1-1.554,3.606,9.8,9.8,0,0,1-2.55,2.235,10.081,10.081,0,0,1-2.63,1.142,8.269,8.269,0,0,1-1.8.319H376.345a1.133,1.133,0,0,0-.855,1.875l10,11.519a1.131,1.131,0,0,0,.855.39h17.863a1.132,1.132,0,0,1,1.086.814l5.923,20.189a1.132,1.132,0,0,0,1.087.812h14.864a1.131,1.131,0,0,0,1.085-1.453l-6.273-21.2a1.131,1.131,0,0,1,.661-1.364,29.386,29.386,0,0,0,4.02-2.087,23.323,23.323,0,0,0,4.718-3.88,24.351,24.351,0,0,0,3.864-5.522,25.554,25.554,0,0,0,2.408-7.394q1.131-6.389-.44-10.453" transform="translate(-19.523 -26.105)" style="fill:#838182"/><path d="M210.25,26.133,224,26.187a.76.76,0,0,1,.731.957l-9.282,34.672a.76.76,0,0,0,.731.956l4.552.018a.761.761,0,0,1,.709,1.028l-9.348,24.87a.761.761,0,0,0,.709,1.028l1.45.005a.761.761,0,0,1,.682,1.091L202.255,117.1a.76.76,0,0,1-1.434-.457l2.938-17.4a.761.761,0,0,0-.747-.887l-3.619-.014a.761.761,0,0,1-.736-.94l6.862-28.191a.76.76,0,0,0-.736-.94l-4.134-.016a.76.76,0,0,1-.737-.935l9.595-40.6a.761.761,0,0,1,.743-.586" transform="translate(-19.523 -26.105)" style="fill:#ef3838"/></svg>