<svg id="ART" xmlns="http://www.w3.org/2000/svg" viewBox="0 0 432 432"><defs><style>.cls-1{fill:#231f20;}</style></defs><title>NAVIGREAT_STACKED_BLK</title><path class="cls-1" d="M56.16,261.64H54.82a2.74,2.74,0,0,0-2.7,2.71v35l-29.21-38a.84.84,0,0,0-.65-.32H20.62a2.75,2.75,0,0,0-2.84,2.71v45.78a2.74,2.74,0,0,0,2.7,2.71h1.28a2.74,2.74,0,0,0,2.7-2.71V274.14c29.28,38.7,29.43,38.7,30.63,38.7H56a2.76,2.76,0,0,0,2.91-2.71V264.35A2.74,2.74,0,0,0,56.16,261.64Z"/><path class="cls-1" d="M90,262.16l0,0a2.65,2.65,0,0,0-2.51-1.48h-.2a2.77,2.77,0,0,0-2.48,1.56L64.15,308.89a2.31,2.31,0,0,0,2.19,3.28h1.87a3,3,0,0,0,2.62-1.71l4.87-11.21H98.88l5,11.3a2.93,2.93,0,0,0,2.58,1.62h1.74a2.46,2.46,0,0,0,2.09-1,2.5,2.5,0,0,0,.19-2.41ZM96.17,293H78.5l8.91-20.64Z"/><path class="cls-1" d="M147.93,261.64h-1.74a2.54,2.54,0,0,0-2.41,1.57l-16.66,37.88-16.41-37.72a2.61,2.61,0,0,0-2.47-1.73h-1.81a2.41,2.41,0,0,0-2.15,1.1,2.44,2.44,0,0,0-.06,2.36L124.37,311a2.7,2.7,0,0,0,2.48,1.86h.33a2.67,2.67,0,0,0,2.48-1.69l20.51-45.92a2.44,2.44,0,0,0,0-2.44A2.48,2.48,0,0,0,147.93,261.64Z"/><path class="cls-1" d="M161.18,261.64h-1.47a2.74,2.74,0,0,0-2.7,2.71v45.11a2.74,2.74,0,0,0,2.7,2.71h1.41a2.71,2.71,0,0,0,2.77-2.71V264.35A2.74,2.74,0,0,0,161.18,261.64Z"/><path class="cls-1" d="M217.82,282.43H197.7a1.49,1.49,0,0,0-1.47,1.47v7.24a1.5,1.5,0,0,0,1.47,1.47h9.51a.65.65,0,0,1,.61.61v.19a2.2,2.2,0,0,1-.36,1,12.37,12.37,0,0,1-9.88,5,13,13,0,0,1,0-26,13.11,13.11,0,0,1,9.26,3.8,1.71,1.71,0,0,0,2.27.25l7.55-5.09a1.38,1.38,0,0,0,.24-2,25.77,25.77,0,0,0-19.32-8.84c-13.86,0-25.39,11.17-25.39,24.84s11.53,24.84,25.39,24.84c4.42,0,8.83-1.53,11.35-4.41a.41.41,0,0,1,.73.24v1.78a1.49,1.49,0,0,0,1.48,1.47h6.68a1.49,1.49,0,0,0,1.47-1.47v-25A1.49,1.49,0,0,0,217.82,282.43Z"/><path class="cls-1" d="M258.06,296.9a1.06,1.06,0,0,1,.37-1.59c5.7-3.13,8.34-9,8.34-15.34,0-9.5-5.65-17.48-17.91-17.48H227a1.49,1.49,0,0,0-1.47,1.48v44.89a1.49,1.49,0,0,0,1.47,1.47h9.26a1.49,1.49,0,0,0,1.47-1.47V298.74a1.24,1.24,0,0,1,1.23-1.23h3.8a2.47,2.47,0,0,1,2,1l7.48,10.61a3,3,0,0,0,2.33,1.22h11.71a.76.76,0,0,0,.62-1.22Zm-9.88-10.49h-9.26a1.23,1.23,0,0,1-1.23-1.22V274.88a1.23,1.23,0,0,1,1.23-1.22h9.26c4.91,0,6.75,2.76,6.75,6.44C254.93,283.41,253.09,286.41,248.18,286.41Z"/><path class="cls-1" d="M307.74,262.49H274a1.5,1.5,0,0,0-1.48,1.48v44.89a1.49,1.49,0,0,0,1.48,1.47h33.79a1.49,1.49,0,0,0,1.47-1.47V300a1.49,1.49,0,0,0-1.47-1.47H286a1.24,1.24,0,0,1-1.23-1.23v-3.68a1.23,1.23,0,0,1,1.23-1.23h17.42a1.49,1.49,0,0,0,1.47-1.47v-8.16a1.5,1.5,0,0,0-1.47-1.47H286a1.23,1.23,0,0,1-1.23-1.23v-4.41a1.23,1.23,0,0,1,1.23-1.23h21.77a1.49,1.49,0,0,0,1.47-1.47V264A1.49,1.49,0,0,0,307.74,262.49Z"/><path class="cls-1" d="M396.31,262.49H357.18a1.49,1.49,0,0,0-1.47,1.48v8.95a1.49,1.49,0,0,0,1.47,1.47h12.2a1.23,1.23,0,0,1,1.23,1.23v33.24a1.49,1.49,0,0,0,1.47,1.47h9.32a1.49,1.49,0,0,0,1.48-1.47V275.62a1.23,1.23,0,0,1,1.22-1.23h12.21a1.49,1.49,0,0,0,1.47-1.47V264A1.49,1.49,0,0,0,396.31,262.49Z"/><path class="cls-1" d="M344.65,263.84a2.24,2.24,0,0,0-2-1.35h-9.2a2.22,2.22,0,0,0-2,1.35L313.12,309a1,1,0,0,0,.92,1.35h10.43a2.13,2.13,0,0,0,2-1.35l1.72-4.47a1.78,1.78,0,0,1,1.65-1.17h16.38a1.8,1.8,0,0,1,1.66,1.17l1.71,4.47a2.14,2.14,0,0,0,2,1.35h10.42a1,1,0,0,0,.92-1.35ZM342,292.24h-8a.86.86,0,0,1-.79-1.17l4.41-11.71a.45.45,0,0,1,.86,0l4.36,11.71A.87.87,0,0,1,342,292.24Z"/><polygon class="cls-1" points="122.68 343.47 111.27 326.32 111.22 326.24 109.1 326.24 109.1 347.63 111.27 347.63 111.27 330.21 122.87 347.63 124.86 347.63 124.86 326.24 122.68 326.24 122.68 343.47"/><polygon class="cls-1" points="70.84 347.63 73.02 347.63 73.02 337.67 81.22 337.67 81.22 335.55 73.02 335.55 73.02 328.37 83.34 328.37 83.34 326.24 70.84 326.24 70.84 347.63"/><rect class="cls-1" x="94.23" y="326.24" width="2.18" height="21.39"/><polygon class="cls-1" points="139.71 337.67 148.35 337.67 148.35 335.55 139.71 335.55 139.71 328.37 150.31 328.37 150.31 326.24 137.54 326.24 137.54 347.63 150.81 347.63 150.81 345.51 139.71 345.51 139.71 337.67"/><polygon class="cls-1" points="177.91 347.63 180.09 347.63 180.09 337.67 188.29 337.67 188.29 335.55 180.09 335.55 180.09 328.37 190.41 328.37 190.41 326.24 177.91 326.24 177.91 347.63"/><path class="cls-1" d="M209.88,326.08a10.45,10.45,0,0,0-10.35,10.76v.22a10.47,10.47,0,0,0,10.41,10.74A10.58,10.58,0,0,0,220.23,337v-.22A10.41,10.41,0,0,0,209.88,326.08Zm0,2.12c4.66,0,8.17,3.68,8.17,8.56V337c0,5-3.49,8.7-8.11,8.7s-8.23-3.71-8.23-8.62v-.22C201.71,331.91,205.22,328.2,209.88,328.2Z"/><path class="cls-1" d="M240.87,326.08a10.45,10.45,0,0,0-10.35,10.76v.22a10.47,10.47,0,0,0,10.41,10.74A10.58,10.58,0,0,0,251.22,337v-.22A10.4,10.4,0,0,0,240.87,326.08ZM249,336.76V337c0,5-3.48,8.7-8.11,8.7s-8.23-3.71-8.23-8.62v-.22c0-4.93,3.51-8.64,8.17-8.64S249,331.88,249,336.76Z"/><path class="cls-1" d="M268.57,326.24h-5.83v21.39h5.77C275,347.63,279,343.55,279,337v-.22C279,330.37,274.92,326.24,268.57,326.24Zm8.28,10.52V337c0,5.34-3.14,8.53-8.4,8.53h-3.53V328.36h3.51C273.7,328.36,276.85,331.5,276.85,336.76Z"/><path class="cls-1" d="M321.66,340.53c-.68,3.18-3.31,5.15-6.84,5.15-4.71,0-7.76-3.4-7.76-8.65v-.22c0-4.91,3.33-8.61,7.73-8.61,3.54,0,5.87,1.67,6.57,4.71l.15.64h2.2l-.21-1c-.86-4-4.19-6.48-8.71-6.48-5.55,0-9.9,4.73-9.9,10.76v.22c0,6.42,4,10.74,9.93,10.74,4.6,0,8.12-2.72,8.95-6.93l.2-1H321.8Z"/><path class="cls-1" d="M341.47,326.78a7.83,7.83,0,0,0-7.7,8.11v.22a7.66,7.66,0,1,0,15.29,0v-.23C349.06,330.26,345.8,326.78,341.47,326.78Zm5.44,8.08v.23c0,4-2.76,6-5.5,6-3.13,0-5.49-2.59-5.49-6v-.22c0-3.95,2.79-6,5.55-6S346.91,330.75,346.91,334.86Z"/><rect class="cls-1" x="334.49" y="345.78" width="13.98" height="2.05"/><path class="cls-1" d="M268.57,125v10.84a4.11,4.11,0,0,0,.44,1.86,66.36,66.36,0,1,1-59-36.61,4.21,4.21,0,0,0,2.94-1.16l4.62-4.49a1.06,1.06,0,0,0-.64-1.81,74.17,74.17,0,0,0-21.84,146.53,75.65,75.65,0,0,0,13.65,1.46,74.18,74.18,0,0,0,61.44-117.12A.87.87,0,0,0,268.57,125Z"/><path class="cls-1" d="M241.22,111.29a1.08,1.08,0,0,0-1.49,0l-5.08,4.88-.84.84v88.42a.61.61,0,0,1-.61.61.6.6,0,0,1-.48-.23l-38.4-74.39-.26-.51a14.06,14.06,0,0,0-26.26,7l0,.68v61.46a6.72,6.72,0,1,0,13.44,0V138.48l0-.63a.61.61,0,0,1,.61-.56.59.59,0,0,1,.47.21l38.42,74.44.28.53a14.06,14.06,0,0,0,26.23-7V117.09l-1-1Z"/><path class="cls-1" d="M262.56,106.26a1.09,1.09,0,0,0-.41-.69l-21-21.1a1,1,0,0,0-1.42,0l-21,21a1,1,0,0,0-.29.71v13a1,1,0,0,0,1.71.71l19.63-19.49a1.08,1.08,0,0,1,1.49,0l19.63,19.39a1,1,0,0,0,1.71-.73Z"/><path class="cls-1" d="M403.64,268.46a5.58,5.58,0,1,1,5.58,5.58A5.59,5.59,0,0,1,403.64,268.46Zm.73,0a4.85,4.85,0,1,0,4.85-4.84A4.84,4.84,0,0,0,404.37,268.46Zm7.1,2.25a.21.21,0,0,1-.19.32h0a.6.6,0,0,1-.55-.32l-.78-1.31a.63.63,0,0,0-.49-.27h-1.19a.32.32,0,0,0-.32.32v1.26a.31.31,0,0,1-.32.32h0a.31.31,0,0,1-.32-.32v-4.66a.41.41,0,0,1,.41-.41h2.07a1.71,1.71,0,0,1,1.84,1.74,1.69,1.69,0,0,1-.78,1.47.28.28,0,0,0-.12.44Zm-1.79-4.38h-1.45a.32.32,0,0,0-.32.32v1.47a.32.32,0,0,0,.32.32h1.45a1.06,1.06,0,1,0,0-2.11Z"/></svg>