<svg id="ART" xmlns="http://www.w3.org/2000/svg" viewBox="0 0 397.02 263.656"><title>NAVIGREAT_STACKED_BLK</title><path d="M41.932,182.64h-1.34a2.74,2.74,0,0,0-2.7,2.71v35l-29.21-38a.841.841,0,0,0-.65-.32H6.392a2.75,2.75,0,0,0-2.839,2.658V230.52a2.74,2.74,0,0,0,2.7,2.71h1.28a2.74,2.74,0,0,0,2.7-2.71V195.14c29.28,38.7,29.43,38.7,30.63,38.7h.91a2.76,2.76,0,0,0,2.906-2.606c0-.034,0-.069,0-.1V185.35A2.739,2.739,0,0,0,41.932,182.64Z" transform="translate(-3.552 -5.174)" style="fill:#231f20"/><path d="M75.772,183.16h0a2.651,2.651,0,0,0-2.51-1.48h-.2a2.771,2.771,0,0,0-2.48,1.56l-20.66,46.65a2.31,2.31,0,0,0,2.19,3.28h1.87a3,3,0,0,0,2.62-1.71l4.87-11.21h23.18l5,11.3a2.93,2.93,0,0,0,2.58,1.62h1.74a2.46,2.46,0,0,0,2.09-1,2.5,2.5,0,0,0,.19-2.41ZM81.942,214H64.272l8.91-20.64Z" transform="translate(-3.552 -5.174)" style="fill:#231f20"/><path d="M133.7,182.64h-1.74a2.539,2.539,0,0,0-2.41,1.57l-16.66,37.88-16.41-37.72a2.61,2.61,0,0,0-2.47-1.73H92.2a2.41,2.41,0,0,0-2.15,1.1,2.442,2.442,0,0,0-.06,2.36l20.15,45.9a2.7,2.7,0,0,0,2.48,1.86h.33a2.67,2.67,0,0,0,2.48-1.69l20.51-45.92a2.439,2.439,0,0,0,0-2.44A2.48,2.48,0,0,0,133.7,182.64Z" transform="translate(-3.552 -5.174)" style="fill:#231f20"/><path d="M146.952,182.64h-1.47a2.74,2.74,0,0,0-2.7,2.71v45.11a2.74,2.74,0,0,0,2.7,2.71h1.41a2.711,2.711,0,0,0,2.77-2.649V185.35A2.74,2.74,0,0,0,146.952,182.64Z" transform="translate(-3.552 -5.174)" style="fill:#231f20"/><path d="M203.592,203.43h-20.12A1.491,1.491,0,0,0,182,204.9v7.24a1.5,1.5,0,0,0,1.47,1.47h9.51a.65.65,0,0,1,.61.61v.19a2.193,2.193,0,0,1-.36,1,12.369,12.369,0,0,1-9.88,5,13,13,0,1,1,9.26-22.2,1.711,1.711,0,0,0,2.27.25l7.55-5.09a1.379,1.379,0,0,0,.3-1.929c-.018-.024-.036-.048-.056-.071a25.768,25.768,0,0,0-19.32-8.84c-13.86,0-25.39,11.17-25.39,24.84s11.53,24.84,25.39,24.84c4.42,0,8.83-1.53,11.35-4.41a.41.41,0,0,1,.73.24v1.78a1.49,1.49,0,0,0,1.48,1.47h6.68a1.49,1.49,0,0,0,1.47-1.47v-25A1.49,1.49,0,0,0,203.592,203.43Z" transform="translate(-3.552 -5.174)" style="fill:#231f20"/><path d="M243.832,217.9a1.06,1.06,0,0,1,.2-1.485,1.124,1.124,0,0,1,.168-.1c5.7-3.13,8.34-9,8.34-15.34,0-9.5-5.65-17.48-17.91-17.48h-21.86a1.491,1.491,0,0,0-1.47,1.48v44.89a1.491,1.491,0,0,0,1.47,1.47h9.26a1.49,1.49,0,0,0,1.47-1.47V219.74a1.24,1.24,0,0,1,1.23-1.23h3.8a2.47,2.47,0,0,1,2,1l7.48,10.61a3,3,0,0,0,2.33,1.22h11.71a.76.76,0,0,0,.62-1.22Zm-9.88-10.49h-9.26a1.231,1.231,0,0,1-1.23-1.22V195.88a1.231,1.231,0,0,1,1.23-1.22h9.26c4.91,0,6.75,2.76,6.75,6.44C240.7,204.41,238.862,207.41,233.952,207.41Z" transform="translate(-3.552 -5.174)" style="fill:#231f20"/><path d="M293.512,183.49h-33.74a1.5,1.5,0,0,0-1.48,1.48v44.89a1.49,1.49,0,0,0,1.48,1.47h33.79a1.49,1.49,0,0,0,1.47-1.47V221a1.49,1.49,0,0,0-1.47-1.47h-21.79a1.24,1.24,0,0,1-1.23-1.23v-3.68a1.23,1.23,0,0,1,1.23-1.23h17.42a1.49,1.49,0,0,0,1.47-1.47v-8.16a1.5,1.5,0,0,0-1.47-1.47h-17.42a1.23,1.23,0,0,1-1.23-1.23h0v-4.41a1.23,1.23,0,0,1,1.23-1.23h21.77a1.49,1.49,0,0,0,1.47-1.47V185a1.49,1.49,0,0,0-1.47-1.51Z" transform="translate(-3.552 -5.174)" style="fill:#231f20"/><path d="M382.082,183.49h-39.13a1.491,1.491,0,0,0-1.47,1.48v8.95a1.491,1.491,0,0,0,1.47,1.47h12.2a1.23,1.23,0,0,1,1.23,1.23h0v33.24a1.491,1.491,0,0,0,1.47,1.47h9.32a1.489,1.489,0,0,0,1.48-1.47V196.62a1.23,1.23,0,0,1,1.22-1.23h12.21a1.49,1.49,0,0,0,1.47-1.47V185a1.49,1.49,0,0,0-1.469-1.51Z" transform="translate(-3.552 -5.174)" style="fill:#231f20"/><path d="M330.422,184.84a2.24,2.24,0,0,0-2-1.35h-9.2a2.221,2.221,0,0,0-2,1.35L298.892,230a1,1,0,0,0,.92,1.35h10.43a2.13,2.13,0,0,0,2-1.35l1.72-4.47a1.781,1.781,0,0,1,1.65-1.17h16.38a1.8,1.8,0,0,1,1.66,1.17l1.71,4.47a2.139,2.139,0,0,0,2,1.35h10.42a1,1,0,0,0,.983-1.017A.978.978,0,0,0,348.7,230Zm-2.65,28.4h-8a.859.859,0,0,1-.79-1.17l4.41-11.71a.45.45,0,0,1,.86,0l4.36,11.71a.87.87,0,0,1-.84,1.17Z" transform="translate(-3.552 -5.174)" style="fill:#231f20"/><polygon points="104.9 259.296 93.49 242.146 93.44 242.066 91.32 242.066 91.32 263.456 93.49 263.456 93.49 246.036 105.09 263.456 107.08 263.456 107.08 242.066 104.9 242.066 104.9 259.296" style="fill:#231f20"/><polygon points="53.06 263.456 55.24 263.456 55.24 253.496 63.44 253.496 63.44 251.376 55.24 251.376 55.24 244.196 65.56 244.196 65.56 242.066 53.06 242.066 53.06 263.456" style="fill:#231f20"/><rect x="76.45" y="242.066" width="2.18" height="21.39" style="fill:#231f20"/><polygon points="121.93 253.496 130.57 253.496 130.57 251.376 121.93 251.376 121.93 244.196 132.53 244.196 132.53 242.066 119.76 242.066 119.76 263.456 133.03 263.456 133.03 261.336 121.93 261.336 121.93 253.496" style="fill:#231f20"/><polygon points="160.13 263.456 162.31 263.456 162.31 253.496 170.51 253.496 170.51 251.376 162.31 251.376 162.31 244.196 172.63 244.196 172.63 242.066 160.13 242.066 160.13 263.456" style="fill:#231f20"/><path d="M195.652,247.08A10.45,10.45,0,0,0,185.3,257.625c0,.072,0,.143,0,.215v.22A10.471,10.471,0,0,0,195.5,268.8l.213,0A10.58,10.58,0,0,0,206,258v-.22a10.41,10.41,0,0,0-10.116-10.7C195.808,247.082,195.73,247.08,195.652,247.08Zm0,2.12c4.66,0,8.17,3.68,8.17,8.56V258c0,5-3.49,8.7-8.11,8.7a8.293,8.293,0,0,1-8.23-8.62v-.22c0-4.95,3.51-8.66,8.17-8.66Z" transform="translate(-3.552 -5.174)" style="fill:#231f20"/><path d="M226.642,247.08a10.45,10.45,0,0,0-10.354,10.545c0,.072,0,.143,0,.215v.22a10.471,10.471,0,0,0,10.2,10.737l.213,0a10.58,10.58,0,0,0,10.29-10.8v-.22a10.4,10.4,0,0,0-10.095-10.7C226.812,247.082,226.727,247.08,226.642,247.08Zm8.13,10.68V258c0,5-3.48,8.7-8.11,8.7a8.286,8.286,0,0,1-8.23-8.62v-.22c0-4.93,3.51-8.64,8.17-8.64S234.772,252.88,234.772,257.76Z" transform="translate(-3.552 -5.174)" style="fill:#231f20"/><path d="M254.342,247.24h-5.83v21.39h5.77c6.49,0,10.49-4.08,10.49-10.63v-.22C264.772,251.37,260.692,247.24,254.342,247.24Zm8.28,10.52V258c0,5.34-3.14,8.53-8.4,8.53h-3.53V249.36h3.51c5.27,0,8.42,3.14,8.42,8.4Z" transform="translate(-3.552 -5.174)" style="fill:#231f20"/><path d="M307.432,261.53c-.68,3.18-3.31,5.15-6.84,5.15-4.71,0-7.76-3.4-7.76-8.65v-.22c0-4.91,3.33-8.61,7.73-8.61,3.54,0,5.87,1.67,6.57,4.71l.15.64h2.2l-.21-1c-.86-4-4.19-6.48-8.71-6.48-5.55,0-9.9,4.73-9.9,10.76v.22c0,6.42,4,10.74,9.93,10.74,4.6,0,8.12-2.72,8.95-6.93l.2-1h-2.17Z" transform="translate(-3.552 -5.174)" style="fill:#231f20"/><path d="M327.242,247.78a7.83,7.83,0,0,0-7.7,7.954c0,.052,0,.1,0,.156v.22a7.66,7.66,0,1,0,15.29,0v-.23C334.832,251.26,331.572,247.78,327.242,247.78Zm5.44,8.08v.23c0,4-2.76,6-5.5,6-3.13,0-5.49-2.59-5.49-6v-.22c0-3.95,2.79-6,5.55-6S332.682,251.75,332.682,255.86Z" transform="translate(-3.552 -5.174)" style="fill:#231f20"/><rect x="316.71" y="261.606" width="13.98" height="2.05" style="fill:#231f20"/><path d="M254.342,46V56.84a4.115,4.115,0,0,0,.44,1.86,66.36,66.36,0,1,1-59-36.61,4.207,4.207,0,0,0,2.94-1.16l4.62-4.49a1.06,1.06,0,0,0-.64-1.81,74.17,74.17,0,0,0-21.84,146.53,75.688,75.688,0,0,0,13.65,1.46A74.18,74.18,0,0,0,255.952,45.5a.87.87,0,0,0-1.61.5Z" transform="translate(-3.552 -5.174)" style="fill:#231f20"/><path d="M226.992,32.29a1.081,1.081,0,0,0-1.49,0l-5.08,4.88-.84.84v88.42a.61.61,0,0,1-.61.61h0a.6.6,0,0,1-.48-.23l-38.4-74.39-.26-.51a14.06,14.06,0,0,0-26.26,7v62.14a6.72,6.72,0,0,0,13.44,0V58.85a.61.61,0,0,1,.61-.56.589.589,0,0,1,.47.21l38.42,74.44.28.53a14.06,14.06,0,0,0,26.23-7V38.09l-1-1Z" transform="translate(-3.552 -5.174)" style="fill:#231f20"/><path d="M248.332,27.26a1.086,1.086,0,0,0-.41-.69l-21-21.1a1,1,0,0,0-1.414-.006l-.006.006-21,21a1,1,0,0,0-.29.71v13a1,1,0,0,0,1.71.71l19.63-19.49a1.081,1.081,0,0,1,1.49,0l19.63,19.39a1,1,0,0,0,1.71-.73Z" transform="translate(-3.552 -5.174)" style="fill:#231f20"/><path d="M389.412,189.46a5.58,5.58,0,1,1,5.58,5.58h0A5.591,5.591,0,0,1,389.412,189.46Zm.73,0a4.85,4.85,0,1,0,4.86-4.84h-.01a4.84,4.84,0,0,0-4.85,4.83v.01Zm7.1,2.25a.21.21,0,0,1-.068.289.218.218,0,0,1-.122.031h0a.6.6,0,0,1-.55-.32l-.78-1.31a.629.629,0,0,0-.49-.27h-1.19a.32.32,0,0,0-.32.32h0v1.26a.31.31,0,0,1-.3.32H393.4a.31.31,0,0,1-.32-.3v-4.68a.411.411,0,0,1,.41-.41h2.07a1.71,1.71,0,0,1,1.836,1.575c0,.055,0,.11,0,.165a1.69,1.69,0,0,1-.78,1.47.28.28,0,0,0-.166.36.3.3,0,0,0,.046.08Zm-1.79-4.38H394a.32.32,0,0,0-.32.32h0v1.47a.32.32,0,0,0,.32.32h1.45a1.06,1.06,0,1,0,.206-2.11,1.013,1.013,0,0,0-.206,0Z" transform="translate(-3.552 -5.174)" style="fill:#231f20"/></svg>