<svg id="Layer_1" data-name="Layer 1" xmlns="http://www.w3.org/2000/svg" viewBox="0 0 497.608 440.38"><title>robin-honey-pattern</title><polygon points="469.708 250.29 468.27 247.66 465.364 247.66 446.804 247.66 443.898 247.66 442.459 250.29 433.18 266.633 431.771 269.133 433.18 271.622 442.459 288.023 443.898 290.66 446.804 290.66 465.364 290.66 468.27 290.66 469.708 288.029 478.988 271.687 480.397 269.16 478.988 266.685 469.708 250.29" style="fill:#abdadb"/><polygon points="468.27 296.5 465.364 296.5 446.804 296.5 443.898 296.5 442.459 299.13 433.18 315.473 431.771 317.974 433.18 320.462 442.459 336.863 443.898 339.5 446.804 339.5 465.364 339.5 468.27 339.5 469.708 336.87 478.988 320.527 480.397 318 478.988 315.525 469.708 299.13 468.27 296.5" style="fill:#abdadb"/><polygon points="485.334 272.08 483.895 274.71 474.616 291.053 473.207 293.554 474.616 296.042 483.895 312.443 485.334 315.08 488.24 315.08 497.608 315.08 497.608 310.08 488.24 310.08 478.961 293.58 488.24 277.08 497.608 277.08 497.608 272.08 488.24 272.08 485.334 272.08" style="fill:#abdadb"/><polygon points="469.668 397.09 468.23 394.46 465.324 394.46 446.764 394.46 443.858 394.46 442.419 397.09 433.14 413.433 431.731 415.934 433.14 418.422 442.419 434.823 443.858 437.46 446.764 437.46 465.324 437.46 468.23 437.46 469.668 434.83 478.948 418.487 480.357 415.96 478.948 413.485 469.668 397.09" style="fill:#abdadb"/><polygon points="485.294 418.88 483.855 421.51 474.576 437.853 473.167 440.353 473.182 440.38 478.921 440.38 488.2 423.88 497.608 423.88 497.608 418.88 488.2 418.88 485.294 418.88" style="fill:#abdadb"/><polygon points="469.708 103.55 468.27 100.92 465.364 100.92 446.804 100.92 443.898 100.92 442.459 103.55 433.18 119.893 431.771 122.393 433.18 124.882 442.459 141.283 443.898 143.92 446.804 143.92 465.364 143.92 468.27 143.92 469.708 141.289 478.988 124.947 480.397 122.42 478.988 119.945 469.708 103.55" style="fill:#abdadb"/><polygon points="468.27 149.76 465.364 149.76 446.804 149.76 443.898 149.76 442.459 152.39 433.18 168.733 431.771 171.234 433.18 173.722 442.459 190.123 443.898 192.76 446.804 192.76 465.364 192.76 468.27 192.76 469.708 190.13 478.988 173.787 480.397 171.26 478.988 168.785 469.708 152.39 468.27 149.76" style="fill:#abdadb"/><polygon points="485.334 125.34 483.895 127.97 474.616 144.313 473.207 146.814 474.616 149.302 483.895 165.703 485.334 168.34 488.24 168.34 497.608 168.34 497.608 163.34 488.24 163.34 478.961 146.84 488.24 130.34 497.608 130.34 497.608 125.34 488.24 125.34 485.334 125.34" style="fill:#abdadb"/><polygon points="469.796 5.76 468.358 3.13 465.452 3.13 446.892 3.13 443.986 3.13 442.547 5.76 433.268 22.103 431.859 24.604 433.268 27.092 442.547 43.493 443.986 46.13 446.892 46.13 465.452 46.13 468.358 46.13 469.796 43.5 479.076 27.157 480.485 24.63 479.076 22.155 469.796 5.76" style="fill:#abdadb"/><polygon points="479.049 0.21 479.167 0 473.398 0 473.295 0.184 474.704 2.672 483.983 19.073 485.422 21.71 488.328 21.71 497.608 21.71 497.608 16.71 488.328 16.71 479.049 0.21" style="fill:#abdadb"/><polygon points="220.796 288.029 219.358 290.66 216.452 290.66 197.892 290.66 194.986 290.66 193.547 288.023 184.268 271.622 182.876 269.164 182.859 269.194 184.268 271.682 193.547 288.083 194.986 290.72 197.892 290.72 216.452 290.72 219.358 290.72 220.796 288.09 230.076 271.747 231.485 269.22 231.468 269.19 230.076 271.687 220.796 288.029" style="fill:#abdadb"/><polygon points="220.796 336.87 219.358 339.5 216.452 339.5 197.892 339.5 194.986 339.5 193.547 336.863 184.268 320.462 182.876 318.003 182.859 318.034 184.268 320.522 193.547 336.923 194.986 339.56 197.892 339.56 216.452 339.56 219.358 339.56 220.796 336.93 230.076 320.587 231.485 318.06 231.468 318.03 230.076 320.527 220.796 336.87" style="fill:#abdadb"/><polygon points="272.921 293.64 272.904 293.61 271.512 296.107 262.232 312.45 260.794 315.08 257.888 315.08 239.328 315.08 236.422 315.08 234.983 312.443 225.704 296.042 224.312 293.583 224.295 293.613 225.704 296.102 234.983 312.503 236.422 315.14 239.328 315.14 257.888 315.14 260.794 315.14 262.232 312.509 271.512 296.167 272.921 293.64" style="fill:#abdadb"/><polygon points="257.888 277.14 267.15 293.61 267.167 293.58 257.888 277.08 239.328 277.08 230.049 293.58 230.066 293.61 239.328 277.14 257.888 277.14" style="fill:#abdadb"/><polygon points="267.14 271.682 276.419 288.083 277.858 290.72 280.764 290.72 299.324 290.72 302.23 290.72 303.668 288.09 312.948 271.747 314.357 269.22 314.34 269.19 312.948 271.687 303.668 288.029 302.23 290.66 299.324 290.66 280.764 290.66 277.858 290.66 276.419 288.023 267.14 271.622 265.748 269.164 265.731 269.194 267.14 271.682" style="fill:#abdadb"/><polygon points="267.14 320.522 276.419 336.923 277.858 339.56 280.764 339.56 299.324 339.56 302.23 339.56 303.668 336.93 312.948 320.587 314.357 318.06 314.34 318.03 312.948 320.527 303.668 336.87 302.23 339.5 299.324 339.5 280.764 339.5 277.858 339.5 276.419 336.863 267.14 320.462 265.748 318.003 265.731 318.034 267.14 320.522" style="fill:#abdadb"/><polygon points="96.488 323.77 95.05 321.14 92.144 321.14 73.584 321.14 70.678 321.14 69.24 323.77 59.96 340.113 58.551 342.613 59.96 345.102 69.24 361.503 70.678 364.14 73.584 364.14 92.144 364.14 95.05 364.14 96.488 361.509 105.768 345.167 107.177 342.64 105.768 340.165 96.488 323.77" style="fill:#abdadb"/><polygon points="96.488 372.61 95.05 369.98 92.144 369.98 73.584 369.98 70.678 369.98 69.24 372.61 59.96 388.953 58.551 391.454 59.96 393.942 69.24 410.343 70.678 412.98 73.584 412.98 92.144 412.98 95.05 412.98 96.488 410.35 105.768 394.007 107.177 391.48 105.768 389.005 96.488 372.61" style="fill:#abdadb"/><path d="M149.613,367.06l-1.409-2.475-9.28-16.395-1.438-2.63H113.114l-1.439,2.63L102.4,364.533l-1.409,2.5,1.409,2.488,9.279,16.4,1.439,2.637h24.372l1.438-2.63,9.28-16.343Zm-15.033,16.5H116.02l-9.279-16.5,9.279-16.5h18.56l9.279,16.5Z" transform="translate(-1)" style="fill:#abdadb"/><polygon points="175.016 321.14 156.456 321.14 153.55 321.14 152.111 323.77 142.832 340.113 141.423 342.613 142.832 345.102 152.111 361.503 153.55 364.14 156.456 364.14 175.016 364.14 177.922 364.14 179.36 361.509 188.64 345.167 190.049 342.64 188.64 340.165 179.36 323.77 177.922 321.14 175.016 321.14" style="fill:#abdadb"/><polygon points="190.049 391.48 188.64 389.005 179.36 372.61 177.922 369.98 175.016 369.98 156.456 369.98 153.55 369.98 152.111 372.61 142.832 388.953 141.423 391.454 142.832 393.942 152.111 410.343 153.55 412.98 156.456 412.98 175.016 412.98 177.922 412.98 179.36 410.35 188.64 394.007 190.049 391.48" style="fill:#abdadb"/><polygon points="58.599 195.873 60.008 198.362 69.287 214.763 70.726 217.4 73.632 217.4 92.192 217.4 95.098 217.4 96.536 214.769 105.816 198.427 107.225 195.9 105.816 193.425 96.536 177.03 95.098 174.4 92.192 174.4 73.632 174.4 70.726 174.4 69.287 177.03 60.008 193.373 58.599 195.873" style="fill:#abdadb"/><polygon points="105.816 242.265 96.536 225.87 95.098 223.24 92.192 223.24 73.632 223.24 70.726 223.24 69.287 225.87 60.008 242.213 58.599 244.714 60.008 247.202 69.287 263.603 70.726 266.24 73.632 266.24 92.192 266.24 95.098 266.24 96.536 263.61 105.816 247.267 107.225 244.74 105.816 242.265" style="fill:#abdadb"/><path d="M113.162,241.82h24.372l1.438-2.63,9.28-16.343,1.409-2.527-1.409-2.475-9.28-16.4-1.438-2.63H113.162l-1.438,2.63-9.28,16.343-1.409,2.5,1.409,2.488,9.28,16.4Zm2.906-38h18.56l9.279,16.5-9.279,16.5h-18.56l-9.279-16.5Z" transform="translate(-1)" style="fill:#abdadb"/><polygon points="142.88 198.362 152.159 214.763 153.598 217.4 156.504 217.4 175.064 217.4 177.97 217.4 179.409 214.769 188.688 198.427 190.097 195.9 188.688 193.425 179.409 177.03 177.97 174.4 175.064 174.4 156.504 174.4 153.598 174.4 152.159 177.03 142.88 193.373 141.471 195.873 142.88 198.362" style="fill:#abdadb"/><polygon points="190.097 244.74 188.688 242.265 179.409 225.87 177.97 223.24 175.064 223.24 156.504 223.24 153.598 223.24 152.159 225.87 142.88 242.213 141.471 244.714 142.88 247.202 152.159 263.603 153.598 266.24 156.504 266.24 175.064 266.24 177.97 266.24 179.409 263.61 188.688 247.267 190.097 244.74" style="fill:#abdadb"/><polygon points="12.098 315.08 13.536 312.45 22.816 296.107 24.225 293.58 22.816 291.105 13.536 274.71 12.098 272.08 9.192 272.08 0 272.08 0 277.08 9.192 277.08 18.471 293.58 9.192 310.08 0 310.08 0 315.08 9.192 315.08 12.098 315.08" style="fill:#abdadb"/><polygon points="29.162 290.66 32.068 290.66 50.628 290.66 53.534 290.66 54.972 288.029 64.252 271.687 65.661 269.16 64.252 266.685 54.972 250.29 53.534 247.66 50.628 247.66 32.068 247.66 29.162 247.66 27.724 250.29 18.444 266.633 17.035 269.133 18.444 271.622 27.724 288.023 29.162 290.66" style="fill:#abdadb"/><polygon points="27.724 336.863 29.162 339.5 32.068 339.5 50.628 339.5 53.534 339.5 54.972 336.87 64.252 320.527 65.661 318 64.252 315.525 54.972 299.13 53.534 296.5 50.628 296.5 32.068 296.5 29.162 296.5 27.724 299.13 18.444 315.473 17.035 317.974 18.444 320.462 27.724 336.863" style="fill:#abdadb"/><polygon points="230.076 266.685 220.796 250.29 219.358 247.66 216.452 247.66 197.892 247.66 194.986 247.66 193.547 250.29 184.268 266.633 182.859 269.133 182.876 269.164 184.268 266.693 193.547 250.35 194.986 247.72 197.892 247.72 216.452 247.72 219.358 247.72 220.796 250.35 230.076 266.745 231.468 269.19 231.485 269.16 230.076 266.685" style="fill:#abdadb"/><polygon points="220.796 250.35 219.358 247.72 216.452 247.72 197.892 247.72 194.986 247.72 193.547 250.35 184.268 266.693 182.876 269.164 184.268 271.622 193.547 288.023 194.986 290.66 197.892 290.66 216.452 290.66 219.358 290.66 220.796 288.029 230.076 271.687 231.468 269.19 230.076 266.745 220.796 250.35" style="fill:#abdadb"/><polygon points="230.076 315.525 220.796 299.13 219.358 296.5 216.452 296.5 197.892 296.5 194.986 296.5 193.547 299.13 184.268 315.473 182.859 317.974 182.876 318.003 184.268 315.533 193.547 299.19 194.986 296.56 197.892 296.56 216.452 296.56 219.358 296.56 220.796 299.19 230.076 315.585 231.468 318.03 231.485 318 230.076 315.525" style="fill:#abdadb"/><polygon points="220.796 299.19 219.358 296.56 216.452 296.56 197.892 296.56 194.986 296.56 193.547 299.19 184.268 315.533 182.876 318.003 184.268 320.462 193.547 336.863 194.986 339.5 197.892 339.5 216.452 339.5 219.358 339.5 220.796 336.87 230.076 320.527 231.468 318.03 230.076 315.585 220.796 299.19" style="fill:#abdadb"/><polygon points="239.328 310.14 257.888 310.14 267.167 293.64 267.15 293.61 257.888 310.08 239.328 310.08 230.066 293.61 230.049 293.64 239.328 310.14" style="fill:#abdadb"/><polygon points="234.983 274.77 236.422 272.14 239.328 272.14 257.888 272.14 260.794 272.14 262.232 274.77 271.512 291.165 272.904 293.61 272.921 293.58 271.512 291.105 262.232 274.71 260.794 272.08 257.888 272.08 239.328 272.08 236.422 272.08 234.983 274.71 225.704 291.053 224.295 293.554 224.312 293.583 225.704 291.113 234.983 274.77" style="fill:#abdadb"/><path d="M235.983,312.443l1.439,2.637h24.372l1.438-2.63,9.28-16.343,1.392-2.5-1.392-2.445-9.28-16.4-1.438-2.63H237.422l-1.439,2.63L226.7,291.113l-1.392,2.47,1.392,2.459Zm-4.934-18.863,9.279-16.5h18.56l9.279,16.5-.017.03.017.03-9.279,16.5h-18.56l-9.279-16.5.017-.03Z" transform="translate(-1)" style="fill:#abdadb"/><polygon points="276.419 250.35 277.858 247.72 280.764 247.72 299.324 247.72 302.23 247.72 303.668 250.35 312.948 266.745 314.34 269.19 314.357 269.16 312.948 266.685 303.668 250.29 302.23 247.66 299.324 247.66 280.764 247.66 277.858 247.66 276.419 250.29 267.14 266.633 265.731 269.133 265.748 269.164 267.14 266.693 276.419 250.35" style="fill:#abdadb"/><polygon points="276.419 288.023 277.858 290.66 280.764 290.66 299.324 290.66 302.23 290.66 303.668 288.029 312.948 271.687 314.34 269.19 312.948 266.745 303.668 250.35 302.23 247.72 299.324 247.72 280.764 247.72 277.858 247.72 276.419 250.35 267.14 266.693 265.748 269.164 267.14 271.622 276.419 288.023" style="fill:#abdadb"/><polygon points="276.419 299.19 277.858 296.56 280.764 296.56 299.324 296.56 302.23 296.56 303.668 299.19 312.948 315.585 314.34 318.03 314.357 318 312.948 315.525 303.668 299.13 302.23 296.5 299.324 296.5 280.764 296.5 277.858 296.5 276.419 299.13 267.14 315.473 265.731 317.974 265.748 318.003 267.14 315.533 276.419 299.19" style="fill:#abdadb"/><polygon points="276.419 336.863 277.858 339.5 280.764 339.5 299.324 339.5 302.23 339.5 303.668 336.87 312.948 320.527 314.34 318.03 312.948 315.585 303.668 299.19 302.23 296.56 299.324 296.56 280.764 296.56 277.858 296.56 276.419 299.19 267.14 315.533 265.748 318.003 267.14 320.462 276.419 336.863" style="fill:#abdadb"/><polygon points="307.247 195.824 308.656 198.312 317.935 214.713 319.374 217.35 322.28 217.35 340.84 217.35 343.746 217.35 345.184 214.72 354.464 198.377 355.873 195.85 354.464 193.375 345.184 176.98 343.746 174.35 340.84 174.35 322.28 174.35 319.374 174.35 317.935 176.98 308.656 193.323 307.247 195.824" style="fill:#abdadb"/><polygon points="354.464 242.215 345.184 225.82 343.746 223.19 340.84 223.19 322.28 223.19 319.374 223.19 317.935 225.82 308.656 242.163 307.247 244.664 308.656 247.152 317.935 263.553 319.374 266.19 322.28 266.19 340.84 266.19 343.746 266.19 345.184 263.56 354.464 247.217 355.873 244.69 354.464 242.215" style="fill:#abdadb"/><path d="M361.81,241.77h24.372l1.438-2.63L396.9,222.8l1.409-2.527L396.9,217.8,387.62,201.4l-1.438-2.63H361.81l-1.439,2.63-9.279,16.343-1.409,2.5,1.409,2.488,9.279,16.4Zm2.906-38h18.56l9.279,16.5-9.279,16.5h-18.56l-9.279-16.5Z" transform="translate(-1)" style="fill:#abdadb"/><polygon points="437.336 193.375 428.056 176.98 426.618 174.35 423.712 174.35 405.152 174.35 402.246 174.35 400.807 176.98 391.528 193.323 390.119 195.824 391.528 198.312 400.807 214.713 402.246 217.35 405.152 217.35 423.712 217.35 426.618 217.35 428.056 214.72 437.336 198.377 438.745 195.85 437.336 193.375" style="fill:#abdadb"/><polygon points="438.745 244.69 437.336 242.215 428.056 225.82 426.618 223.19 423.712 223.19 405.152 223.19 402.246 223.19 400.807 225.82 391.528 242.163 390.119 244.664 391.528 247.152 400.807 263.553 402.246 266.19 405.152 266.19 423.712 266.19 426.618 266.19 428.056 263.56 437.336 247.217 438.745 244.69" style="fill:#abdadb"/><polygon points="307.295 49.084 308.704 51.572 317.983 67.973 319.422 70.61 322.328 70.61 340.888 70.61 343.794 70.61 345.232 67.98 354.512 51.637 355.921 49.11 354.512 46.635 345.232 30.24 343.794 27.61 340.888 27.61 322.328 27.61 319.422 27.61 317.983 30.24 308.704 46.583 307.295 49.084" style="fill:#abdadb"/><polygon points="322.328 119.45 340.888 119.45 343.794 119.45 345.232 116.82 354.512 100.477 355.921 97.95 354.512 95.475 345.232 79.08 343.794 76.45 340.888 76.45 322.328 76.45 319.422 76.45 317.983 79.08 308.704 95.423 307.295 97.924 308.704 100.412 317.983 116.813 319.422 119.45 322.328 119.45" style="fill:#abdadb"/><path d="M349.731,73.5l1.409,2.488,9.279,16.4,1.439,2.637H386.23l1.438-2.63,9.28-16.343,1.409-2.527-1.409-2.475-9.28-16.4-1.438-2.63H361.858l-1.439,2.63L351.14,71ZM364.764,57.03h18.56l9.279,16.5-9.279,16.5h-18.56l-9.279-16.5Z" transform="translate(-1)" style="fill:#abdadb"/><polygon points="400.855 67.973 402.294 70.61 405.2 70.61 423.76 70.61 426.666 70.61 428.104 67.98 437.384 51.637 438.793 49.11 437.384 46.635 428.104 30.24 426.666 27.61 423.76 27.61 405.2 27.61 402.294 27.61 400.855 30.24 391.576 46.583 390.167 49.084 391.576 51.572 400.855 67.973" style="fill:#abdadb"/><polygon points="438.793 97.95 437.384 95.475 428.104 79.08 426.666 76.45 423.76 76.45 405.2 76.45 402.294 76.45 400.855 79.08 391.576 95.423 390.167 97.924 391.576 100.412 400.855 116.813 402.294 119.45 405.2 119.45 423.76 119.45 426.666 119.45 428.104 116.82 437.384 100.477 438.793 97.95" style="fill:#abdadb"/><polygon points="230.076 119.895 220.796 103.5 219.358 100.87 216.452 100.87 197.892 100.87 194.986 100.87 193.547 103.5 184.268 119.843 182.859 122.343 182.89 122.398 184.268 119.953 193.547 103.61 194.986 100.98 197.892 100.98 216.452 100.98 219.358 100.98 220.796 103.61 230.076 120.005 231.454 122.425 231.485 122.37 230.076 119.895" style="fill:#abdadb"/><polygon points="230.076 168.735 220.796 152.34 219.358 149.71 216.452 149.71 197.892 149.71 194.986 149.71 193.547 152.34 184.268 168.683 182.859 171.184 182.89 171.238 184.268 168.793 193.547 152.45 194.986 149.82 197.892 149.82 216.452 149.82 219.358 149.82 220.796 152.45 230.076 168.845 231.454 171.266 231.485 171.21 230.076 168.735" style="fill:#abdadb"/><polygon points="239.328 163.29 230.08 146.845 230.049 146.9 239.328 163.4 257.888 163.4 267.167 146.9 267.136 146.845 257.888 163.29 239.328 163.29" style="fill:#abdadb"/><polygon points="224.295 146.764 224.326 146.819 225.704 144.373 234.983 128.03 236.422 125.4 239.328 125.4 257.888 125.4 260.794 125.4 262.232 128.03 271.512 144.425 272.89 146.846 272.921 146.79 271.512 144.315 262.232 127.92 260.794 125.29 257.888 125.29 239.328 125.29 236.422 125.29 234.983 127.92 225.704 144.263 224.295 146.764" style="fill:#abdadb"/><polygon points="276.419 103.61 277.858 100.98 280.764 100.98 299.324 100.98 302.23 100.98 303.668 103.61 312.948 120.005 314.326 122.425 314.357 122.37 312.948 119.895 303.668 103.5 302.23 100.87 299.324 100.87 280.764 100.87 277.858 100.87 276.419 103.5 267.14 119.843 265.731 122.343 265.762 122.398 267.14 119.953 276.419 103.61" style="fill:#abdadb"/><polygon points="276.419 152.45 277.858 149.82 280.764 149.82 299.324 149.82 302.23 149.82 303.668 152.45 312.948 168.845 314.326 171.266 314.357 171.21 312.948 168.735 303.668 152.34 302.23 149.71 299.324 149.71 280.764 149.71 277.858 149.71 276.419 152.34 267.14 168.683 265.731 171.184 265.762 171.238 267.14 168.793 276.419 152.45" style="fill:#abdadb"/><polygon points="220.796 141.239 219.358 143.87 216.452 143.87 197.892 143.87 194.986 143.87 193.547 141.233 184.268 124.832 182.89 122.398 182.859 122.454 184.268 124.942 193.547 141.343 194.986 143.98 197.892 143.98 216.452 143.98 219.358 143.98 220.796 141.35 230.076 125.007 231.485 122.48 231.454 122.425 230.076 124.897 220.796 141.239" style="fill:#abdadb"/><polygon points="220.796 103.61 219.358 100.98 216.452 100.98 197.892 100.98 194.986 100.98 193.547 103.61 184.268 119.953 182.89 122.398 184.268 124.832 193.547 141.233 194.986 143.87 197.892 143.87 216.452 143.87 219.358 143.87 220.796 141.239 230.076 124.897 231.454 122.425 230.076 120.005 220.796 103.61" style="fill:#abdadb"/><polygon points="220.796 190.08 219.358 192.71 216.452 192.71 197.892 192.71 194.986 192.71 193.547 190.073 184.268 173.672 182.89 171.238 182.859 171.294 184.268 173.782 193.547 190.183 194.986 192.82 197.892 192.82 216.452 192.82 219.358 192.82 220.796 190.19 230.076 173.847 231.485 171.32 231.454 171.266 230.076 173.737 220.796 190.08" style="fill:#abdadb"/><polygon points="220.796 152.45 219.358 149.82 216.452 149.82 197.892 149.82 194.986 149.82 193.547 152.45 184.268 168.793 182.89 171.238 184.268 173.672 193.547 190.073 194.986 192.71 197.892 192.71 216.452 192.71 219.358 192.71 220.796 190.08 230.076 173.737 231.454 171.266 230.076 168.845 220.796 152.45" style="fill:#abdadb"/><polygon points="257.888 130.29 239.328 130.29 230.049 146.79 230.08 146.845 239.328 130.4 257.888 130.4 267.136 146.845 267.167 146.79 257.888 130.29" style="fill:#abdadb"/><polygon points="262.232 165.66 260.794 168.29 257.888 168.29 239.328 168.29 236.422 168.29 234.983 165.653 225.704 149.252 224.326 146.819 224.295 146.873 225.704 149.362 234.983 165.763 236.422 168.4 239.328 168.4 257.888 168.4 260.794 168.4 262.232 165.769 271.512 149.427 272.921 146.9 272.89 146.846 271.512 149.317 262.232 165.66" style="fill:#abdadb"/><path d="M263.232,128.03l-1.438-2.63H237.422l-1.439,2.63L226.7,144.373l-1.378,2.446,1.378,2.433,9.279,16.4,1.439,2.637h24.372l1.438-2.63,9.28-16.343,1.378-2.471-1.378-2.421Zm4.935,18.87-9.279,16.5h-18.56l-9.279-16.5.031-.055-.031-.055,9.279-16.5h18.56l9.279,16.5-.031.055Z" transform="translate(-1)" style="fill:#abdadb"/><polygon points="267.14 124.942 276.419 141.343 277.858 143.98 280.764 143.98 299.324 143.98 302.23 143.98 303.668 141.35 312.948 125.007 314.357 122.48 314.326 122.425 312.948 124.897 303.668 141.239 302.23 143.87 299.324 143.87 280.764 143.87 277.858 143.87 276.419 141.233 267.14 124.832 265.762 122.398 265.731 122.454 267.14 124.942" style="fill:#abdadb"/><polygon points="276.419 141.233 277.858 143.87 280.764 143.87 299.324 143.87 302.23 143.87 303.668 141.239 312.948 124.897 314.326 122.425 312.948 120.005 303.668 103.61 302.23 100.98 299.324 100.98 280.764 100.98 277.858 100.98 276.419 103.61 267.14 119.953 265.762 122.398 267.14 124.832 276.419 141.233" style="fill:#abdadb"/><polygon points="267.14 173.782 276.419 190.183 277.858 192.82 280.764 192.82 299.324 192.82 302.23 192.82 303.668 190.19 312.948 173.847 314.357 171.32 314.326 171.266 312.948 173.737 303.668 190.08 302.23 192.71 299.324 192.71 280.764 192.71 277.858 192.71 276.419 190.073 267.14 173.672 265.762 171.238 265.731 171.294 267.14 173.782" style="fill:#abdadb"/><polygon points="276.419 190.073 277.858 192.71 280.764 192.71 299.324 192.71 302.23 192.71 303.668 190.08 312.948 173.737 314.326 171.266 312.948 168.845 303.668 152.45 302.23 149.82 299.324 149.82 280.764 149.82 277.858 149.82 276.419 152.45 267.14 168.793 265.762 171.238 267.14 173.672 276.419 190.073" style="fill:#abdadb"/><polygon points="193.547 43.283 194.986 45.92 197.892 45.92 216.452 45.92 219.358 45.92 220.796 43.29 230.076 26.947 231.485 24.42 230.076 21.945 220.796 5.55 219.358 2.92 216.452 2.92 197.892 2.92 194.986 2.92 193.547 5.55 184.268 21.893 182.859 24.394 184.268 26.882 193.547 43.283" style="fill:#abdadb"/><polygon points="234.983 18.863 236.422 21.5 239.328 21.5 257.888 21.5 260.794 21.5 262.232 18.87 271.512 2.527 272.921 0 267.167 0 257.888 16.5 239.328 16.5 230.049 0 224.31 0 225.704 2.462 234.983 18.863" style="fill:#abdadb"/><polygon points="276.419 43.283 277.858 45.92 280.764 45.92 299.324 45.92 302.23 45.92 303.668 43.29 312.948 26.947 314.357 24.42 312.948 21.945 303.668 5.55 302.23 2.92 299.324 2.92 280.764 2.92 277.858 2.92 276.419 5.55 267.14 21.893 265.731 24.394 267.14 26.882 276.419 43.283" style="fill:#abdadb"/><polygon points="220.796 397.09 219.358 394.46 216.452 394.46 197.892 394.46 194.986 394.46 193.547 397.09 184.268 413.433 182.859 415.934 184.268 418.422 193.547 434.823 194.986 437.46 197.892 437.46 216.452 437.46 219.358 437.46 220.796 434.83 230.076 418.487 231.485 415.96 230.076 413.485 220.796 397.09" style="fill:#abdadb"/><polygon points="262.232 421.51 260.794 418.88 257.888 418.88 239.328 418.88 236.422 418.88 234.983 421.51 225.704 437.853 224.295 440.353 224.31 440.38 230.049 440.38 239.328 423.88 257.888 423.88 267.167 440.38 272.921 440.38 271.512 437.905 262.232 421.51" style="fill:#abdadb"/><polygon points="303.668 397.09 302.23 394.46 299.324 394.46 280.764 394.46 277.858 394.46 276.419 397.09 267.14 413.433 265.731 415.934 267.14 418.422 276.419 434.823 277.858 437.46 280.764 437.46 299.324 437.46 302.23 437.46 303.668 434.83 312.948 418.487 314.357 415.96 312.948 413.485 303.668 397.09" style="fill:#abdadb"/><polygon points="317.935 361.393 319.374 364.03 322.28 364.03 340.84 364.03 343.746 364.03 345.184 361.4 354.464 345.057 355.873 342.53 354.464 340.055 345.184 323.66 343.746 321.03 340.84 321.03 322.28 321.03 319.374 321.03 317.935 323.66 308.656 340.003 307.247 342.504 308.656 344.992 317.935 361.393" style="fill:#abdadb"/><polygon points="345.184 372.5 343.746 369.87 340.84 369.87 322.28 369.87 319.374 369.87 317.935 372.5 308.656 388.843 307.247 391.343 308.656 393.832 317.935 410.233 319.374 412.87 322.28 412.87 340.84 412.87 343.746 412.87 345.184 410.239 354.464 393.897 355.873 391.37 354.464 388.895 345.184 372.5" style="fill:#abdadb"/><path d="M398.309,366.95l-1.409-2.475-9.28-16.4-1.438-2.63H361.81l-1.439,2.63-9.279,16.343-1.409,2.5,1.409,2.488,9.279,16.4,1.439,2.637h24.372l1.438-2.63,9.28-16.343Zm-15.033,16.5h-18.56l-9.279-16.5,9.279-16.5h18.56l9.279,16.5Z" transform="translate(-1)" style="fill:#abdadb"/><polygon points="423.712 321.03 405.152 321.03 402.246 321.03 400.807 323.66 391.528 340.003 390.119 342.504 391.528 344.992 400.807 361.393 402.246 364.03 405.152 364.03 423.712 364.03 426.618 364.03 428.056 361.4 437.336 345.057 438.745 342.53 437.336 340.055 428.056 323.66 426.618 321.03 423.712 321.03" style="fill:#abdadb"/><polygon points="438.745 391.37 437.336 388.895 428.056 372.5 426.618 369.87 423.712 369.87 405.152 369.87 402.246 369.87 400.807 372.5 391.528 388.843 390.119 391.343 391.528 393.832 400.807 410.233 402.246 412.87 405.152 412.87 423.712 412.87 426.618 412.87 428.056 410.239 437.336 393.897 438.745 391.37" style="fill:#abdadb"/><polygon points="13.497 421.51 12.058 418.88 9.152 418.88 0 418.88 0 423.88 9.152 423.88 18.431 440.38 24.185 440.38 22.776 437.905 13.497 421.51" style="fill:#abdadb"/><polygon points="54.932 397.09 53.494 394.46 50.588 394.46 32.028 394.46 29.122 394.46 27.683 397.09 18.404 413.433 16.995 415.934 18.404 418.422 27.683 434.823 29.122 437.46 32.028 437.46 50.588 437.46 53.494 437.46 54.932 434.83 64.212 418.487 65.621 415.96 64.212 413.485 54.932 397.09" style="fill:#abdadb"/><polygon points="58.599 49.134 60.008 51.622 69.287 68.023 70.726 70.66 73.632 70.66 92.192 70.66 95.098 70.66 96.536 68.03 105.816 51.687 107.225 49.16 105.816 46.685 96.536 30.29 95.098 27.66 92.192 27.66 73.632 27.66 70.726 27.66 69.287 30.29 60.008 46.633 58.599 49.134" style="fill:#abdadb"/><polygon points="73.632 119.5 92.192 119.5 95.098 119.5 96.536 116.87 105.816 100.527 107.225 98 105.816 95.525 96.536 79.13 95.098 76.5 92.192 76.5 73.632 76.5 70.726 76.5 69.287 79.13 60.008 95.473 58.599 97.974 60.008 100.462 69.287 116.863 70.726 119.5 73.632 119.5" style="fill:#abdadb"/><path d="M101.035,73.554l1.409,2.488,9.28,16.4,1.438,2.637h24.372l1.438-2.63,9.28-16.343,1.409-2.527-1.409-2.475-9.28-16.4-1.438-2.63H113.162l-1.438,2.63-9.28,16.343ZM116.068,57.08h18.56l9.279,16.5-9.279,16.5h-18.56l-9.279-16.5Z" transform="translate(-1)" style="fill:#abdadb"/><polygon points="152.159 68.023 153.598 70.66 156.504 70.66 175.064 70.66 177.97 70.66 179.409 68.03 188.688 51.687 190.097 49.16 188.688 46.685 179.409 30.29 177.97 27.66 175.064 27.66 156.504 27.66 153.598 27.66 152.159 30.29 142.88 46.633 141.471 49.134 142.88 51.622 152.159 68.023" style="fill:#abdadb"/><polygon points="179.409 79.13 177.97 76.5 175.064 76.5 156.504 76.5 153.598 76.5 152.159 79.13 142.88 95.473 141.471 97.974 142.88 100.462 152.159 116.863 153.598 119.5 156.504 119.5 175.064 119.5 177.97 119.5 179.409 116.87 188.688 100.527 190.097 98 188.688 95.525 179.409 79.13" style="fill:#abdadb"/><polygon points="12.098 168.34 13.536 165.71 22.816 149.367 24.225 146.84 22.816 144.365 13.536 127.97 12.098 125.34 9.192 125.34 0 125.34 0 130.34 9.192 130.34 18.471 146.84 9.192 163.34 0 163.34 0 168.34 9.192 168.34 12.098 168.34" style="fill:#abdadb"/><polygon points="29.162 143.92 32.068 143.92 50.628 143.92 53.534 143.92 54.972 141.289 64.252 124.947 65.661 122.42 64.252 119.945 54.972 103.55 53.534 100.92 50.628 100.92 32.068 100.92 29.162 100.92 27.724 103.55 18.444 119.893 17.035 122.393 18.444 124.882 27.724 141.283 29.162 143.92" style="fill:#abdadb"/><polygon points="27.724 190.123 29.162 192.76 32.068 192.76 50.628 192.76 53.534 192.76 54.972 190.13 64.252 173.787 65.661 171.26 64.252 168.785 54.972 152.39 53.534 149.76 50.628 149.76 32.068 149.76 29.162 149.76 27.724 152.39 18.444 168.733 17.035 171.234 18.444 173.722 27.724 190.123" style="fill:#abdadb"/><polygon points="12.186 21.71 13.625 19.08 22.904 2.737 24.313 0.21 24.193 0 18.441 0 18.559 0.21 9.28 16.71 0 16.71 0 21.71 9.28 21.71 12.186 21.71" style="fill:#abdadb"/><polygon points="27.812 43.493 29.25 46.13 32.156 46.13 50.716 46.13 53.622 46.13 55.06 43.5 64.34 27.157 65.749 24.63 64.34 22.155 55.06 5.76 53.622 3.13 50.716 3.13 32.156 3.13 29.25 3.13 27.812 5.76 18.532 22.103 17.123 24.604 18.532 27.092 27.812 43.493" style="fill:#abdadb"/></svg>